<svg xmlns="http://www.w3.org/2000/svg" width="374.553" height="224.696" viewBox="0 0 374.553 224.696"><defs><style>.a{fill:#5c63ab;}.b{fill:#fac580;}.c{opacity:0.3;}.d{fill:#263238;}.e{fill:#455a64;}.f,.h{fill:#7ba9d8;}.g{fill:#b78876;}.h{stroke:#000;stroke-miterlimit:10;stroke-width:0.25px;}.i{opacity:0.4;}.j,.q{fill:#fff;}.k{fill:#aa6550;}.l{fill:#fafafa;}.m{fill:#e8505b;}.n{fill:#69a1ac;}.o{fill:#feffff;}.p{fill:#89c5cc;}.q{stroke:rgba(0,0,0,0);font-size:16px;font-family:Helvetica;letter-spacing:-0.03em;}</style></defs><rect class="a" width="351" height="196" rx="6" transform="translate(16 14)"/><g transform="translate(288.945 132.641)"><rect class="b" width="85.055" height="92.055" rx="5.402"/></g><g class="c" transform="translate(288.696 132.604)"><path d="M75.694,399.113A36.658,36.658,0,0,0,83.6,382.349c1.5-7.208,1.35-14.677.839-21.992a13.879,13.879,0,0,1,.682-5.606c2.59-7.308,9.557-6.513,15.412-5.884a103.976,103.976,0,0,0,48.788-6.532H79.934a4.015,4.015,0,0,0-4.015,4Z" transform="translate(-75.694 -342.335)"/></g><g transform="translate(320.407 19.086)"><path class="d" d="M133.922,195.935c-1.519,3.639-6.09,5.573-6.9,9.434-.669,3.19,1.5,6.821-.192,9.608-1.565,2.581-5.4,2.629-7.575,4.723a8.381,8.381,0,0,0-2.117,5.214c-.255,2.275-.1,4.742,1.257,6.588a7.521,7.521,0,0,0,5.513,2.8,15.876,15.876,0,0,0,6.252-1.019,29.212,29.212,0,0,0,14.314-10.013,20.874,20.874,0,0,0,3.808-16.772c-1.343-5.76-5.894-10.817-11.655-12.159" transform="translate(-117.037 -194.336)"/><g transform="translate(3.784 11.486)"><path class="e" d="M122.2,235.091a.923.923,0,0,1-.076-.307,6.772,6.772,0,0,1-.115-.9,11.362,11.362,0,0,1,.229-3.317,12.884,12.884,0,0,1,1.924-4.545,12.278,12.278,0,0,1,1.92-2.219,16.655,16.655,0,0,1,2.539-1.842,9.875,9.875,0,0,0,2.364-1.907,3.772,3.772,0,0,0,.986-2.514,12.725,12.725,0,0,0-.486-2.53,5.155,5.155,0,0,1-.1-2.326,4.789,4.789,0,0,1,1.764-2.807,3.814,3.814,0,0,1,.78-.468.923.923,0,0,1,.3-.1,10.482,10.482,0,0,0-.985.686,4.793,4.793,0,0,0-1.585,2.741,4.953,4.953,0,0,0,.14,2.2,12.5,12.5,0,0,1,.532,2.6,4.131,4.131,0,0,1-1.053,2.771,10.11,10.11,0,0,1-2.449,1.993,13.293,13.293,0,0,0-4.37,3.931,13.079,13.079,0,0,0-1.952,4.4,12.519,12.519,0,0,0-.349,3.248C122.174,234.656,122.235,235.086,122.2,235.091Z" transform="translate(-121.97 -209.311)"/></g></g><g transform="translate(336.293)"><path class="d" d="M139.933,178.855a5.17,5.17,0,0,1,2.984-9.4c2.415.008,4.5,1.661,6.839,2.246a26.067,26.067,0,0,0,5.654.293,7.341,7.341,0,0,1,5.224,1.809c1.628,1.709,1.684,4.45,3.184,6.273,1.071,1.3,2.724,1.951,4.072,2.964a8.952,8.952,0,0,1,.892,13.551,10.441,10.441,0,0,0-2.544,2.76c-.8,1.742-.043,4.049-1.261,5.53s-3.8,1.352-4.723,3.016c-.37.668-.464,1.6-1.168,1.9a1.963,1.963,0,0,1-1.677-.387l-7.032-4.169" transform="translate(-137.748 -169.452)"/></g><g transform="translate(297.591 38.661)"><path class="f" d="M137.132,224.427l-7.229.965a17.53,17.53,0,0,0-7.185,4.516l-20,20.83-5.068-30.882-10.362,1.33L90.4,258.03a11.718,11.718,0,0,0,11.159,10.859q.411.01.828-.008a12.3,12.3,0,0,0,8.176-3.786l13.11-11.429" transform="translate(-87.291 -219.856)"/></g><g transform="translate(298.722 14.898)"><g transform="translate(0.403 23.763)"><g transform="translate(0 0.92)"><path class="d" d="M89.751,224.211a7.429,7.429,0,0,1-.4-3.154,7.462,7.462,0,0,1,.4,3.154Z" transform="translate(-89.291 -221.057)"/></g><g transform="translate(3.122 0.698)"><path class="d" d="M93.746,224.115a8.312,8.312,0,0,1-.308-3.348,8.312,8.312,0,0,1,.308,3.348Z" transform="translate(-93.362 -220.767)"/></g><g transform="translate(6.093)"><path class="d" d="M97.665,223.585a10.316,10.316,0,0,1-.361-3.728,10.316,10.316,0,0,1,.361,3.728Z" transform="translate(-97.235 -219.857)"/></g></g><g transform="translate(3.962)"><path class="e" d="M104.789,188.876c.2.364,6.187,25.581,6.187,25.581l-11.637,1.02L93.931,193.8Z" transform="translate(-93.931 -188.876)"/><g transform="translate(10.7 0.071)"><path class="d" d="M114.226,214.478l1.312-.619-6.069-24.849-1.587-.041Z" transform="translate(-107.882 -188.969)"/></g><g transform="translate(5.196 5.241)"><path class="d" d="M101.907,196.215a.6.6,0,1,1-.695-.5A.6.6,0,0,1,101.907,196.215Z" transform="translate(-100.705 -195.709)"/></g></g><g transform="translate(0 11.325)"><path class="g" d="M97.471,216.255l-.332-3.571,4.9-2.256-2.13-4.533a4.022,4.022,0,0,0-5.673-1.686l-1.954,1.167a5.715,5.715,0,0,0-2.684,3.8,73.351,73.351,0,0,0-.825,8.176" transform="translate(-88.766 -203.641)"/></g></g><g transform="translate(322.09 42.761)"><path class="f" d="M142.035,225.329c-9.249,1.037-12.255,7.945-16.569,14.133l-6.235,11.51,11.886,3.939-.817,20.761-5.464,16.841L167.449,290,164,274l2.429-18.253,2.267-15.223a11.333,11.333,0,0,0-6.864-12.281c-5.736-2.242-5.89-2.661-10.455-2.863-1.447-.064-8.168-.341-9.341-.054" transform="translate(-119.231 -225.202)"/><g transform="translate(11.04 18.014)"><path class="f" d="M133.665,280.659a7.573,7.573,0,0,0,.116-1.254c.043-.878.1-2.032.167-3.425.123-2.892.267-6.886.4-11.3s.232-8.412.284-11.306c.017-1.394.03-2.55.041-3.428a7.575,7.575,0,0,0-.04-1.26,7.553,7.553,0,0,0-.116,1.253c-.043.877-.1,2.03-.167,3.423-.124,2.892-.267,6.888-.4,11.3s-.232,8.412-.284,11.306c-.017,1.394-.03,2.549-.041,3.428A7.531,7.531,0,0,0,133.665,280.659Z" transform="translate(-133.625 -248.687)"/></g><g class="c" transform="translate(28.111 38.544)"><path class="h" d="M155.881,275.454" transform="translate(-155.881 -275.454)"/></g></g><g transform="translate(259.015 183.192)"><path class="f" d="M44.91,421.049l-.154-7.59,14.557-5.17.6,10.566-.818.4c-3.655,1.727-18.707,8.525-21.515,8.783C34.45,428.321,44.91,421.049,44.91,421.049Z" transform="translate(-36.996 -408.289)"/></g><g class="i" transform="translate(259 193.464)"><path class="j" d="M39.876,427.923s-3.563,2.8-2.789,3.264,16.242-5.837,22.823-9.212l-.144-.294-17.981,7.5S40.679,427.636,39.876,427.923Z" transform="translate(-36.978 -421.682)"/></g><g transform="translate(259.014 193.369)"><path class="d" d="M59.979,421.558a1.331,1.331,0,0,1-.223.12l-.652.312-2.42,1.109c-2.049.921-4.9,2.157-8.072,3.452s-6.076,2.4-8.186,3.179l-2.5.9-.686.233a1.4,1.4,0,0,1-.242.07,1.29,1.29,0,0,1,.231-.1l.673-.264,2.484-.953c2.1-.8,4.988-1.932,8.162-3.226s6.028-2.511,8.089-3.4l2.441-1.056.667-.282A1.4,1.4,0,0,1,59.979,421.558Z" transform="translate(-36.995 -421.557)"/></g><g transform="translate(261.734 199.567)"><path class="d" d="M42.7,431.243a6.032,6.032,0,0,0-.939-.988,6.026,6.026,0,0,0-1.223-.6,2.366,2.366,0,0,1,2.161,1.589Z" transform="translate(-40.543 -429.638)"/></g><g transform="translate(265.892 196.674)"><path class="d" d="M47.139,426.709c-.028.04-.314-.115-.638-.346s-.565-.45-.536-.49.314.115.639.346S47.167,426.669,47.139,426.709Z" transform="translate(-45.962 -425.867)"/></g><g transform="translate(266.774 196.058)"><path class="d" d="M48.268,425.5c-.017.046-.288-.01-.607-.124s-.564-.245-.547-.291.288.01.607.124S48.284,425.45,48.268,425.5Z" transform="translate(-47.113 -425.064)"/></g><g transform="translate(266.692 194.918)"><path class="d" d="M48.416,423.589c.019.045-.281.214-.67.377a1.723,1.723,0,0,1-.739.214c-.018-.044.281-.214.67-.377A1.723,1.723,0,0,1,48.416,423.589Z" transform="translate(-47.006 -423.577)"/></g><g transform="translate(266.419 193.926)"><path class="d" d="M48.2,422.289c.032.034-.249.33-.695.55a1.482,1.482,0,0,1-.859.223,4.685,4.685,0,0,1,.78-.381A4.6,4.6,0,0,1,48.2,422.289Z" transform="translate(-46.65 -422.284)"/></g><g transform="translate(263.235 195.881)"><path class="d" d="M45.391,425.474a2.7,2.7,0,0,1-.873.349,5.48,5.48,0,0,1-1.01.173,2.751,2.751,0,0,1-.62,0,.505.505,0,0,1-.325-.183.371.371,0,0,1-.01-.4,1.724,1.724,0,0,1,2.165-.337,1.683,1.683,0,0,1,.521.466c.1.135.127.221.118.226a2.657,2.657,0,0,0-.7-.581,1.693,1.693,0,0,0-.94-.18,1.458,1.458,0,0,0-1.009.492c-.1.159.024.3.215.328a2.761,2.761,0,0,0,.574.01,6.563,6.563,0,0,0,.992-.131C45.049,425.581,45.381,425.447,45.391,425.474Z" transform="translate(-42.499 -424.833)"/></g><g transform="translate(265.518 194.611)"><path class="d" d="M45.877,425.223a.926.926,0,0,1-.347-.563,1.546,1.546,0,0,1-.021-.733.943.943,0,0,1,.544-.739.374.374,0,0,1,.432.292,1.019,1.019,0,0,1,.011.449,2.864,2.864,0,0,1-.2.694,1.353,1.353,0,0,1-.354.555c-.024-.015.11-.227.238-.6a3.331,3.331,0,0,0,.152-.67c.044-.232-.008-.6-.243-.547-.226.068-.36.375-.423.6a1.555,1.555,0,0,0-.016.667A3.445,3.445,0,0,0,45.877,425.223Z" transform="translate(-45.475 -423.178)"/></g><g transform="translate(276.686 189.771)"><path class="d" d="M63.562,416.871c.009.031-.4.121-.986.443a4.582,4.582,0,0,0-2.4,4.273c.03.665.169,1.063.137,1.072a.864.864,0,0,1-.111-.273,3.8,3.8,0,0,1-.15-.791,4.445,4.445,0,0,1,2.464-4.393,3.82,3.82,0,0,1,.753-.284A.82.82,0,0,1,63.562,416.871Z" transform="translate(-60.035 -416.867)"/></g><g transform="translate(276.509 184.708)"><path class="d" d="M59.808,410.266A25.547,25.547,0,0,1,61.058,413a25.446,25.446,0,0,1,1.087,2.8,51,51,0,0,1-2.337-5.539Z" transform="translate(-59.805 -410.266)"/></g><g transform="translate(270.789 195.019)"><path class="d" d="M56.292,423.712a8.321,8.321,0,0,1-1.9,1,8.308,8.308,0,0,1-2.046.648c-.015-.05.891-.356,1.977-.811S56.267,423.667,56.292,423.712Z" transform="translate(-52.348 -423.709)"/></g><g transform="translate(277.205 193.935)"><path class="d" d="M60.895,422.3c.046.02,0,.217,0,.457s.016.44-.032.456-.156-.186-.145-.463S60.852,422.277,60.895,422.3Z" transform="translate(-60.713 -422.296)"/></g><g transform="translate(277.562 192.282)"><path class="d" d="M61.5,420.143c.045.019.015.2-.068.4s-.186.345-.231.327-.015-.2.067-.4S61.452,420.124,61.5,420.143Z" transform="translate(-61.177 -420.141)"/></g><g transform="translate(278.402 191.105)"><path class="d" d="M62.952,418.633c.009.051-.171.122-.341.273s-.271.315-.319.3-.011-.249.2-.433S62.949,418.586,62.952,418.633Z" transform="translate(-62.273 -418.607)"/></g><g transform="translate(279.638 190.436)"><path class="d" d="M64.238,417.746c.034.036-.016.137-.11.226s-.2.133-.232.1.016-.137.11-.226S64.2,417.711,64.238,417.746Z" transform="translate(-63.884 -417.734)"/></g><g transform="translate(260.773 107.556)"><g transform="translate(0 3.182)"><path class="d" d="M103.873,313.827l-42.742.8a13.726,13.726,0,0,0-13.366,12.047l-8.476,68.88H62.5l7.088-59.493h33.7Z" transform="translate(-39.29 -313.827)"/><g transform="translate(0.289 77.206)"><path class="e" d="M39.667,414.626c0,.11,5.085.232,11.356.271s11.251-.118,11.36-.129c.721-.071-5.083-.232-11.357-.271S39.668,414.516,39.667,414.626Z" transform="translate(-39.667 -414.485)"/></g></g><g transform="translate(31.377)"><g transform="translate(2.236)"><path class="d" d="M154.2,335.094c17.061-5.648,4.831-25.415,4.831-25.415l-65.061,3.794a10.788,10.788,0,0,0-10.86,10.787L83.351,326c0,5.958,4.592,9.052,10.55,9.052l60.3.045" transform="translate(-83.113 -309.679)"/></g><g transform="translate(0 1.001)"><path class="e" d="M143.442,310.992a.912.912,0,0,0-.214-.008L142.6,311l-2.4.093-8.836.415L102.22,313.02c-1.422.064-2.83.18-4.213.2s-2.76.075-4.1.152-2.663.173-3.953.3a14.8,14.8,0,0,0-3.755.729,9.117,9.117,0,0,0-3.124,1.9,7.843,7.843,0,0,0-1.894,2.88,13.792,13.792,0,0,0-.772,3.113,20.481,20.481,0,0,0-.206,2.941,11.953,11.953,0,0,0,.991,4.955,8.2,8.2,0,0,0,2.336,3.014,6.427,6.427,0,0,0,2.127,1.137c.531.159.541.107.025-.074a6.684,6.684,0,0,1-2.057-1.18,8.158,8.158,0,0,1-2.234-2.987,11.825,11.825,0,0,1-.916-4.866,20.585,20.585,0,0,1,.229-2.9,13.58,13.58,0,0,1,.774-3.037,7.544,7.544,0,0,1,1.83-2.751,8.8,8.8,0,0,1,3.014-1.809,14.539,14.539,0,0,1,3.671-.7c1.282-.127,2.6-.219,3.936-.293s2.7-.127,4.088-.146,2.794-.133,4.219-.2l29.144-1.626,8.831-.538,2.4-.165.624-.053A.835.835,0,0,0,143.442,310.992Z" transform="translate(-80.198 -310.984)"/></g></g></g><g transform="translate(334.511 0.374)"><g transform="translate(1.37 7.222)"><path class="g" d="M158.08,180.7a2.5,2.5,0,0,1,2.234,2.533h0l-1.415,33.73c-.054,3.983-7.281,8.693-11.547,8.6h0c-4.307-.091-3.4-4.673-3.1-8.451a56.325,56.325,0,0,0-.1-8.672s-5.443-.9-6.57-8c-.561-3.531-.383-9.321-.085-14.053a7.5,7.5,0,0,1,8.27-6.991Z" transform="translate(-137.211 -179.355)"/><g transform="translate(1.522 9.088)"><g transform="translate(0.602 1.718)"><path class="d" d="M139.981,194.266a.911.911,0,0,0,.878.919.871.871,0,0,0,.939-.821.912.912,0,0,0-.877-.92A.872.872,0,0,0,139.981,194.266Z" transform="translate(-139.98 -193.443)"/></g><path class="d" d="M139.21,192.159c.113.119.8-.391,1.783-.389s1.7.492,1.8.373c.052-.053-.063-.268-.376-.5a2.494,2.494,0,0,0-1.444-.445,2.4,2.4,0,0,0-1.419.458C139.256,191.892,139.154,192.107,139.21,192.159Z" transform="translate(-139.195 -191.203)"/></g><g transform="translate(11.154 9.27)"><g transform="translate(0.551 1.536)"><path class="d" d="M152.471,194.266a.91.91,0,0,0,.877.919.871.871,0,0,0,.939-.821.911.911,0,0,0-.877-.92A.871.871,0,0,0,152.471,194.266Z" transform="translate(-152.47 -193.443)"/></g><path class="d" d="M151.767,192.4c.114.119.8-.392,1.783-.389s1.7.492,1.8.372c.052-.053-.061-.267-.376-.495a2.5,2.5,0,0,0-1.444-.446,2.4,2.4,0,0,0-1.419.458C151.814,192.131,151.711,192.345,151.767,192.4Z" transform="translate(-151.752 -191.441)"/></g><g transform="translate(5.115 9.329)"><path class="d" d="M146.377,199.683a6.543,6.543,0,0,0-1.592-.287c-.25-.026-.487-.076-.529-.246a1.273,1.273,0,0,1,.167-.742l.74-1.905a32.76,32.76,0,0,0,1.661-4.984,32.742,32.742,0,0,0-2.059,4.838q-.372,1-.709,1.917a1.448,1.448,0,0,0-.13.982.628.628,0,0,0,.412.366,1.664,1.664,0,0,0,.425.059A6.346,6.346,0,0,0,146.377,199.683Z" transform="translate(-143.88 -191.518)"/></g><g transform="translate(6.936 26.553)"><path class="k" d="M146.253,216.511a18.059,18.059,0,0,0,9.509-2.537s-2.307,4.877-9.414,4.213Z" transform="translate(-146.253 -213.974)"/></g><g transform="translate(7.929 19.19)"><path class="k" d="M147.645,205.04a1.768,1.768,0,0,1,1.583-.656,1.611,1.611,0,0,1,1.113.6,1.022,1.022,0,0,1,.078,1.168,1.187,1.187,0,0,1-1.285.324,3.7,3.7,0,0,1-1.253-.748,1.078,1.078,0,0,1-.28-.289.329.329,0,0,1,0-.365" transform="translate(-147.548 -204.374)"/></g><g transform="translate(7.373 18.172)"><path class="d" d="M149.946,203.047c-.16-.009-.162,1.055-1.072,1.809s-2.043.638-2.05.787c-.015.067.252.206.731.219a2.65,2.65,0,0,0,1.712-.6,2.3,2.3,0,0,0,.83-1.517C150.137,203.3,150.019,203.041,149.946,203.047Z" transform="translate(-146.823 -203.047)"/></g><g transform="translate(10.723 7.777)"><path class="d" d="M151.2,190.229c.1.266,1.075.14,2.224.279,1.153.115,2.079.452,2.232.212.068-.114-.094-.364-.468-.623a3.9,3.9,0,0,0-3.4-.374C151.367,189.893,151.154,190.1,151.2,190.229Z" transform="translate(-151.19 -189.495)"/></g><g transform="translate(1.871 6.193)"><path class="d" d="M139.675,188.445c.173.222.848-.008,1.66-.019.811-.039,1.5.15,1.657-.084.07-.113-.038-.336-.339-.546a2.4,2.4,0,0,0-2.672.083C139.694,188.107,139.6,188.336,139.675,188.445Z" transform="translate(-139.65 -187.43)"/></g></g><path class="d" d="M137.075,184.194c1.025-3.421,1.845-4.464,5.35-5.635,1.743,7.689,8.61,5.108,12.489,5.74a2.551,2.551,0,0,1,1.136.364,2.442,2.442,0,0,1,.643,2.05,26.822,26.822,0,0,0,.517,6.272,10.235,10.235,0,0,0,3.034,5.415c2.342-4.935,2.576-10.678,1.528-16.038-.428-2.19-1.154-4.485-2.9-5.875a9.792,9.792,0,0,0-4.433-1.684c-3.88-.712-9.917-5.816-13.7-4.706a6.514,6.514,0,0,0-4.79,4.5,11.57,11.57,0,0,0,.514,8.187Z" transform="translate(-135.425 -169.939)"/></g><g transform="translate(355.504 108.557)"><path class="e" d="M172.571,320.247a1.774,1.774,0,0,1-.591.294,6.147,6.147,0,0,1-1.766.36,6.9,6.9,0,0,1-7.389-7.577,6.149,6.149,0,0,1,.4-1.757,1.764,1.764,0,0,1,.308-.583,12.5,12.5,0,0,0-.43,2.357,6.835,6.835,0,0,0,7.1,7.277A12.5,12.5,0,0,0,172.571,320.247Z" transform="translate(-162.795 -310.984)"/></g><path class="f" d="M143.951,225.428v-4.308a1.914,1.914,0,0,1,1.853-1.913l14.964-.477a1.914,1.914,0,0,1,1.974,1.854l.213,6.99-8.742,8.022-8.5.884-1.451-4.709Z" transform="translate(197.1 -180.933)"/><g transform="translate(325.475 44.972)"><path class="f" d="M158.657,228.084a17.521,17.521,0,0,0-5,6.857l-10.2,24.587-7.281-23.582-9.364,1.869a3.936,3.936,0,0,0-3,4.974l9.136,30.941c2.652,5.3,9.993,7.319,15.545,5.244q.368-.138.733-.3a12.3,12.3,0,0,0,6.189-6.546l7.942-15.474,5.3-12.1q.166-.38.3-.765c2.514-6.991-2.325-14.5-9.672-15.606l-.624-.094" transform="translate(-123.644 -228.084)"/><g transform="translate(19.913 31.206)"><path class="f" d="M150.525,274.195a22.119,22.119,0,0,1-.887-5.426" transform="translate(-149.606 -268.769)"/></g></g><g transform="translate(325.398 54.806)"><path class="d" d="M126.388,240.9a8.666,8.666,0,0,0-.837.321,3.2,3.2,0,0,0-1.585,1.9,4.331,4.331,0,0,0-.219,1.808,10.882,10.882,0,0,0,.534,2.134l1.565,5.194,4.04,13.53c.759,2.546,1.556,5.217,2.381,7.986a13.354,13.354,0,0,0,5.152,6.959,11.861,11.861,0,0,0,8.37,1.99,10.821,10.821,0,0,0,6.891-4.06,21.221,21.221,0,0,0,1.931-3.324L156.3,272.1c1.093-2.093,2.112-4.044,3.044-5.827,1.862-3.539,3.373-6.411,4.433-8.426L165,255.563l.327-.589a1.019,1.019,0,0,1,.123-.194.957.957,0,0,1-.087.213l-.291.607-1.157,2.316L159.6,266.4l-3,5.85-1.675,3.258a21.346,21.346,0,0,1-1.951,3.387,11.177,11.177,0,0,1-7.122,4.222,12.232,12.232,0,0,1-8.653-2.047,13.712,13.712,0,0,1-5.3-7.17l-2.361-8-3.958-13.555c-.558-1.927-1.063-3.672-1.508-5.211a10.873,10.873,0,0,1-.51-2.182,4.459,4.459,0,0,1,.262-1.874,3.232,3.232,0,0,1,1.7-1.922A2.777,2.777,0,0,1,126.388,240.9Z" transform="translate(-123.545 -240.905)"/></g><g transform="translate(338.002 52.834)"><path class="d" d="M139.98,238.335a2.273,2.273,0,0,1,.184.449l.455,1.306,1.6,4.824c1.326,4.126,3.132,9.743,5.128,15.951l.239.753-.374-.015,6.257-14.978,1.926-4.5.542-1.213a2.134,2.134,0,0,1,.212-.412,2.09,2.09,0,0,1-.14.443l-.473,1.24c-.446,1.118-1.059,2.658-1.81,4.544l-6.145,15.025-.209.509-.166-.525-.239-.754c-1.954-6.224-3.721-11.858-5.019-16l-1.477-4.859-.382-1.326A2.13,2.13,0,0,1,139.98,238.335Z" transform="translate(-139.977 -238.335)"/></g><g transform="translate(355.307 46.997)"><path class="d" d="M171.484,230.907c-.007.066-.637,0-1.634.106a8.786,8.786,0,0,0-6.451,3.893c-.561.831-.794,1.421-.854,1.4a3.834,3.834,0,0,1,.615-1.546,8.115,8.115,0,0,1,6.669-4.025A3.842,3.842,0,0,1,171.484,230.907Z" transform="translate(-162.538 -230.725)"/></g><g transform="translate(343.892 38.235)"><path class="d" d="M147.758,225.647a25.368,25.368,0,0,1,.284-6.346,25.37,25.37,0,0,1-.284,6.346Z" transform="translate(-147.655 -219.301)"/></g><g transform="translate(347.61 38.187)"><path class="d" d="M152.852,225.248a14.941,14.941,0,0,1-.081-6.01,47.906,47.906,0,0,1,.081,6.01Z" transform="translate(-152.504 -219.238)"/></g><g transform="translate(351.695 38.016)"><path class="d" d="M158.1,225.111a16.056,16.056,0,0,1,.045-6.095,43.144,43.144,0,0,1-.045,6.095Z" transform="translate(-157.829 -219.016)"/></g><g transform="translate(355.972 37.934)"><path class="d" d="M163.616,224.915a22.67,22.67,0,0,1-.022-6.006,22.671,22.671,0,0,1,.022,6.006Z" transform="translate(-163.405 -218.908)"/></g><g transform="translate(311.752 69.017)"><path class="d" d="M106.31,267.668a9.918,9.918,0,0,1,.789-8.234,28.753,28.753,0,0,0-.9,4.069A28.768,28.768,0,0,0,106.31,267.668Z" transform="translate(-105.753 -259.433)"/></g><g transform="translate(322.95 38.42)"><path class="g" d="M134.239,234.362s-.527-5.875-.917-8.908-2.245-2.675-2.416-4.319-.92-1.562-.92-1.562c-.9-.326-.691,2.117-.691,2.117s-7.232-1.748-7.776-1.976a.913.913,0,0,0-1.1,1.212,33.214,33.214,0,0,0,4.147,1.977s-3.313,3.191-3.385,4.538,4.367,4.484,4.367,4.484l.094,4Z" transform="translate(-120.352 -219.543)"/><g transform="translate(4.117 3.347)"><path class="k" d="M129.082,225.692c-.057.013-.146-.167-.438-.3s-.764-.286-1.243-.506a4.8,4.8,0,0,1-1.681-.961,4.822,4.822,0,0,1,1.842.6,7.945,7.945,0,0,1,1.23.632C129.12,225.391,129.14,225.692,129.082,225.692Z" transform="translate(-125.719 -223.906)"/></g><g transform="translate(2.8 4.855)"><path class="k" d="M126.984,227.794c-.08.083-.7-.4-1.511-.915S123.964,226,124,225.9a2.984,2.984,0,0,1,1.684.645C126.538,227.081,127.06,227.72,126.984,227.794Z" transform="translate(-124.003 -225.873)"/></g><g transform="translate(1.512 6.462)"><path class="k" d="M125.492,229.566a4.1,4.1,0,0,1-1.672-.611c-.874-.436-1.543-.868-1.493-.967a4.078,4.078,0,0,1,1.671.61C124.872,229.033,125.541,229.467,125.492,229.566Z" transform="translate(-122.324 -227.968)"/></g><g transform="translate(8.554 2.098)"><path class="k" d="M136.837,234.827a12.683,12.683,0,0,1-.318-2.162c-.163-1.337-.344-3.192-.7-5.2a12.807,12.807,0,0,0-.735-2.748,2.088,2.088,0,0,0-.7-.924,7.144,7.144,0,0,0-.913-.571c-1.187-.6-1.991-.864-1.964-.931a1.659,1.659,0,0,1,.578.121,11.04,11.04,0,0,1,1.512.557,6.759,6.759,0,0,1,.98.555,2.392,2.392,0,0,1,.843,1.037,11.906,11.906,0,0,1,.794,2.833,48.608,48.608,0,0,1,.588,5.25A11.134,11.134,0,0,1,136.837,234.827Z" transform="translate(-131.504 -222.278)"/></g></g><g transform="translate(338.556 2.497)"><path class="e" d="M165.911,200.008a2.545,2.545,0,0,1,.136-.5l.449-1.412a28.744,28.744,0,0,0,1.226-5.278,13.458,13.458,0,0,0-.054-3.708,10.19,10.19,0,0,0-1.518-3.932,7.163,7.163,0,0,0-3.541-2.885,18.057,18.057,0,0,0-5.014-.6,8.077,8.077,0,0,1-4.91-1.591,4.538,4.538,0,0,1-1.338-2.12c-.255-.772-.4-1.537-.679-2.224a4.209,4.209,0,0,0-3.067-2.547,6.813,6.813,0,0,0-3.633.108,4.67,4.67,0,0,0-2.464,1.66,3.452,3.452,0,0,0-.636,2.146,2.879,2.879,0,0,0,.4,1.379c.175.285.309.407.292.422a1.51,1.51,0,0,1-.359-.378,2.8,2.8,0,0,1-.489-1.413,3.584,3.584,0,0,1,.608-2.285,4.873,4.873,0,0,1,2.562-1.8,7.063,7.063,0,0,1,3.8-.16,5.306,5.306,0,0,1,1.955.9,4.205,4.205,0,0,1,1.374,1.832c.295.728.45,1.5.7,2.24a4.152,4.152,0,0,0,1.233,1.946,7.741,7.741,0,0,0,4.676,1.487,18.146,18.146,0,0,1,5.122.626,7.506,7.506,0,0,1,3.718,3.052,10.43,10.43,0,0,1,1.537,4.081,13.493,13.493,0,0,1,.008,3.8,26.216,26.216,0,0,1-1.359,5.293c-.216.607-.4,1.075-.52,1.39A2.568,2.568,0,0,1,165.911,200.008Z" transform="translate(-140.699 -172.707)"/></g><g transform="translate(355.438 15.375)"><path class="e" d="M166.367,211.251a13.757,13.757,0,0,0,1.9-3.046,10.635,10.635,0,0,0,.8-3.775,9.657,9.657,0,0,0-1-4.577c-.373-.759-.8-1.483-1.139-2.233a8.506,8.506,0,0,1-.667-2.275,13.084,13.084,0,0,0-.844-3.787,3.673,3.673,0,0,0-1.774-1.8,4.363,4.363,0,0,0-.93-.22c0-.014.085-.028.255-.041a2.107,2.107,0,0,1,.729.116,3.693,3.693,0,0,1,1.97,1.813,12.52,12.52,0,0,1,.956,3.855,8.332,8.332,0,0,0,.66,2.176c.33.723.759,1.44,1.142,2.218a9.8,9.8,0,0,1,1.014,4.765,10.45,10.45,0,0,1-.91,3.876,8.971,8.971,0,0,1-1.448,2.257,5.209,5.209,0,0,1-.509.52C166.445,211.207,166.376,211.261,166.367,211.251Z" transform="translate(-162.709 -189.498)"/></g><g transform="translate(339.313 56.187)"><path class="l" d="M155.558,242.714a10.153,10.153,0,0,1-1.94.858,21.718,21.718,0,0,1-4.961,1.321,11.053,11.053,0,0,1-5.115-.492,7.031,7.031,0,0,1-1.406-.689c-.309-.2-.462-.341-.449-.361.038-.062.713.4,1.945.782a12.052,12.052,0,0,0,4.976.363,27.438,27.438,0,0,0,4.916-1.191A12.365,12.365,0,0,1,155.558,242.714Z" transform="translate(-141.687 -242.706)"/></g><g transform="translate(354.028 54.551)"><path class="l" d="M176.811,247.606a9.739,9.739,0,0,0-1.127-2.51,9.607,9.607,0,0,0-5.372-3.649,20.6,20.6,0,0,0-6.647-.43,24.84,24.84,0,0,1-2.794.161,2.721,2.721,0,0,1,.736-.166c.478-.081,1.17-.183,2.033-.277a18.7,18.7,0,0,1,6.776.325,9.446,9.446,0,0,1,5.5,3.88,6.073,6.073,0,0,1,.8,1.911A2.227,2.227,0,0,1,176.811,247.606Z" transform="translate(-160.871 -240.573)"/></g><g transform="translate(348.834 68.267)"><path class="l" d="M166.629,269.349c-.074.022-.328-.933-1.036-2.339a15.978,15.978,0,0,0-1.458-2.337,16.005,16.005,0,0,0-5.057-4.39,15.864,15.864,0,0,0-2.518-1.116c-1.49-.5-2.472-.622-2.461-.7a2.314,2.314,0,0,1,.694.037,5.556,5.556,0,0,1,.8.132,9.447,9.447,0,0,1,1.049.26,14.121,14.121,0,0,1,2.608,1.062,15.117,15.117,0,0,1,5.177,4.5,14.1,14.1,0,0,1,1.416,2.433,9.591,9.591,0,0,1,.406,1,5.728,5.728,0,0,1,.243.777A2.327,2.327,0,0,1,166.629,269.349Z" transform="translate(-154.099 -258.455)"/></g><g transform="translate(345.662 75.697)"><path class="l" d="M153.484,288.533c-.073-.02.261-1.174.508-3.082a25.62,25.62,0,0,0,.2-3.367,25.167,25.167,0,0,0-1.4-8.1,25.622,25.622,0,0,0-1.318-3.1c-.871-1.716-1.573-2.691-1.511-2.734a3.424,3.424,0,0,1,.534.654,16.8,16.8,0,0,1,1.226,1.947,22.463,22.463,0,0,1,1.415,3.113,23.387,23.387,0,0,1,1.418,8.226,22.326,22.326,0,0,1-.291,3.407,17.034,17.034,0,0,1-.5,2.247A3.458,3.458,0,0,1,153.484,288.533Z" transform="translate(-149.964 -268.142)"/></g><g transform="translate(331.857 70.468)"><path class="l" d="M131.966,269.3c0-.072.825-.123,2.108-.446a14.571,14.571,0,0,0,8.324-5.718c.761-1.083,1.107-1.839,1.172-1.808a1.657,1.657,0,0,1-.187.556,9.251,9.251,0,0,1-.75,1.409,13.293,13.293,0,0,1-8.5,5.836,9.266,9.266,0,0,1-1.585.195A1.653,1.653,0,0,1,131.966,269.3Z" transform="translate(-131.966 -261.325)"/></g><g transform="translate(326.844 61.148)"><path class="l" d="M139.1,249.178c.018.018-.107.179-.371.436a7.435,7.435,0,0,1-1.239.947,11.713,11.713,0,0,1-4.867,1.58,22.986,22.986,0,0,1-5.111-.1,10.163,10.163,0,0,1-2.082-.356,12.157,12.157,0,0,1,2.107.074,29.571,29.571,0,0,0,5.041-.015,12.9,12.9,0,0,0,4.769-1.427C138.473,249.7,139.05,249.125,139.1,249.178Z" transform="translate(-125.429 -249.175)"/></g><g transform="translate(339.385 44.546)"><path class="l" d="M161.55,228.66a3.416,3.416,0,0,1-.751.39c-.494.226-1.215.54-2.12.9a23.62,23.62,0,0,1-7.394,1.766,12.138,12.138,0,0,1-7.317-1.916,8.025,8.025,0,0,1-1.717-1.559,2.788,2.788,0,0,1-.472-.706,13.328,13.328,0,0,0,2.343,2.029,12.474,12.474,0,0,0,7.144,1.753,26.149,26.149,0,0,0,7.313-1.632l2.16-.775A3.469,3.469,0,0,1,161.55,228.66Z" transform="translate(-141.779 -227.53)"/></g><g transform="translate(317.171 65.064)"><path class="l" d="M122.305,268.137c-.067.015-.283-.926-.811-2.382a23.826,23.826,0,0,0-6.748-9.857c-1.166-1.019-1.965-1.559-1.927-1.617a2.231,2.231,0,0,1,.6.321,14.887,14.887,0,0,1,1.508,1.079,21.042,21.042,0,0,1,6.834,9.983,14.63,14.63,0,0,1,.46,1.8A2.252,2.252,0,0,1,122.305,268.137Z" transform="translate(-112.818 -254.279)"/></g><g transform="translate(313.933 69.527)"><path class="l" d="M109.21,278.27a23.93,23.93,0,0,1,.106-2.671c.085-1.645.149-3.92.067-6.431s-.3-4.776-.492-6.412a24,24,0,0,1-.281-2.658,2.514,2.514,0,0,1,.2.693c.105.451.23,1.109.362,1.926a52.55,52.55,0,0,1,.426,12.9c-.077.824-.16,1.489-.234,1.946A2.513,2.513,0,0,1,109.21,278.27Z" transform="translate(-108.597 -260.098)"/></g><g transform="translate(300.351 66.652)"><path class="l" d="M103.006,256.353a6.922,6.922,0,0,1-1.394,1.456A18.2,18.2,0,0,1,92.9,261.95a6.977,6.977,0,0,1-2.009.161,30.174,30.174,0,0,0,6.474-2A30.194,30.194,0,0,0,103.006,256.353Z" transform="translate(-90.889 -256.349)"/></g><g transform="translate(299.095 57.073)"><path class="l" d="M100.924,243.869a5.274,5.274,0,0,1-1.513.95,13.52,13.52,0,0,1-8.456,1.079,5.307,5.307,0,0,1-1.7-.539,21.287,21.287,0,0,0,5.968.287A21.231,21.231,0,0,0,100.924,243.869Z" transform="translate(-89.252 -243.862)"/></g><g transform="translate(297.792 44.55)"><path class="l" d="M97.951,227.543a4.5,4.5,0,0,1-1.388.746,13.551,13.551,0,0,1-7.5.757,4.542,4.542,0,0,1-1.509-.453,26.071,26.071,0,0,0,5.273.209A26.035,26.035,0,0,0,97.951,227.543Z" transform="translate(-87.553 -227.534)"/></g><g transform="translate(332.954 91.996)"><path class="l" d="M167.645,289.487c0,.037-.511,0-1.422.063a16.194,16.194,0,0,0-3.779.759,36.481,36.481,0,0,0-5.271,2.269,48.556,48.556,0,0,1-6.467,2.9,18.677,18.677,0,0,1-7.042.88A19.428,19.428,0,0,1,138,295.116a17.3,17.3,0,0,1-3.469-1.8,10.428,10.428,0,0,1-.857-.626,1.322,1.322,0,0,1-.278-.245,25.7,25.7,0,0,0,4.7,2.4,19.919,19.919,0,0,0,5.587,1.138,18.738,18.738,0,0,0,6.9-.892,51.46,51.46,0,0,0,6.428-2.849,34.09,34.09,0,0,1,5.351-2.208,14.664,14.664,0,0,1,3.854-.645,8.389,8.389,0,0,1,1.063.035A1.305,1.305,0,0,1,167.645,289.487Z" transform="translate(-133.395 -289.393)"/></g><g transform="translate(359.669 81.23)"><path class="l" d="M176.315,275.371a19.033,19.033,0,0,1-8.089,1.6c-.008-.117,1.829-.3,4.054-.748S176.278,275.261,176.315,275.371Z" transform="translate(-168.226 -275.357)"/></g><g transform="translate(329.915 101.061)"><path class="l" d="M168.591,301.214a1.523,1.523,0,0,1-.372.159l-1.093.381c-.95.329-2.342.754-4.075,1.23a92.834,92.834,0,0,1-27.821,3.19c-1.8-.071-3.248-.17-4.248-.276l-1.151-.123a.2.2,0,1,1,.007-.081l1.155.049c1,.058,2.452.114,4.244.149a103.977,103.977,0,0,0,27.742-3.181c1.737-.44,3.139-.822,4.1-1.106l1.114-.309A1.553,1.553,0,0,1,168.591,301.214Z" transform="translate(-129.433 -301.211)"/></g><g class="c" transform="translate(347.442 70.909)"><path d="M152.285,287.819a18.24,18.24,0,0,0,6.559,1.358,9.546,9.546,0,0,0,6.223-2.184c2.056-1.813,2.975-4.567,3.711-7.208A77.7,77.7,0,0,0,171,261.9s-4.456,9.214-6.056,12.033c-1.417,2.494-2.871,5.039-4.588,8.673a9.885,9.885,0,0,1-8.069,5.213" transform="translate(-152.285 -261.9)"/></g><g class="c" transform="translate(323 58.147)"><path d="M122.667,245.261a26.678,26.678,0,0,0,.189,21.861l4.93-4.392Z" transform="translate(-120.419 -245.261)"/></g><g transform="translate(0 138.181)"><path class="m" d="M426.136,442.49c.667-2.647-1.081-5.29-3.034-7.2s-4.286-3.61-5.311-6.14c-1.66-4.1.51-9.428-2.3-12.839-1.655-2.006-4.607-2.664-6.077-4.81a11.026,11.026,0,0,1-1.335-3.841,39.094,39.094,0,0,0-9.825-18.137,33.921,33.921,0,0,0,3.913,17.511c1.144,2.149,2.546,4.241,2.934,6.643.631,3.9-1.525,7.936-.545,11.764,1.122,4.378,6.064,7.285,6.323,11.8.219,3.814-3.088,7.183-2.818,10.994a10.309,10.309,0,0,0,1.723,4.515c2.979,4.888,7.332,8.241,13.9,8.095l8.047.236Z" transform="translate(-398.211 -389.527)"/></g><g transform="translate(0 138.181)"><path class="n" d="M426.136,442.49c.667-2.647-1.081-5.29-3.034-7.2s-4.286-3.61-5.311-6.14c-1.66-4.1.51-9.428-2.3-12.839-1.655-2.006-4.607-2.664-6.077-4.81a11.026,11.026,0,0,1-1.335-3.841,39.094,39.094,0,0,0-9.825-18.137,33.921,33.921,0,0,0,3.913,17.511c1.144,2.149,2.546,4.241,2.934,6.643.631,3.9-1.525,7.936-.545,11.764,1.122,4.378,6.064,7.285,6.323,11.8.219,3.814-3.088,7.183-2.818,10.994a10.309,10.309,0,0,0,1.723,4.515c2.979,4.888,7.332,8.241,13.9,8.095l8.047.236Z" transform="translate(-398.211 -389.527)"/></g><g transform="translate(31.019 110.194)"><path class="o" d="M433.841,460.851s.192-.007.562,0a10.253,10.253,0,0,0,1.636-.167,13.8,13.8,0,0,0,2.574-.713,11.057,11.057,0,0,0,3.142-1.8,4.312,4.312,0,0,0,1.239-1.7,8.172,8.172,0,0,0,.33-2.341,23.357,23.357,0,0,1,.155-2.635,7.43,7.43,0,0,1,.983-2.7c.958-1.72,2.48-3.292,2.933-5.457.506-2.143.1-4.5-.3-6.919-.4-2.4-.807-5.118.128-7.746.872-2.6,2.615-4.9,3.433-7.638s.4-5.789.561-8.9a12.37,12.37,0,0,1,1.052-4.638c.662-1.474,1.556-2.826,2.228-4.288,1.359-2.935,1.591-6.316,1.957-9.7q.269-2.548.542-5.148a25.632,25.632,0,0,1,.876-5.236,45.684,45.684,0,0,1,1.91-5.045,16.256,16.256,0,0,0,.889-2.514,26.208,26.208,0,0,0,.231-2.686,32.038,32.038,0,0,0-.244-5.484c-.226-1.834-.573-3.676-.786-5.558l-.038-.324.369.2a11.932,11.932,0,0,0-4.13,3.529,19.249,19.249,0,0,0-2.564,4.791c-1.3,3.393-1.766,6.981-2.429,10.464a29.076,29.076,0,0,1-3.327,9.912c-.9,1.474-1.965,2.79-2.876,4.167a10.922,10.922,0,0,0-1.9,4.4c-.466,3.167,1.412,6.166,1.043,9.378a10.864,10.864,0,0,1-1.511,4.355c-.743,1.318-1.605,2.519-2.413,3.714a23.226,23.226,0,0,0-2.115,3.65,11.374,11.374,0,0,0-.947,3.9c-.19,2.651.2,5.232,0,7.715a18.063,18.063,0,0,1-2.017,6.741c-.983,2-2.067,3.787-2.971,5.513a27.966,27.966,0,0,0-1.212,2.538,12.441,12.441,0,0,0-.7,2.487,15.994,15.994,0,0,0-.077,4.527,11.648,11.648,0,0,0,2.218,5.805,10.246,10.246,0,0,0,1.568,1.532s-.16-.1-.462-.32a3.117,3.117,0,0,1-.531-.446,5.437,5.437,0,0,1-.655-.7,11.565,11.565,0,0,1-2.335-5.844,16.027,16.027,0,0,1,.033-4.593,12.665,12.665,0,0,1,.691-2.548c.339-.852.754-1.7,1.205-2.571.9-1.74,1.97-3.537,2.933-5.522a17.772,17.772,0,0,0,1.948-6.625c.185-2.431-.215-5-.033-7.718a11.745,11.745,0,0,1,.965-4.039,23.581,23.581,0,0,1,2.139-3.724c.807-1.2,1.66-2.4,2.383-3.69a10.443,10.443,0,0,0,1.445-4.185c.373-3.016-1.519-6-1.063-9.4a11.388,11.388,0,0,1,1.971-4.6c.926-1.4,1.985-2.718,2.859-4.156a28.628,28.628,0,0,0,3.252-9.751c.658-3.461,1.121-7.086,2.445-10.551a19.745,19.745,0,0,1,2.633-4.919,12.436,12.436,0,0,1,4.31-3.68l.326-.165.043.367.038.321c.21,1.859.555,3.7.784,5.554a32.6,32.6,0,0,1,.246,5.569,25.867,25.867,0,0,1-.244,2.768,16.448,16.448,0,0,1-.919,2.606,45.573,45.573,0,0,0-1.9,4.991,25.269,25.269,0,0,0-.865,5.151q-.276,2.6-.548,5.145c-.372,3.369-.6,6.806-2.015,9.845-.7,1.5-1.592,2.852-2.235,4.28a11.919,11.919,0,0,0-1.023,4.474c-.168,3.041.259,6.12-.6,8.99-.866,2.842-2.618,5.124-3.466,7.646-.909,2.52-.532,5.149-.145,7.561s.8,4.822.259,7.051c-.5,2.266-2.062,3.852-3,5.524a7.177,7.177,0,0,0-.968,2.593,23.381,23.381,0,0,0-.173,2.6,8.334,8.334,0,0,1-.364,2.406,4.511,4.511,0,0,1-1.319,1.777,11.07,11.07,0,0,1-3.219,1.786,13.435,13.435,0,0,1-2.611.674A6.44,6.44,0,0,1,433.841,460.851Z" transform="translate(-429.71 -361.107)"/><g transform="translate(4.129 4.808)"><path class="o" d="M458.791,365.989a.989.989,0,0,1-.026.254c-.032.195-.073.437-.123.736-.123.646-.271,1.594-.543,2.82-.289,1.233-.988,2.6-1.571,4.262-.611,1.654-1.23,3.566-1.8,5.713s-1.083,4.523-1.62,7.085a29.978,29.978,0,0,1-2.524,7.993c-.652,1.325-1.376,2.645-1.936,4.059a18.55,18.55,0,0,0-1.09,4.512,92.221,92.221,0,0,1-1.676,9.785c-1.591,6.6-3.107,12.9-4.487,18.624-1.441,5.7-2.74,10.831-3.834,15.158L434.936,457.2q-.47,1.758-.74,2.769l-.2.717a1.025,1.025,0,0,1-.087.24.958.958,0,0,1,.035-.253l.156-.729q.235-1.018.646-2.793c.594-2.461,1.435-5.952,2.47-10.248l3.728-15.185,4.443-18.619a93.358,93.358,0,0,0,1.68-9.745,18.989,18.989,0,0,1,1.131-4.622c.582-1.451,1.317-2.778,1.969-4.089a29.829,29.829,0,0,0,2.532-7.873c.553-2.556,1.084-4.943,1.686-7.091s1.24-4.066,1.879-5.719c.615-1.665,1.337-3.018,1.647-4.212s.481-2.156.634-2.79l.173-.726A.943.943,0,0,1,458.791,365.989Z" transform="translate(-433.902 -365.989)"/></g></g><g transform="translate(6.868 85)"><path class="p" d="M434.887,460.478c5.238-3.154,6.692-12.645,4.468-18.34s-6.092-10.888-6.718-16.969c-.482-4.676,1.023-9.485-.093-14.052-1.5-6.162-7.556-10.907-7.523-17.25.019-3.559,2.025-6.919,1.842-10.473-.223-4.361-3.589-7.8-5.684-11.631-3.206-5.861-3.455-12.813-4.577-19.4s-3.675-13.633-9.537-16.84c-.831,5.6-2.282,9.444-1.777,17.025.182,2.723,3.375,7.918,3.84,13.884.278,3.566.476,7.138.714,10.705.231,3.473.478,7.009,1.741,10.252.968,2.486,2.514,4.739,3.237,7.306,1.361,4.83-.36,10.08.743,14.975.935,4.147,3.83,7.7,4.44,11.912.859,5.911-2.935,12.079-.943,17.711.989,2.795,3.3,5.03,3.975,7.917.52,2.24-.02,4.619.453,6.87.76,3.627,7.7,6.407,11.4,6.162" transform="translate(-405.185 -335.523)"/></g><g transform="translate(10.227 90.548)"><path class="d" d="M408.6,341.157a1.509,1.509,0,0,1,.076.307c.044.232.1.533.174.911.158.8.335,2,.643,3.5.324,1.5,1.153,3.22,1.833,5.32.711,2.084,1.419,4.494,2.049,7.195s1.182,5.689,1.745,8.892a37.117,37.117,0,0,0,2.763,9.919c.747,1.662,1.6,3.346,2.245,5.172a23.493,23.493,0,0,1,1.179,5.785,116.1,116.1,0,0,0,1.616,12.2c1.642,8.282,3.205,16.171,4.629,23.351,1.47,7.162,2.8,13.615,3.911,19.047l2.594,12.849c.29,1.494.518,2.666.679,3.5.068.379.122.68.164.913a1.465,1.465,0,0,1,.038.314,1.484,1.484,0,0,1-.09-.3c-.055-.23-.125-.528-.215-.9-.184-.829-.443-2-.774-3.48-.657-3.06-1.6-7.429-2.752-12.816l-4.02-19.025c-1.437-7.182-3.014-15.073-4.671-23.357a114.343,114.343,0,0,1-1.611-12.235,23.163,23.163,0,0,0-1.141-5.673c-.631-1.788-1.467-3.464-2.215-5.14a37.27,37.27,0,0,1-2.75-10.041c-.546-3.209-1.065-6.19-1.68-8.884s-1.285-5.1-1.969-7.186c-.647-2.093-1.453-3.825-1.755-5.367-.282-1.533-.424-2.72-.55-3.527-.052-.381-.093-.684-.124-.919A1.387,1.387,0,0,1,408.6,341.157Z" transform="translate(-408.595 -341.157)"/></g><text class="q" transform="translate(87 40)"><tspan x="0" y="12">Lorem ipsum dolor sit </tspan><tspan x="0" y="32">amet, consectetur </tspan><tspan x="0" y="52">adipiscing elit </tspan></text><text class="q" transform="translate(87 161)"><tspan x="0" y="12">Lorem Ipsum</tspan></text></svg>