<svg xmlns="http://www.w3.org/2000/svg" width="33.122" height="33.121" viewBox="0 0 33.122 33.121"><path d="M21.559,5A16.61,16.61,0,0,0,5,21.45a16.586,16.586,0,0,0,16.45,16.671h.11A16.56,16.56,0,1,0,21.559,5Zm0,30.876h-.11a14.391,14.391,0,0,1-10.12-4.269,14.152,14.152,0,0,1-4.085-10.12A14.334,14.334,0,1,1,21.559,35.876Z" transform="translate(-4.998 -5)" fill="#6c757d"/><path d="M41.734,32.639l-9.863-7.618a1.05,1.05,0,0,0-1.288,0l-9.9,7.618a1.075,1.075,0,0,0,1.325,1.693l1.582-1.214v7.618A1.068,1.068,0,0,0,24.659,41.8H37.8a1.068,1.068,0,0,0,1.067-1.067V33.117l1.582,1.214a1.094,1.094,0,0,0,1.509-.184A1.139,1.139,0,0,0,41.734,32.639Zm-5,7.029H25.689V31.461l5.52-4.232,5.52,4.232Z" transform="translate(-14.648 -17.513)" fill='#6c757d'/></svg>