<svg xmlns="http://www.w3.org/2000/svg" width="30.666" height="29.667" viewBox="0 0 30.666 29.667"><g transform="translate(-18.577 -17.19)" opacity="0.72"><path d="M19.431,34.673l2.3.243a11.754,11.754,0,0,0,1.467,3.407l-1.4,1.687a.9.9,0,0,0,.07,1.237L24.4,43.69a.979.979,0,0,0,1.274.068L27.426,42.4a12.7,12.7,0,0,0,3.441,1.391l.255,2.239a.947.947,0,0,0,.953.826h3.582a.947.947,0,0,0,.952-.825l.25-2.194a12.662,12.662,0,0,0,3.575-1.4L42.2,43.8a.982.982,0,0,0,1.274-.068L46,41.291a.905.905,0,0,0,.07-1.238l-1.389-1.669A11.768,11.768,0,0,0,46.2,34.9l2.191-.232a.939.939,0,0,0,.855-.922V30.3a.939.939,0,0,0-.854-.922L46.2,29.143A11.793,11.793,0,0,0,44.7,25.651l1.379-1.659A.905.905,0,0,0,46,22.755l-2.534-2.443a.983.983,0,0,0-1.274-.068l-1.745,1.35a12.7,12.7,0,0,0-3.594-1.409l-.25-2.169a.948.948,0,0,0-.952-.825H32.074a.947.947,0,0,0-.953.825l-.254,2.215a12.653,12.653,0,0,0-3.433,1.386l-1.774-1.37a.982.982,0,0,0-1.274.068l-2.534,2.443a.9.9,0,0,0-.07,1.238L23.2,25.7a11.748,11.748,0,0,0-1.478,3.437l-2.289.244a.939.939,0,0,0-.854.922v3.454A.941.941,0,0,0,19.431,34.673Zm1.063-3.546,2.124-.226a.946.946,0,0,0,.838-.754,9.995,9.995,0,0,1,1.711-3.981.9.9,0,0,0-.04-1.109L23.817,23.48l1.317-1.27,1.643,1.269a.985.985,0,0,0,1.139.041A10.778,10.778,0,0,1,31.925,21.9a.941.941,0,0,0,.772-.808l.235-2.049H34.8l.231,2.016a.941.941,0,0,0,.788.811,10.789,10.789,0,0,1,4.158,1.63.982.982,0,0,0,1.137-.042l1.614-1.248,1.317,1.269-1.277,1.535a.9.9,0,0,0-.038,1.113,9.973,9.973,0,0,1,1.741,4.031.945.945,0,0,0,.838.755l2.021.214V32.92l-2.025.214a.946.946,0,0,0-.838.754,9.97,9.97,0,0,1-1.746,4.019.9.9,0,0,0,.037,1.114l1.288,1.546-1.317,1.269-1.63-1.26a.986.986,0,0,0-1.137-.043,10.775,10.775,0,0,1-4.141,1.619.94.94,0,0,0-.788.811L34.8,45H32.933L32.7,42.929a.94.94,0,0,0-.772-.809A10.8,10.8,0,0,1,27.91,40.5a.98.98,0,0,0-1.14.04l-1.625,1.255-1.317-1.27,1.3-1.561a.9.9,0,0,0,.041-1.109,9.972,9.972,0,0,1-1.7-3.954.949.949,0,0,0-.838-.753L20.5,32.919V31.126h0Z" transform="translate(0 0)" fill="#707070"/><path d="M46.327,48.689a3.742,3.742,0,1,0-3.751-3.742A3.751,3.751,0,0,0,46.327,48.689Zm0-5.609a1.867,1.867,0,1,1-1.876,1.867A1.874,1.874,0,0,1,46.327,43.08Z" transform="translate(-12.417 -12.924)" fill="#707070"/></g></svg>