<svg xmlns="http://www.w3.org/2000/svg" width="33.122" height="33.121" viewBox="0 0 33.122 33.121"><g transform="translate(-268.93 -786)"><g transform="translate(268.93 786)"><path d="M21.559,5A16.61,16.61,0,0,0,5,21.45a16.586,16.586,0,0,0,16.45,16.671h.11A16.56,16.56,0,1,0,21.559,5Zm0,30.876h-.11a14.391,14.391,0,0,1-10.12-4.269,14.152,14.152,0,0,1-4.085-10.12A14.334,14.334,0,1,1,21.559,35.876Z" transform="translate(-4.998 -5)" fill="#9d9d9d"/></g></g><g transform="translate(9.07 8)" fill="#9d9d9d" stroke="#707070" stroke-width="1"><rect width="14" height="6" rx="3" stroke="none"/><rect x="0.5" y="0.5" width="13" height="5" rx="2.5" fill="#9d9d9d"/></g><g transform="translate(5.07 11)" fill="#9d9d9d" stroke="#707070" stroke-width="1"><rect width="23" height="14" rx="4" stroke="none"/><rect x="0.5" y="0.5" width="22" height="13" rx="3.5" fill="none"/></g><g transform="translate(5.07 11)" fill="#9d9d9d" stroke="#707070" stroke-width="1"><rect width="23" height="6" rx="3" stroke="none"/><rect x="0.5" y="0.5" width="22" height="5" rx="2.5" fill="none"/></g><g transform="translate(12.07 13)" fill="#fff" stroke="#707070" stroke-width="1"><circle cx="4.5" cy="4.5" r="4.5" stroke="none"/><circle cx="4.5" cy="4.5" r="4" fill="none"/></g><g transform="translate(16.07 15)" fill="#817d7d" stroke="#707070" stroke-width="1"><rect width="1" height="5" stroke="none"/><rect x="0.5" y="0.5" height="4" fill="none"/></g><g transform="translate(19.07 17) rotate(90)" fill="#817d7d" stroke="#707070" stroke-width="1"><rect width="1" height="5" stroke="none"/><rect x="0.5" y="0.5" height="4" fill="none"/></g></svg>