<svg xmlns="http://www.w3.org/2000/svg" width="30.684" height="30.684" viewBox="0 0 30.684 30.684"><path d="M44.662,29.32A15.342,15.342,0,1,0,55.51,33.813,15.241,15.241,0,0,0,44.662,29.32Zm0,28.247A12.923,12.923,0,0,1,31.831,46.046H34.9a1.218,1.218,0,1,0,0-2.436H31.8A12.926,12.926,0,0,1,43.61,31.8v3.1a1.218,1.218,0,0,0,2.436,0V31.831A12.927,12.927,0,0,1,57.524,43.61h-3.1a1.218,1.218,0,1,0,0,2.436h3.073A12.923,12.923,0,0,1,44.662,57.567Z" transform="translate(-29.32 -29.32)" fill="#9d9d9d"/><path d="M210.143,134.409l-4.508,4.508a3.78,3.78,0,1,0,1.723,1.723l4.508-4.508a1.218,1.218,0,0,0-1.723-1.723Zm-6.174,9.237a1.341,1.341,0,1,1,.832-2.39,1.107,1.107,0,0,0,.217.217,1.339,1.339,0,0,1-1.049,2.173Z" transform="translate(-188.627 -126.964)" fill="#9d9d9d"/></svg>