<svg xmlns="http://www.w3.org/2000/svg" width="23" height="25.073" viewBox="0 0 23 25.073">
    <g>
        <g>
            <path fill="#6c757d" d="M27.323 962.8a7.125 7.125 0 0 0-7.33 6.9v2.921h-1.63a2.477 2.477 0 0 0-2.535 2.386v10.477a2.477 2.477 0 0 0 2.535 2.386h17.931a2.477 2.477 0 0 0 2.535-2.386v-10.475a2.477 2.477 0 0 0-2.535-2.386h-1.63V969.7a7.134 7.134 0 0 0-7.341-6.9zm0 1.584a5.466 5.466 0 0 1 5.658 5.318v2.921H21.675V969.7a5.457 5.457 0 0 1 5.648-5.316zm-8.96 9.823h17.931a.809.809 0 0 1 .852.8v10.477a.809.809 0 0 1-.852.8H18.363a.809.809 0 0 1-.852-.8v-10.475a.809.809 0 0 1 .852-.8zm8.96 2.08a2.889 2.889 0 0 0-2.955 2.792 2.648 2.648 0 0 0 .778 1.792v1.683a1.727 1.727 0 0 0 1.756 1.664h.852a1.727 1.727 0 0 0 1.756-1.664v-1.683a2.657 2.657 0 0 0 .778-1.792 2.9 2.9 0 0 0-2.965-2.792zm0 1.584a1.236 1.236 0 0 1 1.283 1.208 1.16 1.16 0 0 1-.473.931.774.774 0 0 0-.3.624v1.921c0 .062-.019.079-.074.079H26.9c-.054 0-.074-.017-.074-.079v-1.921a.776.776 0 0 0-.316-.624 1.151 1.151 0 0 1-.463-.931 1.224 1.224 0 0 1 1.276-1.208z" transform="translate(-15.828 -10.438) translate(15.828 10.438) translate(-15.828 -962.8)"/>
        </g>
    </g>
</svg>
