<svg xmlns="http://www.w3.org/2000/svg" width="24.519" height="24.514" viewBox="0 0 24.519 24.514">
    <g>
        <g>
            <path fill="#6c757d" d="M35.13 968.551a.7.7 0 0 0-.416.2l-17.588 17.6a.7.7 0 0 0-.2.383l-.745 4.709a.7.7 0 0 0 .8.8l4.709-.745a.7.7 0 0 0 .383-.186l17.6-17.6a.7.7 0 0 0 0-1l-3.964-3.964a.7.7 0 0 0-.579-.197zm.077 1.686l2.979 2.979-1.237 1.238-2.979-2.979zm-2.234 2.234l2.979 2.979-13.876 13.875-2.976-2.978zm-14.74 14.981l2.738 2.738-3.253.515z" transform="rotate(-2 -430.582 470.488) translate(16.176 16.183) translate(-16.176 -968.545)"/>
        </g>
    </g>
</svg>
