<svg xmlns="http://www.w3.org/2000/svg" width="24.73" height="24.567" viewBox="0 0 24.73 24.567"><defs><style>.a{fill:#515151;}</style></defs><g transform="translate(24.73) rotate(90)"><g transform="translate(2.42 9.057)"><g transform="translate(0 0)"><path class="a" d="M1.568,14.891V2.514c0-.57.01-1.141,0-1.709V.782A.791.791,0,0,0,.786,0,.794.794,0,0,0,0,.782V13.158c0,.57-.01,1.141,0,1.709v.023a.791.791,0,0,0,.781.781.8.8,0,0,0,.781-.781Z" transform="translate(0 0)"/></g></g><g transform="translate(2.425 0)"><g transform="translate(0 0)"><path class="a" d="M1.563,4.992V.782A.791.791,0,0,0,.781,0,.794.794,0,0,0,0,.782v4.21a.791.791,0,0,0,.781.781.794.794,0,0,0,.781-.781Z" transform="translate(0 0)"/></g></g><g transform="translate(0 4.208)"><g transform="translate(0 0)"><path class="a" d="M4.848,3.206a2.733,2.733,0,0,1-.021.326c.01-.07.018-.138.029-.208a2.571,2.571,0,0,1-.164.61l.078-.188a2.375,2.375,0,0,1-.211.393c-.01.016-.063.112-.078.112.018,0,.141-.175.036-.049q-.07.086-.148.164T4.2,4.514c-.049.042-.148.091.049-.037-.034.021-.065.047-.1.068a2.469,2.469,0,0,1-.409.219l.188-.078a2.452,2.452,0,0,1-.61.164l.208-.029a2.478,2.478,0,0,1-.651,0l.208.029a2.572,2.572,0,0,1-.61-.164l.188.078a2.373,2.373,0,0,1-.393-.211c-.016-.01-.112-.063-.112-.078,0,.018.175.141.049.037q-.086-.07-.164-.148T1.9,4.2c-.042-.049-.091-.148.036.049-.021-.034-.047-.065-.068-.1a2.469,2.469,0,0,1-.219-.409l.078.188a2.453,2.453,0,0,1-.164-.61c.01.07.018.138.029.208a2.478,2.478,0,0,1,0-.651c-.01.07-.018.138-.029.208a2.571,2.571,0,0,1,.164-.61l-.078.188a2.372,2.372,0,0,1,.211-.393c.01-.016.063-.112.078-.112-.018,0-.141.175-.036.049q.07-.086.148-.164t.164-.148c.049-.042.148-.091-.049.036.034-.021.065-.047.1-.068a2.47,2.47,0,0,1,.409-.219l-.188.078a2.454,2.454,0,0,1,.61-.164l-.208.029a2.476,2.476,0,0,1,.651,0l-.208-.029a2.573,2.573,0,0,1,.61.164l-.188-.078a2.373,2.373,0,0,1,.393.211c.016.01.112.062.112.078,0-.018-.175-.141-.049-.037q.086.07.164.149a2.213,2.213,0,0,1,.148.164c.042.049.091.148-.036-.05.021.034.047.065.068.1a2.469,2.469,0,0,1,.219.409l-.078-.188a2.453,2.453,0,0,1,.164.61c-.01-.07-.018-.138-.029-.208a2.732,2.732,0,0,1,.021.326.781.781,0,0,0,1.563,0A3.178,3.178,0,0,0,5.848,1.4,3.366,3.366,0,0,0,4.251.179,3.2,3.2,0,0,0,.768,1.13,3.327,3.327,0,0,0,.008,3.024,3.189,3.189,0,0,0,1.813,6.087a3.344,3.344,0,0,0,2.068.247A3.231,3.231,0,0,0,6.411,3.2a.781.781,0,1,0-1.563,0Z" transform="translate(0 0)"/></g></g><g transform="translate(11.503 19.477)"><g transform="translate(0 0)"><path class="a" d="M1.563,4.471V.782A.791.791,0,0,0,.782,0,.794.794,0,0,0,0,.782V4.471a.791.791,0,0,0,.782.781.8.8,0,0,0,.781-.781Z" transform="translate(0 0)"/></g></g><g transform="translate(11.499 0.003)"><g transform="translate(0 0)"><path class="a" d="M1.568,15.409V2.585c0-.594.01-1.188,0-1.779V.782A.791.791,0,0,0,.786,0,.794.794,0,0,0,0,.782V13.606c0,.594-.01,1.188,0,1.779v.023a.791.791,0,0,0,.781.781.794.794,0,0,0,.782-.781Z" transform="translate(0 0)"/></g></g><g transform="translate(9.078 14.628)"><g transform="translate(0 0)"><path class="a" d="M4.848,3.206a2.73,2.73,0,0,1-.021.326c.01-.07.018-.138.029-.208a2.568,2.568,0,0,1-.164.61l.078-.188a2.378,2.378,0,0,1-.211.393c-.01.016-.063.112-.078.112.018,0,.141-.175.036-.05q-.07.086-.148.164T4.2,4.514c-.049.042-.148.091.05-.036-.034.021-.065.047-.1.068a2.466,2.466,0,0,1-.409.219l.188-.078a2.454,2.454,0,0,1-.61.164l.208-.029a2.478,2.478,0,0,1-.651,0l.208.029a2.574,2.574,0,0,1-.61-.164l.188.078a2.371,2.371,0,0,1-.393-.211c-.016-.01-.112-.063-.112-.078,0,.018.175.141.049.037q-.086-.07-.164-.149A2.186,2.186,0,0,1,1.9,4.2c-.042-.049-.091-.148.036.049-.021-.034-.047-.065-.068-.1a2.47,2.47,0,0,1-.219-.409l.078.188a2.452,2.452,0,0,1-.164-.61c.01.07.018.138.029.208a2.478,2.478,0,0,1,0-.651c-.01.07-.018.138-.029.208a2.57,2.57,0,0,1,.164-.61l-.078.188a2.373,2.373,0,0,1,.211-.393c.01-.016.063-.112.078-.112-.018,0-.141.175-.036.05a2.211,2.211,0,0,1,.148-.164q.078-.078.164-.149c.05-.042.148-.091-.05.037.034-.021.065-.047.1-.068a2.464,2.464,0,0,1,.409-.219l-.188.078a2.452,2.452,0,0,1,.61-.164l-.208.029a2.474,2.474,0,0,1,.651,0l-.208-.029a2.573,2.573,0,0,1,.61.164l-.188-.078a2.375,2.375,0,0,1,.393.211c.016.01.112.063.112.078,0-.018-.175-.141-.049-.037q.086.07.164.148t.148.164c.042.049.091.148-.036-.049.021.034.047.065.068.1a2.469,2.469,0,0,1,.219.409l-.078-.188a2.454,2.454,0,0,1,.164.61c-.01-.07-.018-.138-.029-.208a2.732,2.732,0,0,1,.021.326.781.781,0,1,0,1.563,0A3.178,3.178,0,0,0,5.848,1.4,3.366,3.366,0,0,0,4.251.179,3.2,3.2,0,0,0,.768,1.13,3.327,3.327,0,0,0,.008,3.024,3.189,3.189,0,0,0,1.813,6.087a3.344,3.344,0,0,0,2.068.247A3.231,3.231,0,0,0,6.411,3.2a.781.781,0,1,0-1.563,0Z" transform="translate(0 0)"/></g></g><g transform="translate(20.578 14.009)"><g transform="translate(0 0)"><path class="a" d="M1.566,9.939V1.913c0-.373.008-.745,0-1.115V.782A.791.791,0,0,0,.785,0,.794.794,0,0,0,0,.782V8.808C0,9.181,0,9.553,0,9.923v.016a.791.791,0,0,0,.781.782.8.8,0,0,0,.781-.782Z" transform="translate(0 0)"/></g></g><g transform="translate(20.578 0.003)"><g transform="translate(0 0)"><path class="a" d="M1.566,9.939V1.913c0-.373.008-.745,0-1.115V.782A.791.791,0,0,0,.785,0,.794.794,0,0,0,0,.782V8.808C0,9.18,0,9.553,0,9.923v.016a.791.791,0,0,0,.781.781.794.794,0,0,0,.781-.781Z" transform="translate(0 0)"/></g></g><g transform="translate(18.157 9.158)"><g transform="translate(0 0)"><path class="a" d="M4.848,3.206a2.741,2.741,0,0,1-.021.326c.01-.07.018-.138.029-.208a2.572,2.572,0,0,1-.164.61l.078-.188a2.366,2.366,0,0,1-.211.393c-.01.016-.063.112-.078.112.018,0,.141-.175.037-.05a2.185,2.185,0,0,1-.149.164q-.078.078-.164.149c-.049.042-.148.091.049-.037-.034.021-.065.047-.1.068a2.473,2.473,0,0,1-.409.219l.188-.078a2.453,2.453,0,0,1-.61.164l.208-.029a2.477,2.477,0,0,1-.651,0l.208.029a2.57,2.57,0,0,1-.609-.164l.188.078a2.377,2.377,0,0,1-.393-.211c-.016-.01-.112-.063-.112-.078,0,.018.175.141.049.036q-.086-.07-.164-.148T1.9,4.2c-.042-.05-.091-.148.037.049-.021-.034-.047-.065-.068-.1a2.468,2.468,0,0,1-.219-.409l.078.188a2.452,2.452,0,0,1-.164-.61c.01.07.018.138.029.208a2.482,2.482,0,0,1,0-.651c-.01.07-.018.138-.029.208a2.567,2.567,0,0,1,.164-.61l-.078.188a2.375,2.375,0,0,1,.211-.393c.01-.016.062-.112.078-.112-.018,0-.141.175-.037.049a2.211,2.211,0,0,1,.313-.313c.049-.042.148-.091-.05.036.034-.021.065-.047.1-.068a2.472,2.472,0,0,1,.409-.219l-.188.078a2.454,2.454,0,0,1,.61-.164l-.208.029a2.479,2.479,0,0,1,.651,0l-.208-.029a2.571,2.571,0,0,1,.609.164l-.188-.078a2.375,2.375,0,0,1,.393.211c.016.01.112.062.112.078,0-.018-.175-.141-.049-.036q.086.07.164.148t.148.164c.042.049.091.148-.037-.049.021.034.047.065.068.1a2.468,2.468,0,0,1,.219.409l-.078-.188a2.452,2.452,0,0,1,.164.61c-.01-.07-.018-.138-.029-.208a2.741,2.741,0,0,1,.021.326.782.782,0,0,0,1.563,0A3.178,3.178,0,0,0,5.848,1.4,3.366,3.366,0,0,0,4.251.179,3.2,3.2,0,0,0,.768,1.13,3.327,3.327,0,0,0,.008,3.024,3.189,3.189,0,0,0,1.813,6.087a3.344,3.344,0,0,0,2.068.247A3.231,3.231,0,0,0,6.411,3.2a.782.782,0,1,0-1.563,0Z" transform="translate(0 0)"/></g></g></g></svg>