<svg xmlns="http://www.w3.org/2000/svg" width="302.834" height="292.424" viewBox="0 0 302.834 292.424"><g transform="translate(-51.833 -102.157)"><g transform="translate(51.833 102.157)"><g transform="translate(0 172.544)"><path d="M42.694,303.3s5.947-1.955,8.8,11.772a162.339,162.339,0,0,1,3.279,21.311s.933,2.968,3.118,1.791,5.839-5.209,8.556-3.561c2.818,1.709,2.894,5.4.941,10.249s-5.839,15.647-6.186,16.624c-.341.959-.175,2.555,1.442,1.993s11.831-7.147,14.666-2.113-4.827,17.664-5.637,19.06-.692,2.12-.079,2.688,3.838-1.968,6.82-3.722,6.747-3.264,8.139-.223-.754,13.5-15.1,27.527l-7.071,6.063L55.506,409.8c-18.607-7.5-24.58-16.346-24.454-19.689s4.183-3.382,7.608-2.9,7.374,1.6,7.724.839.184-1.474-1.1-2.456-13.181-9.735-12.481-15.469,12.653-3.544,14.362-3.64,1.255-1.635.573-2.392-8.4-9.265-12.059-13.008-4.993-7.18-3.039-9.834c1.884-2.56,6.8-.226,9.267.029s2.2-2.845,2.2-2.845a162.207,162.207,0,0,1-5.1-20.951c-2.6-13.776,3.8-14.218,3.8-14.218" transform="translate(-31.05 -303.204)" fill="#f5f5f5"/><g transform="translate(14.217 12.385)"><path d="M71.738,417.168c-1.946-10.11-4.756-24.055-7.909-39.448s-6-29.323-8-39.421c-1-5.04-1.8-9.123-2.362-11.962l-.646-3.252c-.075-.36-.133-.641-.176-.844s-.071-.285-.071-.285.008.1.039.291.083.487.145.85l.587,3.264c.513,2.833,1.287,6.927,2.262,11.981,1.947,10.111,4.756,24.054,7.909,39.442s6,29.33,8,39.429" transform="translate(-52.575 -321.955)" fill="#e0e0e0"/></g><g transform="translate(22.106 37.255)"><path d="M72.924,359.61a2.725,2.725,0,0,0-.4.545c-.24.361-.571.892-.974,1.553-.8,1.324-1.86,3.183-2.99,5.255-1.1,2.043-2.1,3.889-2.869,5.318l-.876,1.607a2.756,2.756,0,0,0-.3.606,2.7,2.7,0,0,0,.4-.542c.239-.362.571-.894.966-1.559.789-1.333,1.823-3.2,2.952-5.276l2.905-5.294.885-1.6A2.749,2.749,0,0,0,72.924,359.61Z" transform="translate(-64.519 -359.609)" fill="#e0e0e0"/></g><g transform="translate(4.399 41.827)"><path d="M54.551,376.777c.046-.075-3.687-2.429-8.337-5.258s-8.458-5.061-8.5-4.986,3.686,2.43,8.337,5.259S54.505,376.853,54.551,376.777Z" transform="translate(-37.71 -366.531)" fill="#e0e0e0"/></g><g transform="translate(10.515 70.265)"><path d="M63.6,414.813a2.849,2.849,0,0,0-.653-.217l-1.8-.491c-1.522-.415-3.623-1-5.917-1.719s-4.353-1.439-5.839-1.972l-1.761-.628a2.845,2.845,0,0,0-.66-.2,2.865,2.865,0,0,0,.614.311c.4.181.992.431,1.727.723,1.468.588,3.518,1.345,5.823,2.065s4.418,1.273,5.957,1.633c.771.177,1.4.312,1.831.393A2.877,2.877,0,0,0,63.6,414.813Z" transform="translate(-46.97 -409.587)" fill="#e0e0e0"/></g><g transform="translate(27.045 63.933)"><path d="M83.436,400a2.457,2.457,0,0,0-.493.4c-.3.274-.734.678-1.262,1.182-1.055,1.008-2.5,2.416-4.077,3.985s-3,3-4.011,4.052c-.507.524-.914.953-1.19,1.254a2.473,2.473,0,0,0-.406.491,2.4,2.4,0,0,0,.493-.4c.3-.274.734-.678,1.262-1.182,1.055-1.008,2.5-2.416,4.077-3.985s3-3,4.011-4.051c.507-.524.914-.953,1.19-1.254A2.482,2.482,0,0,0,83.436,400Z" transform="translate(-71.996 -399.999)" fill="#e0e0e0"/></g><g transform="translate(31.528 83.943)"><path d="M93.583,430.3a4.036,4.036,0,0,0-.625.522l-1.622,1.51c-1.359,1.285-3.221,3.075-5.264,5.067s-3.881,3.808-5.2,5.135l-1.55,1.582a3.973,3.973,0,0,0-.538.612,3.993,3.993,0,0,0,.625-.522l1.621-1.509c1.359-1.285,3.221-3.076,5.265-5.068s3.88-3.808,5.2-5.134l1.55-1.583A3.975,3.975,0,0,0,93.583,430.3Z" transform="translate(-78.784 -430.296)" fill="#e0e0e0"/></g><g transform="translate(10.864 90.725)"><path d="M68.419,447.766a4.589,4.589,0,0,0-.821-.295l-2.265-.7c-1.911-.6-4.549-1.425-7.436-2.421s-5.481-1.958-7.353-2.668l-2.218-.839a4.54,4.54,0,0,0-.828-.273,4.493,4.493,0,0,0,.781.388c.511.231,1.256.553,2.183.934,1.853.765,4.437,1.765,7.331,2.76s5.545,1.8,7.476,2.335c.966.268,1.75.476,2.3.607A4.587,4.587,0,0,0,68.419,447.766Z" transform="translate(-47.499 -440.564)" fill="#e0e0e0"/></g></g><g transform="translate(217.266 14.319)"><g transform="translate(3.109 0.001)"><rect width="61.839" height="89.634" fill="#e0e0e0"/></g><g transform="translate(0.011 0.001)"><rect width="61.839" height="89.634" fill="#f5f5f5"/></g><g transform="translate(7.526 9.541)"><g transform="translate(0.168 0.168)"><rect width="46.473" height="70.218" fill="#fff"/></g><path d="M418.033,148.478s-.006-.119-.009-.343-.005-.563-.009-1c0-.882-.011-2.174-.018-3.851-.009-3.366-.024-8.27-.042-14.465-.018-12.382-.045-29.916-.076-50.563l.155.155-46.468.014h-.005l.168-.168c-.013,26.49-.025,50.913-.034,70.218l-.134-.134,33.826.071,9.346.034,2.453.015c.555.005.848.015.848.015s-.273.01-.82.015l-2.428.015-9.316.034-33.91.071h-.134v-.134c-.009-19.305-.021-43.728-.034-70.218v-.168h.174l46.468.014h.155v.154c-.031,20.689-.057,38.258-.076,50.664-.018,6.18-.032,11.072-.042,14.43-.009,1.664-.015,2.945-.019,3.82,0,.426-.007.751-.009.979S418.033,148.478,418.033,148.478Z" transform="translate(-371.391 -78.092)" fill="#e0e0e0"/></g><g transform="translate(52.013 10.178)"><path d="M438.746,79.056" transform="translate(-438.746 -79.056)" fill="none" stroke="#fbfbfb" stroke-miterlimit="10" stroke-width="0.25"/></g><g transform="translate(53.602 0)"><path d="M449.574,63.647a10.678,10.678,0,0,1-1.1,1.6c-.718.96-1.738,2.267-2.9,3.68s-2.251,2.664-3.056,3.553a10.736,10.736,0,0,1-1.361,1.388,11.5,11.5,0,0,1,1.18-1.544l2.977-3.612,2.975-3.614A11.616,11.616,0,0,1,449.574,63.647Z" transform="translate(-441.151 -63.646)" fill="#e0e0e0"/></g><g transform="translate(54.402 79.7)"><g transform="translate(0.003 0.001)"><path d="M442.366,184.316a57.607,57.607,0,0,0,8.106,10.137" transform="translate(-442.366 -184.316)" fill="#fff"/></g><path d="M450.47,194.453a9.238,9.238,0,0,1-1.413-1.286,45.354,45.354,0,0,1-5.75-7.19,9.327,9.327,0,0,1-.943-1.661,12.728,12.728,0,0,1,1.141,1.528c.682.957,1.639,2.266,2.757,3.665s2.185,2.62,2.969,3.5A12.779,12.779,0,0,1,450.47,194.453Z" transform="translate(-442.362 -184.315)" fill="#e0e0e0"/></g><g transform="translate(0 79.569)"><g transform="translate(0.002 0.001)"><path d="M360,194.112l8.1-9.994" transform="translate(-360 -184.118)" fill="#fff"/></g><path d="M368.1,184.117a61.61,61.61,0,0,1-3.919,5.1A61.8,61.8,0,0,1,360,194.111a61.608,61.608,0,0,1,3.919-5.1A61.53,61.53,0,0,1,368.1,184.117Z" transform="translate(-359.997 -184.116)" fill="#e0e0e0"/></g><g transform="translate(0.009)"><path d="M360.013,63.647a56.049,56.049,0,0,1,3.931,4.7,55.773,55.773,0,0,1,3.668,4.909,55.916,55.916,0,0,1-3.931-4.7A55.838,55.838,0,0,1,360.013,63.647Z" transform="translate(-360.01 -63.646)" fill="#e0e0e0"/></g><g transform="translate(24.127 23.966)"><rect width="15.561" height="44.182" fill="#e0e0e0"/></g></g><g transform="translate(14.264)"><g transform="translate(0.336)"><path d="M126.645,41.967V91.355H55.711L53.155,42.313Z" transform="translate(-53.155 -41.967)" fill="#e0e0e0"/></g><g transform="translate(0 0.009)"><g transform="translate(0.336 0.336)"><g transform="translate(0)"><rect width="48.939" height="70.935" transform="translate(0 48.939) rotate(-90)" fill="#fff"/></g></g><path d="M124.253,91.592H52.646V41.981h71.607Zm-70.934-.673h70.262V42.654H53.319Z" transform="translate(-52.646 -41.981)" fill="#e0e0e0"/></g><g transform="translate(7.843 6.265)"><g transform="translate(0.176 0.161)"><rect width="55.569" height="36.778" fill="#fff"/></g><path d="M120.266,51.613s-.1.007-.274.009l-.79.01-3.052.019L104.7,51.7l-40,.079.16-.16c0,11.237.009,23.687.015,36.773v0l-.175-.175,55.569.036-.139.139c.03-11.192.055-20.369.073-26.759.015-3.194.027-5.689.036-7.4q.01-1.267.015-1.944c.005-.441.015-.675.015-.675s.01.214.015.645.009,1.085.016,1.919c.008,1.7.02,4.188.035,7.368.018,6.411.043,15.618.073,26.846v.139h-.14L64.7,88.566h-.176v-.18c.005-13.086.011-25.537.015-36.773v-.161H64.7l40.107.079,11.415.044,3.02.019.772.01C120.183,51.607,120.266,51.613,120.266,51.613Z" transform="translate(-64.521 -51.452)" fill="#e0e0e0"/></g><g transform="translate(0.335 0.205)"><path d="M53.154,42.28a6.019,6.019,0,0,1,1.219.79c.726.524,1.714,1.267,2.781,2.121s2.005,1.662,2.666,2.267a5.772,5.772,0,0,1,1.016,1.04c-.066.075-1.771-1.332-3.9-3.033A38.808,38.808,0,0,1,53.154,42.28Z" transform="translate(-53.153 -42.277)" fill="#e0e0e0"/></g><g transform="translate(63.586 0.342)"><g transform="translate(0)"><path d="M156.6,42.488a34.434,34.434,0,0,1-3.732,3.178,34.446,34.446,0,0,1-3.95,2.9,34.441,34.441,0,0,1,3.732-3.178A34.476,34.476,0,0,1,156.6,42.488Z" transform="translate(-148.918 -42.485)" fill="#e0e0e0"/></g></g><g transform="translate(63.304 42.878)"><g transform="translate(0.002 0.003)"><path d="M156.4,113.3l-7.909-6.41" transform="translate(-148.492 -106.89)" fill="#fff"/></g><path d="M148.491,106.888a37.083,37.083,0,0,1,4.065,3.069A37.225,37.225,0,0,1,156.4,113.3a37.1,37.1,0,0,1-4.065-3.069A37.16,37.16,0,0,1,148.491,106.888Z" transform="translate(-148.49 -106.886)" fill="#e0e0e0"/></g><g transform="translate(0.335 43.267)"><path d="M53.154,113.492a33.643,33.643,0,0,1,3.693-3.145,33.616,33.616,0,0,1,3.911-2.87,33.652,33.652,0,0,1-3.693,3.145A33.711,33.711,0,0,1,53.154,113.492Z" transform="translate(-53.153 -107.474)" fill="#e0e0e0"/></g><g transform="translate(19.302 17.884)"><g transform="translate(0 0)"><rect width="12.315" height="34.965" transform="translate(0 12.315) rotate(-90)" fill="#e0e0e0"/></g></g></g><g transform="translate(212.026 120.997)"><path d="M394.1,268.148a24.925,24.925,0,1,1,.9-35.2A24.9,24.9,0,0,1,394.1,268.148Z" transform="translate(-352.064 -225.16)" fill="#ebebeb"/><g transform="translate(5.924 5.924)"><path d="M393.069,266.888a18.994,18.994,0,1,1,.688-26.822A18.972,18.972,0,0,1,393.069,266.888Z" transform="translate(-361.033 -234.13)" fill="#f5f5f5"/></g><g transform="translate(11.4 5.3)"><path d="M396.314,266.155c-.083-.081.467-.713,1.312-1.935a20.172,20.172,0,0,0,2.718-5.6,19.426,19.426,0,0,0,.775-4.2,19.037,19.037,0,0,0-.3-4.87,18.662,18.662,0,0,0-1.762-5.077,18.469,18.469,0,0,0-1.5-2.417,20.2,20.2,0,0,0-1.913-2.222,20.415,20.415,0,0,0-2.239-1.893,18.531,18.531,0,0,0-2.431-1.48,18.646,18.646,0,0,0-5.092-1.715,19,19,0,0,0-4.873-.25,19.483,19.483,0,0,0-4.192.814,20.165,20.165,0,0,0-5.567,2.771c-1.214.857-1.841,1.412-1.923,1.33-.061-.059.43-.752,1.572-1.775a17.559,17.559,0,0,1,5.584-3.3,19.209,19.209,0,0,1,4.407-1.042,19.43,19.43,0,0,1,5.215.129,18.354,18.354,0,0,1,2.758.655,18.556,18.556,0,0,1,2.748,1.108,19.251,19.251,0,0,1,2.635,1.578,19.453,19.453,0,0,1,4.478,4.438,19.3,19.3,0,0,1,1.6,2.621,19.319,19.319,0,0,1,1.813,5.489,19.024,19.024,0,0,1-.822,9.631,17.582,17.582,0,0,1-3.246,5.617C397.062,265.718,396.373,266.215,396.314,266.155Z" transform="translate(-369.324 -233.185)" fill="#e0e0e0"/></g><g transform="translate(12.579 15.055)"><path d="M376.68,267.149l-2.368,2.311-2.062-2.115,2.3-2.248a14,14,0,0,1-3.444-6.915l3.714-1.355a11.942,11.942,0,0,0,2.5,5.567l3.532-3.446c-1.72-2.9-3.5-6.289-.471-9.239,2.241-2.186,5.754-2.435,9.393.534l2.347-2.291,2.063,2.115-2.306,2.248a13.356,13.356,0,0,1,2.9,5.55l-3.632,1.481a12.108,12.108,0,0,0-2.057-4.308l-3.594,3.508c1.74,2.882,3.474,6.226.493,9.135C383.791,269.828,380.32,270.077,376.68,267.149Zm7.284-11.232,3-2.929c-1.347-.873-2.393-.719-3.091-.038C383.135,253.672,383.351,254.7,383.964,255.917Zm-1.548,8.61c.74-.723.544-1.727-.026-2.947l-2.918,2.847C380.735,265.257,381.739,265.186,382.415,264.526Z" transform="translate(-371.109 -247.954)" fill="#e0e0e0"/></g></g><g transform="translate(105.524 175.982)"><path d="M241.712,325.963a26.169,26.169,0,1,1-33.274-16.1A26.14,26.14,0,0,1,241.712,325.963Z" transform="translate(-190.816 -308.408)" fill="#ebebeb"/><g transform="translate(6.227 6.216)"><path d="M239.029,331.2a19.942,19.942,0,1,1-25.356-12.271A19.919,19.919,0,0,1,239.029,331.2Z" transform="translate(-200.244 -317.819)" fill="#f5f5f5"/></g><g transform="translate(5.739 5.473)"><path d="M238.57,330.226a11.754,11.754,0,0,1-1.283-2.093,21.139,21.139,0,0,0-4.174-5.022,20.433,20.433,0,0,0-3.681-2.56,20.017,20.017,0,0,0-4.787-1.826,19.6,19.6,0,0,0-5.618-.513,19.4,19.4,0,0,0-2.962.39,19.486,19.486,0,0,0-5.733,2.189,19.411,19.411,0,0,0-2.468,1.684,19.518,19.518,0,0,0-3.845,4.129,19.926,19.926,0,0,0-2.349,4.552,20.443,20.443,0,0,0-1.037,4.362,21.168,21.168,0,0,0,.239,6.525,11.67,11.67,0,0,1,.44,2.415,5.87,5.87,0,0,1-1.017-2.272,18.443,18.443,0,0,1-.737-6.77,19.978,19.978,0,0,1,3.295-9.6,19.279,19.279,0,0,1,1.82-2.355,19.58,19.58,0,0,1,2.249-2.149,20.346,20.346,0,0,1,2.651-1.837,20.45,20.45,0,0,1,6.184-2.361,20.358,20.358,0,0,1,3.2-.4,20.36,20.36,0,0,1,6.035.643,19.978,19.978,0,0,1,8.856,4.956,18.473,18.473,0,0,1,3.967,5.537A5.859,5.859,0,0,1,238.57,330.226Z" transform="translate(-199.505 -316.695)" fill="#e0e0e0"/></g><g transform="translate(16.736 12.48)"><path d="M231.614,351.446l1.185,3.266-2.916,1.057-1.153-3.178a14.7,14.7,0,0,1-8.106.3l.312-4.139a12.539,12.539,0,0,0,6.408.018l-1.767-4.87c-3.522.388-7.528.62-9.04-3.549-1.121-3.091.162-6.558,4.578-8.753l-1.174-3.237,2.916-1.057,1.153,3.179a14.031,14.031,0,0,1,6.563-.369l-.157,4.115a12.72,12.72,0,0,0-5.011.1l1.8,4.958c3.511-.417,7.46-.627,8.95,3.483C237.254,345.8,235.99,349.232,231.614,351.446Zm-7.59-11.83-1.5-4.139c-1.417.91-1.723,1.978-1.374,2.94C221.517,339.437,222.593,339.674,224.024,339.616Zm7.564,5.209c-.371-1.021-1.417-1.267-2.83-1.252l1.46,4.024C231.56,346.748,231.926,345.757,231.588,344.824Z" transform="translate(-216.155 -327.304)" fill="#e0e0e0"/></g></g><g transform="translate(13.084 107.274)"><path d="M94.785,226.022A21.964,21.964,0,1,1,72.55,204.385,21.94,21.94,0,0,1,94.785,226.022Z" transform="translate(-50.859 -204.383)" fill="#ebebeb"/><g transform="translate(5.226 5.214)"><path d="M92.245,228.767A16.738,16.738,0,1,1,75.3,212.278,16.719,16.719,0,0,1,92.245,228.767Z" transform="translate(-58.771 -212.277)" fill="#f5f5f5"/></g><g transform="translate(5.035 4.578)"><path d="M92.137,227.916a9.947,9.947,0,0,1-.468-2.007,17.751,17.751,0,0,0-1.995-5.106,17.129,17.129,0,0,0-2.254-3.014,16.751,16.751,0,0,0-3.328-2.722,16.416,16.416,0,0,0-4.339-1.9,16.176,16.176,0,0,0-2.462-.474,16.364,16.364,0,0,0-5.146.225,16.412,16.412,0,0,0-2.412.688,16.4,16.4,0,0,0-4.156,2.27,16.763,16.763,0,0,0-3.077,3,17.146,17.146,0,0,0-1.981,3.2,17.771,17.771,0,0,0-1.538,5.26,9.829,9.829,0,0,1-.289,2.04,4.922,4.922,0,0,1-.209-2.079,15.5,15.5,0,0,1,1.206-5.587,16.781,16.781,0,0,1,5.166-6.771,17.061,17.061,0,0,1,4.434-2.509,17.042,17.042,0,0,1,2.6-.762,17.127,17.127,0,0,1,5.55-.243,17.058,17.058,0,0,1,2.655.531,17.073,17.073,0,0,1,4.637,2.11,16.769,16.769,0,0,1,5.74,6.292,15.511,15.511,0,0,1,1.693,5.46A4.914,4.914,0,0,1,92.137,227.916Z" transform="translate(-58.483 -211.314)" fill="#e0e0e0"/></g><g transform="translate(14.846 10.325)"><path d="M82.472,241.563l.079,2.915-2.6.07-.076-2.836a12.334,12.334,0,0,1-6.536-1.907l1.345-3.213a10.524,10.524,0,0,0,5.1,1.712l-.118-4.347c-2.907-.624-6.16-1.5-6.26-5.221-.074-2.758,1.866-5.18,5.964-5.759l-.077-2.889,2.6-.071.076,2.837a11.763,11.763,0,0,1,5.325,1.444l-1.214,3.236a10.682,10.682,0,0,0-4.018-1.247l.12,4.425c2.906.6,6.107,1.476,6.206,5.145C88.459,238.563,86.544,240.958,82.472,241.563Zm-2.911-11.432-.1-3.695c-1.371.349-1.9,1.119-1.874,1.978C77.612,229.324,78.406,229.8,79.561,230.131Zm4.645,6.152c-.024-.911-.793-1.385-1.922-1.746l.1,3.591C83.674,237.807,84.228,237.115,84.205,236.283Z" transform="translate(-73.337 -220.016)" fill="#e0e0e0"/></g></g><g transform="translate(139.356 5.566)"><path d="M263.708,79.113a19.31,19.31,0,0,0-16.6-28.718,18.84,18.84,0,0,0-5.067.695,19.332,19.332,0,0,1,0,37.154A18.849,18.849,0,0,0,257.2,86.011l8.96,3.464Z" transform="translate(-242.039 -50.395)" fill="#ebebeb"/></g></g><g transform="translate(56.176 384.085)"><g transform="translate(0)"><path d="M318.168,468.987c0,.1-62.807.172-140.264.172-77.485,0-140.278-.077-140.278-.172s62.793-.172,140.278-.172C255.361,468.815,318.168,468.892,318.168,468.987Z" transform="translate(-37.626 -468.815)" fill="#263238"/></g></g><g transform="translate(119.793 363.05)"><path d="M145.927,436.966l.539,16.437,4.176,12.878a1.685,1.685,0,0,1-1.193,2.154h0a1.675,1.675,0,0,1-1.5-.351c-2.64-2.264-12.31-10.639-12.282-11.845.032-1.4-1.72-17.3-1.72-17.3Z" transform="translate(-133.944 -436.966)" fill="#1f28cf"/></g><g transform="translate(121.451 381.215)"><path d="M150.3,477.773l-13.845-13.3.038.7a2.537,2.537,0,0,0,.692,1.609c1.111,1.167,4.249,4.323,11.563,10.651a1.685,1.685,0,0,0,1.552.348Z" transform="translate(-136.455 -464.469)" fill="#e0e0e0"/></g><g transform="translate(123.082 375.596)"><path d="M140.368,456.1a1.019,1.019,0,0,1,.353,1.314.98.98,0,0,1-1.3.361,1.076,1.076,0,0,1-.367-1.394,1.017,1.017,0,0,1,1.393-.226" transform="translate(-138.924 -455.962)" fill="#fff"/></g><g transform="translate(131.124 385.531)"><path d="M151.119,473.026c.1.04.417-.84,1.369-1.357a5.127,5.127,0,0,1,1.871-.467c.012-.041-.2-.157-.59-.19a2.69,2.69,0,0,0-2.505,1.411C151.09,472.771,151.077,473.015,151.119,473.026Z" transform="translate(-151.099 -471.004)" fill="#72858e"/></g><g transform="translate(132.424 388.398)"><path d="M153.079,476.633c.083.067.579-.5,1.415-.787a13.737,13.737,0,0,1,1.592-.3,1.867,1.867,0,0,0-1.715-.044C153.421,475.843,152.991,476.594,153.079,476.633Z" transform="translate(-153.068 -475.344)" fill="#72858e"/></g><g transform="translate(128.803 382.704)"><path d="M147.592,468.876a16.786,16.786,0,0,1,2.1-1.362,16.835,16.835,0,0,1,2.4-.7,4.605,4.605,0,0,0-4.506,2.066Z" transform="translate(-147.585 -466.724)" fill="#72858e"/></g><g transform="translate(128.225 379.047)"><path d="M146.713,462.013c.05.1.936-.334,2.114-.443,1.177-.124,2.129.124,2.159.019a4.183,4.183,0,0,0-4.273.423Z" transform="translate(-146.71 -461.187)" fill="#72858e"/></g><g transform="translate(127.945 374.172)"><path d="M146.289,454.685a5.355,5.355,0,0,1,4.4-.093c.025-.036-.166-.232-.557-.429a3.669,3.669,0,0,0-3.3.07C146.445,454.447,146.262,454.651,146.289,454.685Z" transform="translate(-146.286 -453.805)" fill="#263238"/></g><g transform="translate(127.613 370.484)"><path d="M148.226,451.356a1.431,1.431,0,0,0-.013-.623,4.323,4.323,0,0,0-.584-1.6,1.921,1.921,0,0,0-.872-.868.678.678,0,0,0-.754.193,1.108,1.108,0,0,0-.219.756,2.382,2.382,0,0,0,2.207,2.084,2.763,2.763,0,0,0,2.629-1.594.957.957,0,0,0,0-.8.663.663,0,0,0-.713-.312,2.357,2.357,0,0,0-1.051.622,4.839,4.839,0,0,0-1.05,1.338,1.484,1.484,0,0,0-.221.582,7.667,7.667,0,0,1,1.437-1.726,2.2,2.2,0,0,1,.929-.52.354.354,0,0,1,.39.168.659.659,0,0,1-.032.525,2.465,2.465,0,0,1-2.3,1.356,2.069,2.069,0,0,1-1.9-1.742.8.8,0,0,1,.13-.534.367.367,0,0,1,.415-.112,1.735,1.735,0,0,1,.752.721A6.381,6.381,0,0,1,148.226,451.356Z" transform="translate(-145.785 -448.223)" fill="#263238"/></g><g transform="translate(151.304 365.062)"><path d="M194.123,440.441l-.851,12.291s12.207,4.993,12.271,7.28l-23.891-.795.541-19.206Z" transform="translate(-181.652 -440.012)" fill="#1f28cf"/></g><g transform="translate(154.844 376.467)"><path d="M187.739,457.314a.976.976,0,0,0-.711,1.09.939.939,0,0,0,1.075.715,1.03,1.03,0,0,0,.748-1.159.974.974,0,0,0-1.2-.62" transform="translate(-187.012 -457.28)" fill="#e0e0e0"/></g><g transform="translate(151.304 382.333)"><path d="M181.652,468.1l.13-1.934,22.858,1.485s1.048.5.9,1.243Z" transform="translate(-181.652 -466.162)" fill="#e0e0e0"/></g><g transform="translate(161.094 377.552)"><path d="M198.7,459.045c-.008.116-.593.15-1.179.506-.6.341-.909.836-1.015.786-.107-.026.09-.717.808-1.136S198.725,458.938,198.7,459.045Z" transform="translate(-196.475 -458.924)" fill="#263238"/></g><g transform="translate(164.15 378.741)"><path d="M202.738,460.775c.022.114-.489.3-.9.776s-.545,1-.66.989c-.11.015-.168-.672.356-1.259S202.739,460.665,202.738,460.775Z" transform="translate(-201.102 -460.724)" fill="#263238"/></g><g transform="translate(166.983 379.856)"><path d="M205.517,464.394c-.107.022-.25-.567.071-1.2s.874-.865.921-.766c.063.1-.3.429-.558.949S205.634,464.387,205.517,464.394Z" transform="translate(-205.391 -462.411)" fill="#263238"/></g><g transform="translate(160.71 374.393)"><path d="M198.381,454.6c-.052.105-.582-.074-1.243-.051s-1.182.213-1.239.112.45-.5,1.229-.518S198.442,454.508,198.381,454.6Z" transform="translate(-195.894 -454.14)" fill="#263238"/></g><g transform="translate(159.737 370.343)"><path d="M198.007,450.033a2.246,2.246,0,0,1-1.2-.046,5.374,5.374,0,0,1-1.239-.427,5.6,5.6,0,0,1-.675-.387,1.483,1.483,0,0,1-.352-.294.51.51,0,0,1-.033-.622.641.641,0,0,1,.52-.25,1.563,1.563,0,0,1,.446.077,4.384,4.384,0,0,1,.736.28,4.258,4.258,0,0,1,1.079.761c.537.532.711.974.671,1-.054.037-.312-.337-.862-.78a4.791,4.791,0,0,0-1.047-.637,4.445,4.445,0,0,0-.68-.234c-.25-.075-.466-.084-.534.026-.025.042-.029.059.022.135a1.171,1.171,0,0,0,.259.214,6.224,6.224,0,0,0,.62.382,6.664,6.664,0,0,0,1.142.482A8.382,8.382,0,0,1,198.007,450.033Z" transform="translate(-194.42 -448.008)" fill="#263238"/></g><g transform="translate(162.889 368.764)"><path d="M199.47,449.384a1.907,1.907,0,0,1-.277-1.166,3.87,3.87,0,0,1,.536-2.02.99.99,0,0,1,.783-.579.559.559,0,0,1,.489.351,1.637,1.637,0,0,1,.108.443,2.651,2.651,0,0,1-.026.806,2.753,2.753,0,0,1-.552,1.219c-.488.6-.98.727-.988.687-.036-.06.378-.271.754-.855a2.753,2.753,0,0,0,.416-1.112,2.477,2.477,0,0,0,0-.692c-.029-.255-.118-.463-.213-.441-.119-.006-.327.179-.432.378a4.02,4.02,0,0,0-.318.639,4.317,4.317,0,0,0-.271,1.186C199.424,448.927,199.534,449.368,199.47,449.384Z" transform="translate(-199.192 -445.618)" fill="#263238"/></g><g transform="translate(114.657 239.468)"><g transform="translate(0 0.225)"><path d="M126.169,254.7,129.7,386.832l18.846-.566L153.04,250.2Z" transform="translate(-126.169 -250.2)" fill="#263238"/></g><g transform="translate(19.675)"><path d="M175.455,249.86s13.992,56.012,14.421,65.563-2.995,69.245-2.995,69.245H168.431l1.54-67.978-14.014-57.528,3.392-9.008Z" transform="translate(-155.957 -249.86)" fill="#263238"/></g><g transform="translate(24.101 6.878)"><path d="M166.343,260.274a.7.7,0,0,1,.008.18l-.011.524c-.018.486-.043,1.159-.075,2.013-.081,1.774-.2,4.3-.34,7.4-.321,6.269-.762,14.886-1.249,24.4-.526,9.52-1,18.135-1.35,24.4-.188,3.1-.341,5.621-.448,7.394-.059.853-.106,1.524-.139,2.01-.018.213-.033.385-.045.522a.09.09,0,1,1-.035,0c0-.138.006-.31.011-.524.018-.486.043-1.159.075-2.012.081-1.774.2-4.294.339-7.4l1.25-24.41c.526-9.518,1-18.133,1.349-24.4.188-3.1.341-5.621.448-7.394.059-.852.106-1.524.139-2.009.018-.213.033-.384.045-.522A.737.737,0,0,1,166.343,260.274Z" transform="translate(-162.659 -260.274)" fill="#455a64"/></g></g><g transform="translate(118.37 165.917)"><path d="M153.794,140.23s6.846,33.975,6.945,43.548,3.461,28.275,3.461,28.275H134.542l-.64-51.761-2.112-15.439,4.454-6.351Z" transform="translate(-131.79 -138.502)" fill="#f5f5f5"/></g><g transform="translate(140.731 168.646)"><path d="M165.646,142.634s7.075,2.077,8.946,4.694c1.476,2.065,3.466,41.145,3.466,41.145l3.036,34.421-2.969-.278-4.189-12.884Z" transform="translate(-165.646 -142.634)" fill="#7ba9d8"/></g><g transform="translate(149.678 173.34)"><path d="M179.19,149.741l19.975,18.328,24.577-7.962,4.9,10.318-26.224,11.9c-3.748,1.6-6.1.719-8.7-1.365l-13.758-11.019Z" transform="translate(-179.19 -149.741)" fill="#7ba9d8"/></g><g transform="translate(188.623 185.806)"><g transform="translate(0 0.886)"><g transform="translate(0.017 0.016)"><path d="M239.194,170.266a.539.539,0,1,1-.729-.221A.538.538,0,0,1,239.194,170.266Z" transform="translate(-238.18 -169.981)" fill="#263238"/></g><path d="M238.71,171.068a.565.565,0,0,1-.161-.024.548.548,0,1,1,.161.024Zm0-1.079a.521.521,0,0,0-.5.371.515.515,0,0,0,.039.4.522.522,0,1,0,.46-.769Z" transform="translate(-238.154 -169.957)" fill="#263238"/></g><g transform="translate(2.061 0.396)"><g transform="translate(0.016 0.016)"><path d="M242.313,169.525a.539.539,0,1,1-.729-.222A.539.539,0,0,1,242.313,169.525Z" transform="translate(-241.299 -169.24)" fill="#263238"/></g><path d="M241.83,170.326a.568.568,0,0,1-.162-.024.551.551,0,0,1-.328-.269.556.556,0,1,1,.751.228A.55.55,0,0,1,241.83,170.326Zm0-1.078a.523.523,0,0,0-.151,1.022.523.523,0,1,0,.151-1.022Z" transform="translate(-241.275 -169.215)" fill="#263238"/></g><g transform="translate(4.021)"><g transform="translate(0.017 0.017)"><path d="M245.283,168.926a.539.539,0,1,1-.729-.221A.54.54,0,0,1,245.283,168.926Z" transform="translate(-244.268 -168.641)" fill="#263238"/></g><path d="M244.8,169.727a.572.572,0,0,1-.162-.024.556.556,0,1,1,.651-.794h0a.555.555,0,0,1-.489.818Zm0-1.078a.523.523,0,1,0,.462.276h0A.523.523,0,0,0,244.8,168.649Z" transform="translate(-244.243 -168.615)" fill="#263238"/></g></g><g transform="translate(194.474 183.524)"><path d="M247.014,165.855l1.9-.7,4.364,9.2-1.858.791Z" transform="translate(-247.014 -165.159)" fill="#e0e0e0"/></g><g transform="translate(150.293 180.583)"><path d="M180.146,160.706a6.13,6.13,0,0,1,.114,1.028l.287,2.8c.274,2.422.64,5.656,1.045,9.231.4,3.608.718,6.881.867,9.257.079,1.188.113,2.151.121,2.818a5.97,5.97,0,0,1-.034,1.035,5.977,5.977,0,0,1-.1-1.03c-.049-.662-.12-1.621-.23-2.8-.211-2.367-.567-5.631-.966-9.238s-.75-6.874-.946-9.246c-.1-1.186-.154-2.149-.178-2.814A5.815,5.815,0,0,1,180.146,160.706Z" transform="translate(-180.122 -160.706)" fill="#263238"/></g><g transform="translate(151.838 185.168)"><path d="M185.3,167.649a37.646,37.646,0,0,1-1.251,4.925,37.686,37.686,0,0,1-1.582,4.83,37.644,37.644,0,0,1,1.252-4.925A37.639,37.639,0,0,1,185.3,167.649Z" transform="translate(-182.461 -167.649)" fill="#263238"/></g><g transform="translate(168.689 191.531)"><path d="M208.726,183.61a2.053,2.053,0,0,1-.442-.874,6.31,6.31,0,0,1,.291-4.641c.267-.547.514-.834.548-.812a8.727,8.727,0,0,0-.4,6.327Z" transform="translate(-207.974 -177.282)" fill="#263238"/></g><g transform="translate(166.229 219.09)"><path d="M205.176,219.008l2.557.2-1.016,10.665-2.467-.281Z" transform="translate(-204.25 -219.008)" fill="#e0e0e0"/></g><g transform="translate(105.246 166.657)"><path d="M129.5,139.622l-13.782,8.787a8.953,8.953,0,0,0-3.341,10.152l10.572,33.219-3.812,30.184,30.206-1.282-.734-13.232-2.566-23.669a47.065,47.065,0,0,0-3.243-12.777Z" transform="translate(-111.919 -139.622)" fill="#7ba9d8"/></g><g transform="translate(107.463 175.126)"><path d="M116.241,164.736l13.787,28.848a8.536,8.536,0,0,0,5.735,4.626l38.255,9.062.975-11.137-29.2-10.983L131.1,156.958a8.386,8.386,0,0,0-11.768-3.306h0A8.386,8.386,0,0,0,116.241,164.736Z" transform="translate(-115.276 -152.445)" fill="#7ba9d8"/></g><g transform="translate(111.106 175.695)"><path d="M176.866,196.427a.61.61,0,0,1-.157-.042l-.452-.153-1.731-.62-6.405-2.357-21.59-8.069-.061-.023-.031-.061-2.54-5.036c-2.4-4.666-4.781-9.057-7.012-13.016-1.115-1.979-2.192-3.851-3.208-5.6L132.2,158.93c-.234-.408-.474-.8-.725-1.164a9.82,9.82,0,0,0-4.454-3.708,8.341,8.341,0,0,0-3.39-.6,6.058,6.058,0,0,0-2.836.758.843.843,0,0,1,.16-.114,2.727,2.727,0,0,1,.508-.277,5.926,5.926,0,0,1,2.162-.5,8.358,8.358,0,0,1,3.466.559,9.315,9.315,0,0,1,3.787,2.686,9.2,9.2,0,0,1,.808,1.059c.262.374.506.766.742,1.17l1.5,2.513c1.028,1.741,2.114,3.61,3.238,5.586,2.248,3.954,4.643,8.345,7.041,13.014.884,1.721,1.736,3.419,2.54,5.043l-.092-.084,21.55,8.176,6.368,2.454,1.711.676.441.182A.632.632,0,0,1,176.866,196.427Z" transform="translate(-120.792 -153.307)" fill="#263238"/></g><g transform="translate(159.584 225.203)"><g transform="translate(0.017 0.017)"><path d="M195.292,228.826a.539.539,0,1,1-.539-.539A.539.539,0,0,1,195.292,228.826Z" transform="translate(-194.214 -228.287)" fill="#263238"/></g><path d="M194.744,229.373a.555.555,0,1,1,.555-.555A.556.556,0,0,1,194.744,229.373Zm0-1.078a.522.522,0,1,0,.522.522A.523.523,0,0,0,194.744,228.3Z" transform="translate(-194.189 -228.262)" fill="#263238"/><g transform="translate(2.048 0.539)"><g transform="translate(0.017 0.017)"><path d="M198.393,229.642a.539.539,0,1,1-.539-.539A.539.539,0,0,1,198.393,229.642Z" transform="translate(-197.315 -229.103)" fill="#263238"/></g><path d="M197.845,230.189a.555.555,0,1,1,.556-.555A.556.556,0,0,1,197.845,230.189Zm0-1.078a.522.522,0,1,0,.523.522A.523.523,0,0,0,197.845,229.111Z" transform="translate(-197.29 -229.078)" fill="#263238"/></g><g transform="translate(3.964 1.114)"><g transform="translate(0.017 0.016)"><circle cx="0.539" cy="0.539" r="0.539" fill="#263238"/></g><path d="M200.746,231.059a.555.555,0,1,1,.555-.555A.556.556,0,0,1,200.746,231.059Zm0-1.078a.522.522,0,1,0,.522.522A.523.523,0,0,0,200.746,229.981Z" transform="translate(-200.191 -229.949)" fill="#263238"/></g></g><g transform="translate(111.105 192.894)"><path d="M175.89,216.4a.731.731,0,0,1-.186-.03l-.538-.12-2.061-.493L165.54,213.9c-6.388-1.567-15.2-3.785-24.979-6.049-1.221-.293-2.435-.524-3.628-.848a7.959,7.959,0,0,1-3.27-1.633,9.538,9.538,0,0,1-2-2.9l-1.443-3.016-4.948-10.444-3.308-7.054c-.376-.818-.672-1.462-.884-1.925l-.223-.5a.77.77,0,0,1-.065-.177.761.761,0,0,1,.1.162l.253.489.942,1.9c.816,1.678,1.977,4.066,3.407,7.006l5.014,10.411,1.451,3.007a9.257,9.257,0,0,0,1.933,2.8,7.652,7.652,0,0,0,3.136,1.553c1.167.315,2.392.55,3.613.843,9.783,2.266,18.588,4.52,24.962,6.148l7.539,1.968,2.045.556.529.153A.808.808,0,0,1,175.89,216.4Z" transform="translate(-120.791 -179.346)" fill="#263238"/></g><g transform="translate(121.353 228.143)"><path d="M150.261,232.717c.013.019-.149.156-.456.384s-.757.55-1.326.93a21.375,21.375,0,0,1-4.752,2.471,10.849,10.849,0,0,1-5.326.534,7.087,7.087,0,0,1-1.569-.452,1.731,1.731,0,0,1-.526-.285,18.471,18.471,0,0,0,2.132.5,11.555,11.555,0,0,0,5.177-.618,25.476,25.476,0,0,0,4.734-2.351A16.3,16.3,0,0,1,150.261,232.717Z" transform="translate(-136.306 -232.714)" fill="#263238"/></g><g transform="translate(120.994 231.975)"><path d="M151.749,238.516a.785.785,0,0,1,.1.249,5.671,5.671,0,0,1,.176.741,8.156,8.156,0,0,1-.026,2.8,8.557,8.557,0,0,1-1.717,3.782,8.475,8.475,0,0,1-9.325,2.606,8.559,8.559,0,0,1-3.429-2.345,8.19,8.19,0,0,1-1.474-2.382,5.685,5.685,0,0,1-.234-.725.786.786,0,0,1-.048-.262,10.086,10.086,0,0,0,1.936,3.2,8.539,8.539,0,0,0,3.355,2.21,8.283,8.283,0,0,0,8.973-2.507,8.538,8.538,0,0,0,1.725-3.629A10.1,10.1,0,0,0,151.749,238.516Z" transform="translate(-135.763 -238.516)" fill="#263238"/></g><g transform="translate(120.257 127.519)"><g transform="translate(0 0.847)"><g transform="translate(4.049)"><path d="M140.783,93.643l.087,24.612a7.321,7.321,0,0,0,7.709,7.285h0a7.325,7.325,0,0,0,6.934-7.349c-.009-1.853-.012-3.4,0-3.588,0,0,6.263-.611,6.693-6.814.208-3,.134-9.207,0-14.823a11.581,11.581,0,0,0-10.923-11.283l-.6-.034C144.207,81.658,140.6,87.166,140.783,93.643Z" transform="translate(-140.776 -81.649)" fill="#b78876"/><g transform="translate(6.791 30.104)"><path d="M159.019,129.989a14.461,14.461,0,0,1-7.961-2.761s1.658,4.576,7.884,4.37Z" transform="translate(-151.058 -127.228)" fill="#aa6550"/></g></g><g transform="translate(10.631 10.557)"><g transform="translate(0.492 2.113)"><g transform="translate(9.495 0.215)"><g transform="translate(1.55 1.23)"><path d="M169.984,103.872a.887.887,0,0,1-.906.845.849.849,0,0,1-.869-.851.888.888,0,0,1,.9-.846A.85.85,0,0,1,169.984,103.872Z" transform="translate(-168.21 -103.02)" fill="#263238"/></g><path d="M169.364,102.191c-.116.11-.76-.426-1.714-.478s-1.68.385-1.777.263c-.048-.055.076-.257.394-.462a2.433,2.433,0,0,1,1.431-.353,2.344,2.344,0,0,1,1.356.525C169.333,101.928,169.421,102.143,169.364,102.191Z" transform="translate(-165.863 -101.157)" fill="#263238"/></g><g transform="translate(1.778 1.371)"><path d="M155.953,103.759a.889.889,0,0,1-.906.845.849.849,0,0,1-.868-.851.888.888,0,0,1,.9-.846A.85.85,0,0,1,155.953,103.759Z" transform="translate(-154.179 -102.907)" fill="#263238"/></g><path d="M154.988,101.865c-.117.11-.761-.426-1.714-.478s-1.68.385-1.777.262c-.048-.054.075-.256.394-.461a2.434,2.434,0,0,1,1.431-.353,2.344,2.344,0,0,1,1.356.524C154.957,101.6,155.045,101.817,154.988,101.865Z" transform="translate(-151.487 -100.831)" fill="#263238"/><g transform="translate(6.523 0.56)"><path d="M161.363,109.652a6.34,6.34,0,0,1,1.565-.191c.245-.011.478-.046.529-.211a1.244,1.244,0,0,0-.122-.731q-.293-.9-.615-1.9a31.916,31.916,0,0,1-1.341-4.944,31.956,31.956,0,0,1,1.736,4.824c.2.665.4,1.3.584,1.9a1.419,1.419,0,0,1,.072.964.611.611,0,0,1-.421.333,1.667,1.667,0,0,1-.417.034A6.181,6.181,0,0,1,161.363,109.652Z" transform="translate(-161.363 -101.679)" fill="#263238"/></g></g><g transform="translate(0 0.343)"><path d="M155.119,98.977c-.109.254-1.054.077-2.181.148-1.128.049-2.049.325-2.185.084-.059-.115.112-.35.491-.581a3.8,3.8,0,0,1,3.326-.176C154.971,98.64,155.166,98.856,155.119,98.977Z" transform="translate(-150.742 -98.151)" fill="#263238"/></g><g transform="translate(10.169)"><path d="M169.376,98.719c-.18.207-.824-.055-1.614-.111-.787-.083-1.468.062-1.608-.173-.061-.114.056-.325.36-.513a2.341,2.341,0,0,1,2.6.229C169.377,98.389,169.456,98.618,169.376,98.719Z" transform="translate(-166.138 -97.632)" fill="#263238"/></g></g><g transform="translate(0 16.339)"><path d="M138.947,106.667c-.1-.052-4.193-1.5-4.3,2.746s4.184,3.481,4.194,3.359S138.947,106.667,138.947,106.667Z" transform="translate(-134.646 -106.386)" fill="#b78876"/><g transform="translate(1.079 1.36)"><path d="M138.138,111.829c-.018-.015-.076.05-.2.1a.741.741,0,0,1-.554,0,1.835,1.835,0,0,1-.806-1.666,2.445,2.445,0,0,1,.234-1.055.857.857,0,0,1,.571-.555.378.378,0,0,1,.432.214c.054.12.024.2.047.213s.093-.069.063-.246a.471.471,0,0,0-.161-.27.558.558,0,0,0-.407-.119,1.041,1.041,0,0,0-.79.64,2.508,2.508,0,0,0-.287,1.178,1.923,1.923,0,0,0,1.034,1.863.8.8,0,0,0,.68-.1C138.128,111.931,138.153,111.836,138.138,111.829Z" transform="translate(-136.279 -108.445)" fill="#aa6550"/></g></g></g><g transform="translate(1.496)"><path d="M137.363,97.554a2.234,2.234,0,0,1,1.983,1.163c.242.622.264,1.312.5,1.934a1.5,1.5,0,0,0,1.488,1.09,1.309,1.309,0,0,0,.939-.918,3.59,3.59,0,0,0,.09-1.368c-.137-2-.441-3.985-.408-5.986a10.21,10.21,0,0,1,1.582-5.7,5.585,5.585,0,0,1,5.123-2.508c1.313.182,2.483.939,3.783,1.2a5.191,5.191,0,0,0,4.389-1.193,2.089,2.089,0,0,1,.209-.149,1.145,1.145,0,0,0,.484-1.3,1.1,1.1,0,0,0-.227-.421c-2.462-2.552-7.108-3.49-10.591-2.822a12.405,12.405,0,0,0-8.5,6.043c-1.661,3.133-1.478,7.634-.849,10.936" transform="translate(-136.911 -80.367)" fill="#263238"/></g><g transform="translate(15.24 22.798)"><path d="M157.874,114.883c.155-.009.157,1.024,1.042,1.758s1.985.62,1.993.765c.015.065-.246.2-.71.213a2.575,2.575,0,0,1-1.664-.58,2.244,2.244,0,0,1-.807-1.474C157.688,115.133,157.8,114.877,157.874,114.883Z" transform="translate(-157.719 -114.883)" fill="#263238"/></g></g><g transform="translate(195 180.588)"><path d="M247.809,165.394s4.654-4.09,5.537-4.39,7.889-.429,8.362-.079,7.567,4.242,6.392,4.837-6.1-2.19-6.1-2.19l-.828.109s4.291,2.292,5.057,3.174c.7.812.03,1.785-.771,1.412s-4.484-2.5-4.775-2.418,3.925,2.546,4.313,3c.522.614.185,1.8-.623,1.46-.476-.2-4.365-2.779-4.365-2.779a38.527,38.527,0,0,1,3.145,2.877c.343.661-.316,1.259-.993.843-.465-.285-2.463-2.25-3.086-2.63,0,0-.688-.049-1.7,1.028s-5,2.558-5,2.558Z" transform="translate(-247.809 -160.714)" fill="#b78876"/><g transform="translate(10.556 2.577)"><path d="M273.5,167.1a3.677,3.677,0,0,1-1.5-.094,8.612,8.612,0,0,1-1.575-.472c-.554-.263-1.153-.569-1.784-.89l-1.335-.691.088.021a21.391,21.391,0,0,1-3.6-.1,21.481,21.481,0,0,1,3.6-.256h.042l.046.023,1.33.67,1.753.908a10.573,10.573,0,0,0,1.5.531C272.94,166.985,273.51,167.043,273.5,167.1Z" transform="translate(-263.791 -164.616)" fill="#aa6550"/></g><g transform="translate(1.73 2.601)"><g transform="translate(0.002 0.006)"><path d="M250.432,167.917a1.588,1.588,0,0,0,1.752.6c.649-.137,1.232-.491,1.87-.675,1.906-.551,4.026.468,5.9-.174.262-.089.556-.281.524-.556-.03-.255-.316-.382-.561-.459l-6.26-1.995" transform="translate(-250.432 -164.661)" fill="#b78876"/></g><path d="M253.659,164.658a2.6,2.6,0,0,1,.7.146c.443.118,1.08.3,1.865.532l2.75.834.793.246c.246.1.609.115.846.5a.553.553,0,0,1-.1.614,1.132,1.132,0,0,1-.45.294,4.277,4.277,0,0,1-.945.211,25.131,25.131,0,0,1-3.534-.191,4.948,4.948,0,0,0-1.475.14c-.445.121-.85.315-1.242.456a2.314,2.314,0,0,1-1.958.015c-.429-.248-.493-.548-.477-.544a1.911,1.911,0,0,0,.542.413,2.241,2.241,0,0,0,1.8-.131c.372-.15.772-.361,1.252-.507a5.1,5.1,0,0,1,1.568-.186,29.294,29.294,0,0,0,3.484.164,4.042,4.042,0,0,0,.855-.187c.257-.092.431-.277.35-.4-.067-.147-.355-.239-.624-.322l-.789-.258-2.726-.911c-.774-.264-1.4-.485-1.828-.645A2.637,2.637,0,0,1,253.659,164.658Z" transform="translate(-250.429 -164.652)" fill="#aa6550"/></g></g><g transform="translate(165.934 218.585)"><path d="M206.43,219.008l7.722-.765s10.211,6.993,9.232,8.532-2.658,0-2.658,0,1.818,2.238-1.119,2.937c0,0-.7,1.538-1.818,1.4l-.7.009s-.633,1.949-1.575,1.53a30.587,30.587,0,0,1-3.793-2.937l-7.919-.7Z" transform="translate(-203.802 -218.243)" fill="#b78876"/></g><g transform="translate(170.648 227.191)"><path d="M213.657,231.392s-1.977.76-2.388,1.553-.649,2.666.626,3.007a11.309,11.309,0,0,0,2.246-.071l-.488-2.079a14.675,14.675,0,0,1,1.179-1.219C215.253,232.233,214.793,230.865,213.657,231.392Z" transform="translate(-210.94 -231.273)" fill="#ffbe9d"/></g><g transform="translate(173.024 228.247)"><path d="M217.1,232.991s-1.978.76-2.388,1.553a1.745,1.745,0,0,0,1.136,2.468,9.208,9.208,0,0,0,2.04-.069l-.207-.4c-.4-.779-.572-1.41.133-1.931.039-.028.433-.4.462-.425A.861.861,0,0,0,217.1,232.991Z" transform="translate(-214.538 -232.871)" fill="#ffbe9d"/></g><g transform="translate(175.757 229.984)"><path d="M218.985,237.763a1.147,1.147,0,0,1-.16-1.359,1.876,1.876,0,0,1,1.159-.845.867.867,0,0,1,.9.147.764.764,0,0,1,.127.594,3.114,3.114,0,0,1-.776,1.444c-.184.231-.411.483-.705.476s-.518-.283-.688-.532" transform="translate(-218.675 -235.502)" fill="#ffbe9d"/></g><g transform="translate(133.199 169.336)"><path d="M155.374,144.336l1.736-.657,1.506,2.689-.838,2.871-1.771.438-1.766-2.224Z" transform="translate(-154.241 -143.679)" fill="#2f3676"/></g><g transform="translate(134.964 174.896)"><path d="M156.914,152.535s2.247,12.358,4.121,21.05c0,0,1.536,7.236,2.158,8.906a24.464,24.464,0,0,0,2.831,4.649l2.176.841-1.329-12.214L158.685,152.1Z" transform="translate(-156.914 -152.096)" fill="#e8505b"/></g><g transform="translate(134.964 174.896)"><path d="M156.914,152.535s2.247,12.358,4.121,21.05c0,0,1.76,7.17,2.158,8.906.234,1.02,2.831,4.649,2.831,4.649l2.176.841-1.329-12.214L158.685,152.1Z" transform="translate(-156.914 -152.096)" fill="#2f3676"/></g><g transform="translate(122.598 162.483)"><path d="M139.506,133.3l10.42,7.51-2.253,6.2-9.481-9.763Z" transform="translate(-138.191 -133.304)" fill="#f5f5f5"/><g transform="translate(13.47 0.357)"><path d="M158.585,140.34l2.913-6.5,1.647,5.358-2.288,5.632Z" transform="translate(-158.585 -133.844)" fill="#f5f5f5"/></g><g transform="translate(0.224 3.433)"><path d="M150.041,142.578a1.737,1.737,0,0,1-.117.476c-.118.36-.258.789-.422,1.3-.373,1.1-.915,2.661-1.563,4.479l-.09.252-.181-.2-2.429-2.68c-1.888-2.1-3.582-4-4.8-5.4l-1.424-1.662a3.6,3.6,0,0,1-.487-.641,3.551,3.551,0,0,1,.587.551l1.505,1.589c1.26,1.351,2.983,3.235,4.87,5.33l2.413,2.694-.271.052c.671-1.809,1.255-3.35,1.68-4.436l.509-1.264A1.712,1.712,0,0,1,150.041,142.578Z" transform="translate(-138.531 -138.501)" fill="#263238"/></g><g transform="translate(13.498 5.714)"><path d="M163.159,141.956a7.409,7.409,0,0,1-.486,1.52c-.341.923-.835,2.188-1.4,3.578l-.245.6-.17.418-.149-.425a29.1,29.1,0,0,0-2.078-4.267,4.381,4.381,0,0,1,.87,1.084,14.37,14.37,0,0,1,1.53,3.069l-.32-.007.242-.6c.565-1.39,1.094-2.641,1.492-3.54A7.321,7.321,0,0,1,163.159,141.956Z" transform="translate(-158.628 -141.955)" fill="#263238"/></g></g><g transform="translate(261.801 363.777)"><path d="M360.237,438.067l4.019,15.948,6.816,11.7a1.686,1.686,0,0,1-.709,2.359h0a1.676,1.676,0,0,1-1.542-.024c-3.061-1.651-14.288-7.781-14.518-8.965-.265-1.371-5.355-16.541-5.355-16.541Z" transform="translate(-348.948 -438.067)" fill="#1f28cf"/></g><g transform="translate(266.861 383.721)" opacity="0.6"><path d="M372.964,478.322l-16.355-10.059.186.672a2.534,2.534,0,0,0,1.018,1.425c1.334.9,5.071,3.322,13.561,7.952a1.684,1.684,0,0,0,1.59.011Z" transform="translate(-356.609 -468.263)" fill="#fff"/></g><g transform="translate(267.423 377.649)" opacity="0.6"><path d="M358.737,459.13a1.019,1.019,0,0,1,.624,1.209.98.98,0,0,1-1.193.629,1.075,1.075,0,0,1-.654-1.284,1.017,1.017,0,0,1,1.313-.516" transform="translate(-357.46 -459.071)" fill="#fff"/></g><g transform="translate(277.632 385.307)"><path d="M372.963,473.213a3.637,3.637,0,0,1,2.778-2.47c0-.043-.232-.111-.618-.061a2.685,2.685,0,0,0-2.148,1.911C372.88,472.97,372.92,473.211,372.963,473.213Z" transform="translate(-372.917 -470.664)" fill="#263238"/></g><g transform="translate(279.375 387.886)"><path d="M375.575,476.349c.094.048.461-.608,1.216-1.069a13.715,13.715,0,0,1,1.493-.627,1.867,1.867,0,0,0-1.685.322C375.741,475.5,375.48,476.329,375.575,476.349Z" transform="translate(-375.556 -474.569)" fill="#263238"/></g><g transform="translate(274.813 382.713)"><path d="M368.66,469.74a8.661,8.661,0,0,1,3.964-2.976,4.607,4.607,0,0,0-3.964,2.976Z" transform="translate(-368.649 -466.738)" fill="#263238"/></g><g transform="translate(273.193 379.513)"><path d="M366.2,463.35c.068.083.843-.525,1.971-.881,1.123-.372,2.107-.332,2.114-.44a4.183,4.183,0,0,0-4.085,1.321Z" transform="translate(-366.196 -461.892)" fill="#263238"/></g><g transform="translate(271.895 374.894)"><path d="M364.235,456.324a5.358,5.358,0,0,1,4.275-1.024c.017-.04-.211-.192-.635-.3a3.676,3.676,0,0,0-3.211.769C364.336,456.057,364.2,456.3,364.235,456.324Z" transform="translate(-364.23 -454.899)" fill="#263238"/></g><g transform="translate(270.768 371.355)"><path d="M365.41,452.655a1.419,1.419,0,0,0-.145-.605,4.317,4.317,0,0,0-.91-1.439,1.918,1.918,0,0,0-1.036-.663.677.677,0,0,0-.7.349,1.1,1.1,0,0,0-.053.785,2.382,2.382,0,0,0,2.6,1.568,2.763,2.763,0,0,0,2.231-2.116.96.96,0,0,0-.169-.781.665.665,0,0,0-.764-.153,2.349,2.349,0,0,0-.894.832,4.813,4.813,0,0,0-.742,1.53,1.476,1.476,0,0,0-.092.615,7.649,7.649,0,0,1,1.037-1.991,2.193,2.193,0,0,1,.8-.705.354.354,0,0,1,.417.081.659.659,0,0,1,.081.52,2.465,2.465,0,0,1-1.955,1.812,2.068,2.068,0,0,1-2.225-1.3.8.8,0,0,1,.014-.55.368.368,0,0,1,.381-.2,1.729,1.729,0,0,1,.887.546A6.383,6.383,0,0,1,365.41,452.655Z" transform="translate(-362.524 -449.541)" fill="#263238"/></g><g transform="translate(211.864 366.324)"><path d="M284.763,442.353l.851,12.291s-12.207,4.993-12.271,7.28l23.891-.8-.541-19.205Z" transform="translate(-273.343 -441.924)" fill="#1f28cf"/></g><g transform="translate(230.349 377.729)"><path d="M302.468,459.226a.977.977,0,0,1,.712,1.091.939.939,0,0,1-1.075.715,1.03,1.03,0,0,1-.748-1.16.974.974,0,0,1,1.2-.62" transform="translate(-301.329 -459.192)" fill="#e0e0e0"/></g><g transform="translate(211.851 383.596)"><path d="M297.227,470.008l-.13-1.934-22.857,1.485s-1.048.5-.9,1.243Z" transform="translate(-273.322 -468.074)" fill="#e0e0e0"/></g><g transform="translate(223.743 378.815)"><path d="M291.329,460.956c.008.117.593.151,1.18.507.6.34.908.836,1.015.786.106-.026-.091-.718-.808-1.136S291.3,460.85,291.329,460.956Z" transform="translate(-291.328 -460.835)" fill="#263238"/></g><g transform="translate(221.272 380.004)"><path d="M287.588,462.687c-.023.114.489.3.9.775s.544,1,.66.989c.11.015.168-.671-.356-1.258S287.586,462.576,287.588,462.687Z" transform="translate(-287.587 -462.635)" fill="#263238"/></g><g transform="translate(218.95 381.119)"><path d="M285.07,466.306c.107.022.25-.567-.071-1.2s-.875-.865-.921-.766c-.063.1.3.429.559.949S284.954,466.3,285.07,466.306Z" transform="translate(-284.071 -464.323)" fill="#263238"/></g><g transform="translate(223.856 375.655)"><path d="M291.5,456.509c.053.105.583-.074,1.243-.052s1.182.214,1.24.112c.065-.087-.451-.5-1.23-.518S291.444,456.419,291.5,456.509Z" transform="translate(-291.499 -456.051)" fill="#263238"/></g><g transform="translate(223.735 371.605)"><path d="M291.315,451.945a2.246,2.246,0,0,0,1.2-.046,5.371,5.371,0,0,0,1.239-.426,5.659,5.659,0,0,0,.674-.388,1.438,1.438,0,0,0,.352-.293.509.509,0,0,0,.033-.622.64.64,0,0,0-.52-.25,1.565,1.565,0,0,0-.446.077,4.284,4.284,0,0,0-.735.28,4.235,4.235,0,0,0-1.079.761c-.537.532-.712.974-.671,1,.054.036.312-.337.861-.78a4.775,4.775,0,0,1,1.048-.637,4.461,4.461,0,0,1,.68-.235c.251-.075.466-.084.535.027.024.042.028.059-.022.135a1.223,1.223,0,0,1-.259.214,6.151,6.151,0,0,1-.62.382,6.667,6.667,0,0,1-1.142.482A8.158,8.158,0,0,0,291.315,451.945Z" transform="translate(-291.315 -449.92)" fill="#263238"/></g><g transform="translate(222.234 370.027)"><path d="M290.7,451.3a1.9,1.9,0,0,0,.277-1.166,3.872,3.872,0,0,0-.207-1.3,3.913,3.913,0,0,0-.329-.717.99.99,0,0,0-.783-.579.561.561,0,0,0-.489.351,1.611,1.611,0,0,0-.108.443,2.652,2.652,0,0,0,.026.806,2.754,2.754,0,0,0,.552,1.219c.487.6.979.727.987.687.037-.06-.377-.271-.754-.855a2.763,2.763,0,0,1-.416-1.112,2.479,2.479,0,0,1,0-.692c.028-.256.117-.464.213-.441.118-.006.327.178.431.378a4,4,0,0,1,.318.639,4.338,4.338,0,0,1,.271,1.186C290.748,450.839,290.638,451.28,290.7,451.3Z" transform="translate(-289.044 -447.53)" fill="#263238"/></g><g transform="translate(216.766 233.051)"><path d="M280.763,240.144l3.843,143.033,18.846-.566L302,259.85,326.02,386.025l17.022-4.443L321.066,240.417Z" transform="translate(-280.763 -240.144)" fill="#263238"/><g transform="translate(10.155 10.785)"><path d="M296.31,388.911c-.1,0-.172-29.649-.172-66.216s.077-66.222.172-66.222.172,29.643.172,66.222S296.4,388.911,296.31,388.911Z" transform="translate(-296.138 -256.473)" fill="#455a64"/></g><g transform="translate(31.307 18.808)"><path d="M347.49,395.649c-.094.015-4.5-28.413-9.833-63.486s-9.587-63.529-9.493-63.543,4.5,28.406,9.833,63.492S347.584,395.634,347.49,395.649Z" transform="translate(-328.163 -268.62)" fill="#455a64"/></g></g><g transform="translate(217.8 125.958)"><path d="M308.3,95.653a29.358,29.358,0,0,0,1.593-4.553c.226-1.187.582-2.97.1-4.08a2.854,2.854,0,0,0-3.086-1.872,6.9,6.9,0,0,0-3.991-5.408,17.591,17.591,0,0,0-6.61-1.718,5.618,5.618,0,0,0-2.477.311,3.175,3.175,0,0,0-1.489,1.606,5.469,5.469,0,0,0-4.857-.779c-1.818.495-3.894,1.476-4.691,3.182a5.32,5.32,0,0,0-.144,4.032c.354,1.11,1.528,2.853,2.621,2.447" transform="translate(-282.329 -78.003)" fill="#263238"/><g transform="translate(0.997 4.873)"><g transform="translate(1.529 1.528)"><path d="M300.411,129.792h0a8.16,8.16,0,0,1-7.98-8.564c.114-2.283.22-4.124.22-4.124s-6.219-.808-6.451-7,.485-20.44.485-20.44h0a21.531,21.531,0,0,1,21.7,2.176l.935.684-.579,29.272A8.159,8.159,0,0,1,300.411,129.792Z" transform="translate(-286.153 -87.695)" fill="#ffbe9d"/><g transform="translate(6.397 26.822)"><path d="M295.926,130.8a14.41,14.41,0,0,0,8.017-2.5s-1.911,4.806-8.1,4.4Z" transform="translate(-295.838 -128.305)" fill="#eb996e"/></g><g transform="translate(22.472 11.033)"><path d="M320.266,104.629c.105-.048,4.224-1.365,4.2,2.872s-4.277,3.334-4.285,3.213S320.266,104.629,320.266,104.629Z" transform="translate(-320.177 -104.399)" fill="#ffbe9d"/><g transform="translate(1.302 1.372)"><path d="M322.152,109.823c.019-.013.073.052.2.11a.739.739,0,0,0,.552.015,1.827,1.827,0,0,0,.857-1.633,2.447,2.447,0,0,0-.2-1.058.853.853,0,0,0-.551-.571.376.376,0,0,0-.437.2c-.057.118-.031.2-.053.21s-.09-.071-.055-.246a.473.473,0,0,1,.169-.264.555.555,0,0,1,.409-.106,1.038,1.038,0,0,1,.766.662,2.5,2.5,0,0,1,.248,1.183,1.916,1.916,0,0,1-1.09,1.823.791.791,0,0,1-.674-.117C322.159,109.926,322.137,109.831,322.152,109.823Z" transform="translate(-322.148 -106.476)" fill="#eb996e"/></g></g><g transform="translate(1.907 6.111)"><g transform="translate(0 3.511)"><g transform="translate(0 0.057)"><g transform="translate(0.233 1.142)"><path d="M289.393,104.9a.885.885,0,0,0,.876.871.847.847,0,0,0,.892-.82.885.885,0,0,0-.875-.871A.847.847,0,0,0,289.393,104.9Z" transform="translate(-289.393 -104.078)" fill="#263238"/></g><path d="M289.055,103.323c.113.112.77-.4,1.723-.422s1.661.437,1.762.318c.05-.053-.068-.258-.377-.472a2.422,2.422,0,0,0-1.414-.4,2.327,2.327,0,0,0-1.367.48C289.094,103.062,289,103.272,289.055,103.323Z" transform="translate(-289.04 -102.349)" fill="#263238"/></g><g transform="translate(9.36)"><g transform="translate(0.199 1.189)"><path d="M303.514,104.884a.885.885,0,0,0,.875.871.846.846,0,0,0,.892-.82.885.885,0,0,0-.874-.872A.847.847,0,0,0,303.514,104.884Z" transform="translate(-303.514 -104.062)" fill="#263238"/></g><path d="M303.227,103.236c.112.112.771-.4,1.722-.421s1.661.437,1.762.318c.05-.053-.066-.258-.377-.472a2.425,2.425,0,0,0-1.413-.4,2.335,2.335,0,0,0-1.367.48C303.266,102.975,303.172,103.186,303.227,103.236Z" transform="translate(-303.212 -102.262)" fill="#263238"/></g><g transform="translate(3.656 0.178)"><path d="M297.017,110.473a6.323,6.323,0,0,0-1.553-.24c-.244-.019-.475-.061-.52-.226a1.231,1.231,0,0,1,.144-.725q.321-.892.672-1.869a31.876,31.876,0,0,0,1.493-4.882,31.856,31.856,0,0,0-1.882,4.75q-.336.984-.641,1.879a1.405,1.405,0,0,0-.1.957.61.61,0,0,0,.408.345,1.643,1.643,0,0,0,.415.047A6.2,6.2,0,0,0,297.017,110.473Z" transform="translate(-294.575 -102.531)" fill="#263238"/></g><g transform="translate(5.946 8.707)"><path d="M301.012,115.445c-.155,0-.131,1.028-1,1.784s-1.969.669-1.973.814c-.013.065.25.195.715.2a2.576,2.576,0,0,0,1.648-.621,2.245,2.245,0,0,0,.77-1.494C301.2,115.691,301.083,115.438,301.012,115.445Z" transform="translate(-298.042 -115.445)" fill="#263238"/></g></g><g transform="translate(9.03)"><path d="M302.718,97.708c.1.256,1.048.11,2.168.217,1.122.084,2.031.388,2.173.153.063-.113-.1-.352-.47-.594a3.785,3.785,0,0,0-3.307-.281C302.876,97.378,302.674,97.586,302.718,97.708Z" transform="translate(-302.712 -96.947)" fill="#263238"/></g><g transform="translate(0.27 0.75)"><path d="M289.475,99.111c.172.212.822-.029,1.611-.059.787-.058,1.46.109,1.608-.122.065-.111-.046-.325-.343-.522a2.333,2.333,0,0,0-2.594.145C289.484,98.782,289.4,99.008,289.475,99.111Z" transform="translate(-289.448 -98.082)" fill="#263238"/></g></g></g><path d="M308.858,92.226c-.039,1.806.414,3.806.143,5.586-.041.269-.718,1-.773,1.268-.325,1.578-.958,2.267-1.932.672a14.155,14.155,0,0,1-.805-3.036q-.636-2.845-1.271-5.691a9.9,9.9,0,0,1-4.68,1.235,4.815,4.815,0,0,1-4.084-2.273,5,5,0,0,1-7.724,1.211,2.086,2.086,0,0,1-2.744.658,2.477,2.477,0,0,1-1.075-2.707c.388-1.522,1.986-2.382,3.481-2.863,5.847-1.881,12.395-.686,17.768,2.288a8.987,8.987,0,0,1,2.178,1.557c.621.645,1.479,1.4,1.528,2.3" transform="translate(-283.838 -85.381)" fill="#263238"/></g><g transform="translate(21.563 11.061)"><path d="M314.977,94.913a3.027,3.027,0,0,1,.961.153,3.3,3.3,0,0,1,.884.569c.3.262.6.609.962.945a3.105,3.105,0,0,0,1.2.756,2.145,2.145,0,0,0,1.174.016c.655-.183.915-.544.883-.566a6.761,6.761,0,0,1-.937.315,2.078,2.078,0,0,1-1.016-.083,3.076,3.076,0,0,1-1.06-.7c-.345-.32-.654-.662-1-.936a3.034,3.034,0,0,0-1.015-.555C315.356,94.628,314.947,94.883,314.977,94.913Z" transform="translate(-314.976 -94.75)" fill="#455a64"/></g><g transform="translate(22.286 12.991)"><path d="M316.073,97.755a1.906,1.906,0,0,1,.671.3,3.474,3.474,0,0,1,.539.612,2.884,2.884,0,0,0,2.735,1.158c.509-.077.775-.265.756-.3-.02-.053-.31.041-.778.047a3.185,3.185,0,0,1-1.716-.462c-.605-.342-.906-.984-1.391-1.264S316.041,97.712,316.073,97.755Z" transform="translate(-316.071 -97.673)" fill="#455a64"/></g><g transform="translate(3.516 1.009)"><path d="M290.086,79.552c0-.019-.2-.052-.544.051a2.372,2.372,0,0,0-1.194.9A5.677,5.677,0,0,0,288,85.275a6.727,6.727,0,0,0,3.034,3.731,6.011,6.011,0,0,0,1.356.579,1.324,1.324,0,0,0,.534.089,17.885,17.885,0,0,1-1.756-.888,6.864,6.864,0,0,1-2.822-3.625,5.7,5.7,0,0,1,.213-4.518,2.43,2.43,0,0,1,1.031-.909C289.9,79.6,290.089,79.581,290.086,79.552Z" transform="translate(-287.653 -79.531)" fill="#455a64"/></g><g transform="translate(0.784 3.601)"><path d="M283.553,83.455a2.708,2.708,0,0,0,.053,1.194,7.381,7.381,0,0,0,3.137,4.718,2.7,2.7,0,0,0,1.081.51,12.01,12.01,0,0,1-2.818-2.758A12.049,12.049,0,0,1,283.553,83.455Z" transform="translate(-283.515 -83.455)" fill="#455a64"/></g></g><g transform="translate(173.365 215.875)"><path d="M226.151,214.139l-9.063.458a2.141,2.141,0,0,0-2.035,2.178c.043,2.07.392,4.905,2.007,4.636l1.032-4.512,7.52,6.635a5.456,5.456,0,0,0,2.711,1.328l1.767-.183Z" transform="translate(-215.053 -214.139)" fill="#ffbe9d"/></g><g transform="translate(220.714 163)"><g transform="translate(0 2.678)"><path d="M293.829,139.8l-4.737,1.565-2.35,39.336v34.889l29.081,3.221.337-50.317-1.878-25.043-4.442-5.308Z" transform="translate(-286.742 -138.141)" fill="#e0e0e0"/></g><g transform="translate(5.63)"><path d="M295.265,140.3v-3.812l17.282-2.405-.694,8.781-3.972,6.884-6.49.362-4.69-2.9Z" transform="translate(-295.265 -134.087)" fill="#e0e0e0"/></g><g transform="translate(7.064 2.302)"><path d="M297.551,141.042a8.84,8.84,0,0,1,.149-3.47,8.874,8.874,0,0,1-.149,3.47Z" transform="translate(-297.438 -137.572)" fill="#263238"/></g><g transform="translate(11.408 1.584)"><path d="M304.106,140.358a11.032,11.032,0,0,1,.227-3.874,11.032,11.032,0,0,1-.227,3.874Z" transform="translate(-304.013 -136.484)" fill="#263238"/></g><g transform="translate(15.602 0.927)"><path d="M310.441,139.583a12.313,12.313,0,0,1,.3-4.093,12.313,12.313,0,0,1-.3,4.093Z" transform="translate(-310.364 -135.49)" fill="#263238"/></g><g transform="translate(19.528 0.482)"><path d="M316.472,138.695a7.951,7.951,0,0,1,.177-3.879,18.209,18.209,0,0,1-.177,3.879Z" transform="translate(-316.308 -134.816)" fill="#263238"/></g><g transform="translate(8.914 20.988)"><path d="M309.1,165.864a2.608,2.608,0,0,1-.229.646c-.167.408-.427.989-.764,1.7-.672,1.423-1.673,3.356-2.9,5.421s-2.45,3.868-3.378,5.138c-.464.635-.85,1.141-1.128,1.483a2.672,2.672,0,0,1-.458.51,22.94,22.94,0,0,1,1.387-2.132c.875-1.3,2.058-3.118,3.282-5.174s2.252-3.963,2.977-5.354A23.183,23.183,0,0,1,309.1,165.864Z" transform="translate(-300.239 -165.863)" fill="#263238"/></g></g><g transform="translate(240.811 165.066)"><g transform="translate(0.003)"><path d="M320.082,137.214l4.692,2.259,9.059,2.216a7.547,7.547,0,0,1,6.195,8.395l-4.744,36.993,5.661,35.864-22.455-.668-1.318-13.342V171.945Z" transform="translate(-317.173 -137.214)" fill="#455a64"/></g><g transform="translate(0 0.612)"><path d="M317.172,180.786a2.346,2.346,0,0,1,.066-.458c.065-.331.15-.763.255-1.3.244-1.166.584-2.785,1-4.768l3.427-15.7c.375-1.685.74-3.325,1.09-4.9l.043.152-1.556-1.627-.087-.09.064-.106,2.613-4.345-.009.13L321.2,140.8l-.782-1.954a4.712,4.712,0,0,1-.248-.7,4.721,4.721,0,0,1,.329.668c.213.478.5,1.121.855,1.923l2.989,6.927.028.066-.038.064-2.581,4.364-.022-.2,1.563,1.622.062.064-.019.089-1.081,4.9c-1.373,6.106-2.616,11.633-3.526,15.68-.46,1.974-.836,3.585-1.107,4.744-.131.532-.237.959-.318,1.287A2.3,2.3,0,0,1,317.172,180.786Z" transform="translate(-317.169 -138.141)" fill="#263238"/></g></g><g transform="translate(183.417 168.258)"><g transform="translate(1.43 0)"><path d="M232.437,188.172,252.305,177.1l9.627-25.963a13.942,13.942,0,0,1,7.707-8.021l2.555-1.066.012,68.359.513,16.193-10.765-3.224,5.489-32.548-1.9-16.02-1.886,7.751a10.528,10.528,0,0,1-4.9,6.592L238.072,199.89Z" transform="translate(-232.437 -142.046)" fill="#455a64"/></g><g transform="translate(0 46.629)"><path d="M231.944,212.643l-1.672.5,4.7,11.213,2.192-.85Z" transform="translate(-230.272 -212.643)" fill="#e0e0e0"/></g><g transform="translate(21.207 35.211)"><path d="M266.065,199.8a9.23,9.23,0,0,0-3.684-4.437,5.56,5.56,0,0,1,3.684,4.437Z" transform="translate(-262.38 -195.356)" fill="#263238"/></g><g transform="translate(3.434 46.164)"><path d="M235.85,212.045c.021.045-.1.134-.11.326a.3.3,0,1,0,.513-.151c-.114-.155-.262-.166-.269-.215-.023-.038.184-.148.437.04a.588.588,0,1,1-.917.269C235.615,212.021,235.849,212,235.85,212.045Z" transform="translate(-235.47 -211.939)" fill="#263238"/></g><g transform="translate(5.037 45.488)"><path d="M238.277,211.022c.021.045-.1.134-.11.326a.3.3,0,1,0,.513-.151c-.114-.155-.262-.166-.269-.215-.022-.038.184-.148.437.039a.588.588,0,1,1-.917.27C238.042,211,238.276,210.978,238.277,211.022Z" transform="translate(-237.897 -210.916)" fill="#263238"/></g><g transform="translate(38.122)"><path d="M291.055,183.167a2.009,2.009,0,0,1-.087-.421c-.047-.314-.108-.718-.183-1.218-.15-1.1-.357-2.625-.61-4.487-.486-3.831-1.149-9.052-1.882-14.82q-.151-1.23-.3-2.422l-.005-.044.016-.04,1.451-3.689,0,.125-1.433-3.273-.022-.05.014-.051c.88-3.182,1.62-5.857,2.153-7.782l.629-2.183a5.2,5.2,0,0,1,.254-.766,5.167,5.167,0,0,1-.163.791c-.137.549-.32,1.287-.548,2.2l-2.032,7.814-.007-.1,1.456,3.264.028.062-.025.064-1.438,3.694.011-.083q.148,1.192.3,2.422c.694,5.773,1.322,11,1.782,14.833.208,1.869.378,3.395.5,4.5l.119,1.226A2,2,0,0,1,291.055,183.167Z" transform="translate(-287.99 -142.046)" fill="#263238"/></g><g transform="translate(32.097 16.919)"><path d="M283.178,199.714a1.2,1.2,0,0,1-.068-.324c-.035-.253-.077-.561-.129-.934-.107-.865-.25-2.027-.424-3.44-.351-2.9-.845-6.917-1.439-11.341s-1.177-8.426-1.6-11.32l-.5-3.43c-.049-.373-.089-.682-.122-.935a1.2,1.2,0,0,1-.019-.33,1.224,1.224,0,0,1,.088.318l.186.924c.155.8.363,1.97.607,3.413.489,2.886,1.11,6.884,1.7,11.313s1.05,8.446,1.34,11.359c.145,1.457.253,2.637.315,3.453.026.376.048.686.065.941A1.192,1.192,0,0,1,283.178,199.714Z" transform="translate(-278.868 -167.662)" fill="#263238"/></g><g transform="translate(33.657 60.756)"><path d="M281.233,246.547a3.2,3.2,0,0,0,.461.555,2.1,2.1,0,0,0,1.813.406,3.08,3.08,0,0,0,1.966-1.934,12.053,12.053,0,0,0,.554-3.553,8.133,8.133,0,0,0-.368-3.543,6.478,6.478,0,0,0-1.8-2.275,8.471,8.471,0,0,1-1.375-1.5,1.855,1.855,0,0,1-.325-.673c.028-.014.143.225.433.6a10.236,10.236,0,0,0,1.429,1.395,6.456,6.456,0,0,1,1.931,2.334,8.184,8.184,0,0,1,.418,3.685,11.732,11.732,0,0,1-.6,3.654,3.291,3.291,0,0,1-2.2,2.05,2.184,2.184,0,0,1-1.958-.545,1.557,1.557,0,0,1-.322-.464C281.237,246.616,281.223,246.551,281.233,246.547Z" transform="translate(-281.23 -234.032)" fill="#263238"/></g><g transform="translate(26.28 39.341)"><path d="M270.06,209.885s.641-7.575,6.657-8.276A8.888,8.888,0,0,1,270.06,209.885Z" transform="translate(-270.06 -201.609)" fill="#263238"/></g></g><g transform="translate(241.85 215.875)"><path d="M318.742,242.506c.394.263,17.467,11.426,17.467,11.426l1.97-1.576.931-25.611-16.635-12.607-2.289.788Z" transform="translate(-318.742 -214.139)" fill="#1f28cf"/></g><g transform="translate(242.41 216.237)"><path d="M322.579,214.688l.682,27.718H319.59l1.23-27.169Z" transform="translate(-319.59 -214.688)" fill="#e0e0e0"/></g><g transform="translate(246.3 237.736)"><path d="M330.075,259.818a2.149,2.149,0,0,0,1.971,1.341c.048,0,.1.04.143.12a1.955,1.955,0,0,0,1.661,1.034,3.581,3.581,0,0,0,1.872-.54c.913-.556,2.539-4.2,2.539-4.2l3.853-8.58-6.479-1.751L327.4,249.8c0,.149-1.926,7.941-1.926,7.941a1.978,1.978,0,0,0,2.312-1.226,21.115,21.115,0,0,1,1.452-2.719l.613,3.507-2.34.8a1.555,1.555,0,0,0,1,1.779Z" transform="translate(-325.479 -247.238)" fill="#ffbe9d"/></g><g transform="translate(253.8 173.089)"><path d="M336.835,166.337l10.786,19.853-8.778,26.058,9.762,5.5,12.4-28.985a8.225,8.225,0,0,0-.105-6.708l-15.22-32.69Z" transform="translate(-336.835 -149.361)" fill="#455a64"/></g><g transform="translate(254.898 235.977)"><path d="M339.407,244.574l-.911,2.02,9.209,4.963.965-1.767Z" transform="translate(-338.497 -244.574)" fill="#e0e0e0"/></g><g transform="translate(250.736 172.351)"><path d="M337.268,211.869a.5.5,0,0,1,.029-.133l.114-.384.467-1.474,1.792-5.476c1.56-4.677,3.732-11.189,6.218-18.644l.015.139c-1.256-2.133-2.545-4.386-3.848-6.712-2.376-4.248-4.561-8.34-6.429-12.123-.922-1.9-1.783-3.709-2.51-5.442a10.913,10.913,0,0,1-.9-5.145,11.9,11.9,0,0,1,.964-4.209,8.241,8.241,0,0,1,1.9-2.645,6.52,6.52,0,0,1,1.719-1.136,3.544,3.544,0,0,1,.676-.24,7.579,7.579,0,0,0-2.3,1.474,8.245,8.245,0,0,0-1.82,2.626,11.842,11.842,0,0,0-.9,4.143,10.708,10.708,0,0,0,.919,5.021c.735,1.72,1.6,3.523,2.531,5.413,1.88,3.769,4.071,7.852,6.446,12.1,1.3,2.324,2.588,4.578,3.836,6.709l.039.067-.024.072-6.331,18.607c-.8,2.3-1.436,4.145-1.886,5.444l-.52,1.456-.141.374A.45.45,0,0,1,337.268,211.869Z" transform="translate(-332.195 -148.243)" fill="#263238"/></g><g transform="translate(264.542 208.625)"><path d="M360.435,204.271a7.762,7.762,0,0,1-1.063-.376,7.558,7.558,0,0,0-5.235.163,7.5,7.5,0,0,1-1.038.441,2.543,2.543,0,0,1,.938-.662,6.555,6.555,0,0,1,5.422-.169A2.526,2.526,0,0,1,360.435,204.271Z" transform="translate(-353.097 -203.163)" fill="#263238"/></g><g transform="translate(251.644 185.342)"><path d="M333.569,167.911l7.751,25.933,1.093-8.526Z" transform="translate(-333.569 -167.911)" fill="#263238"/></g><g transform="translate(264.066 236.184)"><path d="M352.758,244.994c.021.045-.1.134-.11.326s.116.414.376.334a.288.288,0,0,0,.135-.485c-.114-.155-.262-.166-.269-.215-.022-.038.185-.148.437.04a.588.588,0,1,1-.917.269C352.523,244.97,352.756,244.95,352.758,244.994Z" transform="translate(-352.378 -244.888)" fill="#263238"/></g><g transform="translate(264.845 234.316)"><path d="M353.937,242.167c.021.046-.1.135-.11.327s.116.414.376.334a.288.288,0,0,0,.136-.485c-.114-.155-.262-.166-.269-.215-.022-.038.185-.148.437.039a.588.588,0,1,1-.917.27C353.7,242.142,353.936,242.122,353.937,242.167Z" transform="translate(-353.557 -242.061)" fill="#263238"/></g><g transform="translate(274.32 201.39)"><path d="M369.408,192.209c-1.156.61-1.559,2.31-1.426,3.61a30.739,30.739,0,0,1,.577,3.87,15.851,15.851,0,0,1-.5,2.75,4.757,4.757,0,0,0,.083,2.756,2.12,2.12,0,0,0,2.186,1.382l.915-1.851a10.189,10.189,0,0,0-.129-9.286Z" transform="translate(-367.902 -192.209)" fill="#263238"/></g><g transform="translate(330.813 325.921)"><path d="M455,395.647a7.393,7.393,0,0,1,3.833-4.9c2.047-.882,4.417-.38,6.512.381s4.151,1.779,6.376,1.917,4.734-.918,5.4-3.045c.626-2-.579-4.131-2.089-5.584a13.181,13.181,0,0,0-21.6,5.184" transform="translate(-453.434 -380.753)" fill="#69a1ac"/></g><g transform="translate(312.149 324.192)"><path d="M427.781,403.693c-3.263-3.1-3.1-8.5-1.472-12.693s5.181-7.419,9.149-9.543a28.975,28.975,0,0,1,25.253-.818,11.987,11.987,0,0,0-9.691,5.69c-1.789,2.97-2.186,6.575-3.663,9.712a15.288,15.288,0,0,1-19.576,7.652" transform="translate(-425.177 -378.135)" fill="#89c5cc"/></g><g transform="translate(308.224 277.395)"><path d="M424.194,361.013c-3.613-4.265-4.094-11.111-3.561-16.675s1.822-11.164.944-16.684c-.52-3.271-1.789-6.393-2.217-9.677s.179-7,2.723-9.116c2.924-2.436,7.529-1.861,10.571.426s4.8,5.88,6.092,9.462c2.83,7.868,3.868,16.594,1.544,24.626s-7.779,15.214-15.781,17.638" transform="translate(-419.233 -307.283)" fill="#69a1ac"/></g><g transform="translate(311.437 327.013)"><path d="M424.112,421.51a3.038,3.038,0,0,1-.014-.491c0-.322,0-.8.027-1.409.046-1.223.164-2.993.438-5.166a69.027,69.027,0,0,1,1.388-7.564,34.873,34.873,0,0,1,3.452-8.757,36.523,36.523,0,0,1,5.641-7.541,35.9,35.9,0,0,1,5.913-4.917c.9-.624,1.775-1.1,2.527-1.537.77-.4,1.443-.736,1.994-1l1.3-.546a3.13,3.13,0,0,1,.46-.172,2.95,2.95,0,0,1-.437.227l-1.273.6c-.542.281-1.2.627-1.963,1.044-.74.451-1.6.935-2.491,1.567a37.163,37.163,0,0,0-11.411,12.428c-3.322,5.811-4.232,11.921-4.892,16.2-.3,2.162-.449,3.925-.531,5.143q-.053.884-.083,1.4A3.064,3.064,0,0,1,424.112,421.51Z" transform="translate(-424.098 -382.406)" fill="#263238"/></g><g transform="translate(274.181 314.3)"><path d="M373.8,363.158c-6.685,4.034-6.664,7.705-5.547,11.17s5.219,5.872,8.621,4.575a10.552,10.552,0,0,0,4.505-4.084,18.867,18.867,0,0,1,3.975-4.683c1.667-1.207,4.084-1.668,5.759-.472" transform="translate(-367.692 -363.158)" fill="#69a1ac"/></g><g transform="translate(275.282 309.661)"><path d="M369.359,365.2c1.748-2.415,6.066-3.114,8.792-1.909s4.724,3.6,6.512,5.981,3.528,4.9,6,6.565,5.935,2.261,8.4.589a7.223,7.223,0,0,0,2.855-4.943,16.447,16.447,0,0,0-.393-5.829c-.59-2.8-1.553-5.731-3.8-7.512-2.5-1.985-5.97-2.079-9.161-1.975a34.307,34.307,0,0,0-10.814,1.664c-3.436,1.27-6.943,4.01-8.4,7.37" transform="translate(-369.359 -356.134)" fill="#89c5cc"/></g><g transform="translate(288.671 310.401)"><path d="M406.854,407.617a.527.527,0,0,1-.018-.147l-.022-.431c-.014-.4-.034-.957-.058-1.659-.042-1.466-.1-3.544-.175-6.1-.081-2.576-.186-5.642-.372-9.043s-.443-7.139-.958-11.03a35.53,35.53,0,0,0-1.108-5.6,29.124,29.124,0,0,0-2.048-4.9,28.3,28.3,0,0,0-2.585-4.057,26.45,26.45,0,0,0-2.822-3.1,20.773,20.773,0,0,0-5-3.411c-.327-.149-.611-.3-.867-.4l-.653-.254-.4-.161a.075.075,0,1,1,.01-.03l.411.135.666.227c.261.1.551.235.883.377a20.017,20.017,0,0,1,5.1,3.36,26.13,26.13,0,0,1,2.876,3.1,28.048,28.048,0,0,1,2.632,4.08,29.03,29.03,0,0,1,2.085,4.944,35.329,35.329,0,0,1,1.123,5.648c.518,3.907.762,7.651.938,11.056s.254,6.474.308,9.052.073,4.663.081,6.1c0,.7,0,1.257,0,1.66,0,.175-.005.317-.007.431A.538.538,0,0,1,406.854,407.617Z" transform="translate(-389.63 -357.255)" fill="#263238"/></g><g transform="translate(307.128 290.024)"><path d="M418.747,400.164a19.24,19.24,0,0,1-.733-2.871,30.137,30.137,0,0,1-.306-8.065,53.612,53.612,0,0,1,2.547-11.7c1.372-4.3,3.234-8.9,4.826-13.843A63.588,63.588,0,0,0,427,356.359a65.156,65.156,0,0,0,.948-6.989,102.206,102.206,0,0,0,.213-11.951c-.116-3.4-.3-6.157-.41-8.06-.055-.937-.1-1.671-.129-2.191-.011-.238-.02-.426-.026-.571a.934.934,0,0,1,0-.195.918.918,0,0,1,.03.193c.014.143.032.332.056.568.044.519.106,1.252.185,2.188.149,1.9.362,4.652.5,8.06a98.585,98.585,0,0,1-.15,11.981,64.265,64.265,0,0,1-.935,7.022,62.918,62.918,0,0,1-1.922,7.359c-1.6,4.96-3.466,9.553-4.848,13.837a54.462,54.462,0,0,0-2.6,11.637,31.131,31.131,0,0,0,.211,8.026c.164.937.314,1.661.447,2.145.056.231.1.414.135.554A.968.968,0,0,1,418.747,400.164Z" transform="translate(-417.574 -326.403)" fill="#263238"/></g><g transform="translate(292.769 360.764)"><path d="M427.938,439.547H396.55l-.717-6.041h32.1Z" transform="translate(-395.834 -433.505)" fill="#455a64"/></g><g transform="translate(296.854 366.117)"><path d="M402.018,441.611l3.924,18.124H423l3.672-18.124Z" transform="translate(-402.018 -441.611)" fill="#455a64"/></g><g transform="translate(294.049 366.606)"><path d="M428.6,442.55c0,.083-6.9.13-15.412.106s-15.413-.11-15.412-.193,6.9-.13,15.413-.106S428.6,442.467,428.6,442.55Z" transform="translate(-397.772 -442.351)" fill="#455a64"/></g><g transform="translate(298.668 373.209)"><path d="M425.583,454.89a12.957,12.957,0,0,0-2.764-1.585,9.778,9.778,0,0,0-3.361-.675,11.829,11.829,0,0,0-4.133.759c-1.431.483-2.767,1.046-4.068,1.357a9.678,9.678,0,0,1-3.516.106,7.229,7.229,0,0,1-2.26-.715,4.437,4.437,0,0,1-.545-.346c-.118-.089-.176-.139-.17-.147.017-.024.268.155.767.389a7.916,7.916,0,0,0,2.238.611,9.869,9.869,0,0,0,3.425-.166c1.256-.314,2.592-.883,4.034-1.371a11.731,11.731,0,0,1,4.236-.75,9.6,9.6,0,0,1,3.434.754,8.909,8.909,0,0,1,2.046,1.193,5.3,5.3,0,0,1,.487.421C425.538,454.825,425.59,454.882,425.583,454.89Z" transform="translate(-404.766 -452.348)" fill="#263238"/></g><g transform="translate(299.148 374.448)"><path d="M425.592,456.737a13.6,13.6,0,0,0-2.655-1.563,9,9,0,0,0-3.241-.668,11.678,11.678,0,0,0-4,.719c-1.383.462-2.68,1-3.92,1.332a10.059,10.059,0,0,1-3.378.379,5.721,5.721,0,0,1-2.215-.592,3.958,3.958,0,0,1-.528-.334c-.114-.086-.17-.135-.164-.143.017-.024.259.151.742.372a6.088,6.088,0,0,0,2.177.487,10.322,10.322,0,0,0,3.292-.434c1.213-.341,2.5-.882,3.9-1.35a11.581,11.581,0,0,1,4.1-.711,8.884,8.884,0,0,1,3.317.749,8.75,8.75,0,0,1,1.959,1.186,5.283,5.283,0,0,1,.468.41C425.549,456.674,425.6,456.729,425.592,456.737Z" transform="translate(-405.493 -454.224)" fill="#fff"/></g><g transform="translate(298.33 371.752)"><path d="M425.721,452.939a14.858,14.858,0,0,0-2.839-1.673,10.444,10.444,0,0,0-3.445-.828,11.138,11.138,0,0,0-4.264.752,38.329,38.329,0,0,1-4.212,1.375,10.72,10.72,0,0,1-3.631.007,8.159,8.159,0,0,1-2.332-.738,4.325,4.325,0,0,1-.566-.351c-.122-.091-.183-.143-.177-.151.017-.024.276.161.794.4a8.954,8.954,0,0,0,2.314.634,10.946,10.946,0,0,0,3.546-.067,42.432,42.432,0,0,0,4.168-1.388,11.114,11.114,0,0,1,4.377-.743,10.557,10.557,0,0,1,5.608,2.17,5.735,5.735,0,0,1,.5.434C425.674,452.872,425.727,452.931,425.721,452.939Z" transform="translate(-404.254 -450.142)" fill="#fff"/></g><g transform="translate(293.612 366.682)"><path d="M428.649,442.615c0,.083-7.061.149-15.768.149s-15.77-.067-15.77-.149,7.059-.15,15.77-.15S428.649,442.532,428.649,442.615Z" transform="translate(-397.111 -442.465)" fill="#263238"/></g><g transform="translate(84.23 343.191)"><path d="M81.166,423.645c1.129,1.612,3.323,1.079,4.34.094a8.193,8.193,0,0,0,1.839-3.771c.894-3.108,1.8-6.368,1.131-9.533a5.3,5.3,0,0,0-1.218-2.592,2.766,2.766,0,0,0-2.621-.873,4.05,4.05,0,0,0-2.291,2.407A22.725,22.725,0,0,0,80.1,419.13a7.881,7.881,0,0,0,1.065,4.515" transform="translate(-80.101 -406.9)" fill="#69a1ac"/></g><g transform="translate(87.312 367.192)"><path d="M86.98,444.147a9.783,9.783,0,0,1,6.069-.738,5.047,5.047,0,0,1,3,1.339,2.158,2.158,0,0,1,.031,2.993,2.877,2.877,0,0,1-1.89.48c-1.6-.018-3.385-.3-4.667.664-.731.55-1.218,1.466-2.092,1.737a2.067,2.067,0,0,1-2.274-1.012A3.534,3.534,0,0,1,84.9,447,3.98,3.98,0,0,1,86.98,444.147Z" transform="translate(-84.766 -443.238)" fill="#89c5cc"/></g><g transform="translate(69.194 348.379)"><path d="M70.338,428.625a5.866,5.866,0,0,0,.913-5.4,10.406,10.406,0,0,0-3.2-4.639,17.211,17.211,0,0,0-5.726-3.378,6.1,6.1,0,0,0-2.575-.437,2.7,2.7,0,0,0-2.161,1.307c-.6,1.149-.025,2.544.6,3.681a43.692,43.692,0,0,0,3.761,5.727,10.188,10.188,0,0,0,4.137,3.544c1.718.657,3.5.579,4.413-.612" transform="translate(-57.337 -414.755)" fill="#89c5cc"/></g><g transform="translate(85.198 369.431)"><path d="M81.588,461.454a3.49,3.49,0,0,0,.1-.733c.052-.533.117-1.2.195-2a28.826,28.826,0,0,1,.45-2.933,22.658,22.658,0,0,1,1.065-3.462,12.771,12.771,0,0,1,1.768-3.132,6.6,6.6,0,0,1,2.234-1.857,6.239,6.239,0,0,1,1.882-.587,3.528,3.528,0,0,0,.729-.105,3.4,3.4,0,0,0-.742-.012,5.705,5.705,0,0,0-1.962.511,6.6,6.6,0,0,0-2.357,1.874,12.457,12.457,0,0,0-1.832,3.2,21.168,21.168,0,0,0-1.058,3.518,24.843,24.843,0,0,0-.39,2.97c-.063.849-.087,1.537-.1,2.012A3.369,3.369,0,0,0,81.588,461.454Z" transform="translate(-81.567 -446.628)" fill="#263238"/></g><g transform="translate(85.198 349.669)"><path d="M81.726,449.758a1.426,1.426,0,0,0,.02-.34c0-.256,0-.577,0-.972,0-.843,0-2.064.044-3.572.075-3.015.334-7.178.836-11.752s1.174-8.693,1.785-11.646c.144-.74.289-1.406.426-1.989s.242-1.089.349-1.5c.092-.384.168-.7.227-.945a1.445,1.445,0,0,0,.059-.335,1.468,1.468,0,0,0-.118.319c-.074.244-.168.553-.282.931-.125.4-.254.9-.4,1.487s-.312,1.246-.471,1.985a110.328,110.328,0,0,0-1.876,11.657c-.5,4.585-.729,8.759-.749,11.782-.018,1.511.014,2.735.053,3.579.024.395.044.716.059.972A1.409,1.409,0,0,0,81.726,449.758Z" transform="translate(-81.567 -416.708)" fill="#263238"/></g><g transform="translate(74.607 352.131)"><path d="M76.3,442.972a6.558,6.558,0,0,0-.007-1.015c-.038-.653-.127-1.6-.311-2.751a36.207,36.207,0,0,0-.895-4.009,35.621,35.621,0,0,0-1.676-4.743,25.3,25.3,0,0,0-4.923-7.665,12.59,12.59,0,0,0-1.159-1.077c-.178-.15-.334-.3-.495-.419l-.449-.309a6.472,6.472,0,0,0-.855-.548,30.277,30.277,0,0,1,2.8,2.5,26.629,26.629,0,0,1,4.8,7.637,37.823,37.823,0,0,1,1.686,4.7c.439,1.473.731,2.828.952,3.969s.331,2.077.4,2.724A6.5,6.5,0,0,0,76.3,442.972Z" transform="translate(-65.532 -420.435)" fill="#263238"/></g><g transform="translate(163.646 107.723)"><path d="M219.46,50.4a1.675,1.675,0,0,1,.337-.008l.989.025a10.261,10.261,0,0,1,1.6.159c.315.049.658.081,1.017.155l1.139.281A18.975,18.975,0,0,1,238.536,68.34a18.878,18.878,0,0,1-2.6,10.716,19.21,19.21,0,0,1-9.179,7.987,18.821,18.821,0,0,1-6.366,1.4,18.241,18.241,0,0,1-6.66-.829l-.2-.063h.157l-11.131,3.855-.452.157.143-.457c1-3.2,1.963-6.3,2.888-9.271l.048.223a19.035,19.035,0,0,1-4.466-16.482,18.738,18.738,0,0,1,2.872-6.859,19.23,19.23,0,0,1,4.407-4.6,20.477,20.477,0,0,1,2.308-1.5,21.488,21.488,0,0,1,2.218-1.006,15.1,15.1,0,0,1,2-.637,12.452,12.452,0,0,1,1.717-.359c.521-.069.98-.147,1.379-.182l1.013-.032.618-.012a.827.827,0,0,1,.209.009.841.841,0,0,1-.209.03l-.616.051-1.005.069c-.4.047-.85.137-1.365.217a12.7,12.7,0,0,0-1.693.391,15.236,15.236,0,0,0-1.971.662,21.584,21.584,0,0,0-2.176,1.022,20.572,20.572,0,0,0-2.26,1.5,19.091,19.091,0,0,0-4.294,4.56,18.476,18.476,0,0,0-2.772,6.745,18.666,18.666,0,0,0,4.427,16.1l.087.1-.038.125-2.87,9.277-.31-.3,11.128-3.864.077-.026.081.025.193.061a17.772,17.772,0,0,0,6.488.809,18.352,18.352,0,0,0,6.207-1.359,18.781,18.781,0,0,0,8.972-7.772A18.809,18.809,0,0,0,229.886,53.7a18.835,18.835,0,0,0-5.394-2.5l-1.122-.3c-.354-.082-.694-.12-1-.177a11,11,0,0,0-1.586-.2l-.983-.074A1.761,1.761,0,0,1,219.46,50.4Z" transform="translate(-200.34 -50.395)" fill="#7ba9d8"/></g><g transform="translate(171.577 119.458)"><path d="M212.347,76.739l2.928-2.928,5.647,5.02,11.086-10.667,2.719,2.928L220.5,84.478Z" transform="translate(-212.347 -68.163)" fill="#2b44ff"/></g></g></svg>