<svg xmlns="http://www.w3.org/2000/svg" xmlns:xlink="http://www.w3.org/1999/xlink" version="1.1" x="0px" y="0px" viewBox="0 0 100 100" style="enable-background:new 0 0 100 100;" xml:space="preserve"><style type="text/css">
	.st0{fill:none;stroke:#000000;stroke-width:2;stroke-linecap:round;stroke-linejoin:round;stroke-miterlimit:10;}
	.st1{fill:none;stroke:#000000;stroke-width:2;stroke-miterlimit:10;}
	.st2{fill:none;stroke:#000000;stroke-width:2;stroke-linecap:round;stroke-miterlimit:10;}
	.st3{stroke:#000000;stroke-width:0.25;stroke-linecap:round;stroke-linejoin:round;stroke-miterlimit:10;}
	.st4{stroke:#000000;stroke-width:0.5;stroke-linecap:round;stroke-linejoin:round;stroke-miterlimit:10;}
</style><path fill="rgb(82,103,255)" d="M27.598,77.497c0.017,0.016,0.025,0.04,0.044,0.056c1.296,1.058,2.664,2.015,4.085,2.876  c0.015,0.009,0.03,0.018,0.045,0.027c0.433,0.261,0.87,0.513,1.313,0.756c0.153,0.084,0.307,0.165,0.461,0.247  c0.301,0.159,0.603,0.315,0.908,0.466c0.242,0.12,0.486,0.237,0.731,0.352c0.209,0.097,0.418,0.192,0.629,0.285  c0.319,0.142,0.639,0.281,0.963,0.414c0.114,0.047,0.229,0.09,0.344,0.136c2.196,0.874,4.497,1.537,6.88,1.966  c0.133,0.024,0.265,0.049,0.398,0.071c0.36,0.061,0.722,0.115,1.086,0.165c0.216,0.03,0.431,0.057,0.648,0.083  c0.309,0.037,0.618,0.072,0.929,0.101c0.307,0.029,0.615,0.05,0.924,0.07c0.238,0.016,0.475,0.035,0.714,0.046  c0.563,0.027,1.127,0.043,1.692,0.043c0.565,0,1.129-0.016,1.692-0.043c0.239-0.011,0.476-0.031,0.714-0.047  c0.308-0.021,0.616-0.042,0.922-0.07c0.312-0.029,0.621-0.064,0.93-0.101c0.215-0.026,0.431-0.053,0.645-0.082  c0.365-0.05,0.727-0.105,1.088-0.165c0.132-0.022,0.263-0.047,0.394-0.071c2.386-0.429,4.689-1.093,6.888-1.969  c0.112-0.044,0.224-0.087,0.335-0.132c0.326-0.133,0.648-0.273,0.969-0.416c0.208-0.092,0.416-0.186,0.623-0.282  c0.247-0.115,0.492-0.233,0.736-0.354c0.304-0.15,0.605-0.305,0.904-0.464c0.155-0.082,0.31-0.163,0.463-0.247  c0.443-0.243,0.881-0.495,1.314-0.756c0.015-0.009,0.03-0.017,0.044-0.026c1.422-0.861,2.789-1.818,4.085-2.876  c0.025-0.021,0.045-0.05,0.068-0.075C81.25,70.87,86.39,60.852,86.39,49.654c0-19.851-16.149-36-36-36s-36,16.149-36,36  C14.39,60.863,19.541,70.89,27.598,77.497z M66.629,79.519c-0.105,0.057-0.213,0.11-0.319,0.166c-0.324,0.172-0.65,0.34-0.98,0.502  c-0.247,0.121-0.497,0.236-0.747,0.351c-0.186,0.086-0.373,0.172-0.562,0.254c-0.315,0.138-0.631,0.271-0.95,0.399  c-0.115,0.046-0.231,0.092-0.346,0.137c-0.371,0.144-0.743,0.285-1.119,0.416c-0.036,0.013-0.073,0.024-0.109,0.037  c-1.691,0.585-3.43,1.035-5.196,1.348c-0.107,0.019-0.214,0.04-0.321,0.057c-0.335,0.056-0.672,0.104-1.01,0.15  c-0.203,0.027-0.405,0.054-0.609,0.078c-0.285,0.034-0.57,0.064-0.855,0.091c-0.29,0.026-0.581,0.047-0.872,0.067  c-0.22,0.015-0.439,0.032-0.659,0.042c-0.524,0.024-1.05,0.04-1.58,0.04c-0.002,0-0.004,0-0.006,0c-0.532,0-1.06-0.016-1.586-0.04  c-0.218-0.01-0.434-0.027-0.652-0.042c-0.295-0.019-0.59-0.041-0.883-0.067c-0.282-0.026-0.564-0.056-0.845-0.09  c-0.209-0.024-0.416-0.051-0.624-0.08c-0.333-0.046-0.665-0.093-0.996-0.148c-0.115-0.019-0.228-0.041-0.342-0.061  c-1.752-0.311-3.476-0.757-5.154-1.336c-0.049-0.017-0.099-0.033-0.149-0.05c-0.365-0.128-0.727-0.264-1.087-0.404  c-0.128-0.05-0.256-0.1-0.383-0.151c-0.308-0.124-0.615-0.253-0.919-0.386c-0.2-0.088-0.399-0.179-0.597-0.27  c-0.239-0.11-0.478-0.22-0.714-0.336c-0.344-0.169-0.685-0.344-1.022-0.524c-0.093-0.049-0.188-0.096-0.28-0.146  c-1.725-0.941-3.355-2.034-4.883-3.25c0.168-11.503,9.576-20.81,21.118-20.81c11.522,0,20.917,9.273,21.115,20.812  C69.979,77.487,68.352,78.578,66.629,79.519z M50.391,15.654c18.747,0,33.999,15.252,33.999,34c0,9.868-4.229,18.764-10.966,24.981  c-0.827-9.863-7.867-17.986-17.188-20.423c5.046-2.248,8.578-7.302,8.578-13.173c0-7.953-6.471-14.424-14.424-14.424  s-14.423,6.471-14.423,14.424c0,5.871,3.531,10.925,8.577,13.173c-9.32,2.437-16.36,10.56-17.187,20.424  C20.62,68.419,16.39,59.523,16.39,49.654C16.39,30.906,31.643,15.654,50.391,15.654z M50.39,53.462  c-6.85,0-12.423-5.573-12.423-12.423c0-6.851,5.573-12.424,12.423-12.424c6.851,0,12.424,5.573,12.424,12.424  C62.814,47.889,57.241,53.462,50.39,53.462z"/></svg>