<svg xmlns="http://www.w3.org/2000/svg" xmlns:xlink="http://www.w3.org/1999/xlink" version="1.1" x="0px" y="0px" viewBox="0 0 64 64" style="enable-background:new 0 0 64 64;" xml:space="preserve"><g><path fill="rgb(82, 103, 255, 1)" stroke="rgb(82, 103, 255, 1)" d="M62,15h-1.506c-0.387-1.501-0.992-2.932-1.808-4.273l1.021-1.02c0.391-0.391,0.391-1.023,0-1.414l-4-4   c-0.391-0.391-1.023-0.391-1.414,0l-1.021,1.02C51.932,4.498,50.5,3.892,49,3.505V2c0-0.552-0.447-1-1-1h-6c-0.553,0-1,0.448-1,1   v1.505c-1.51,0.388-2.942,0.992-4.278,1.802l-1.015-1.014c-0.391-0.391-1.023-0.391-1.414,0l-4,4c-0.391,0.391-0.391,1.023,0,1.414   l1.015,1.015c-0.334,0.551-0.625,1.122-0.888,1.705C29.306,12.147,28.161,12,27,12h-5c-7.645,0-13.877,6.158-13.998,13.774   L1.094,40.577c-0.145,0.31-0.121,0.672,0.062,0.96C1.34,41.826,1.658,42,2,42h6v12c0,0.552,0.447,1,1,1h10v8h2v-9   c0-0.552-0.447-1-1-1H10V41c0-0.552-0.447-1-1-1H3.57l6.336-13.577C9.968,26.291,10,26.146,10,26c0-6.617,5.383-12,12-12h5   c0.919,0,1.826,0.106,2.71,0.31c-0.07,0.229-0.145,0.457-0.205,0.69H28c-0.553,0-1,0.448-1,1v6c0,0.552,0.447,1,1,1h1.506   c0.176,0.681,0.41,1.346,0.677,2H25v-2c0-0.265-0.105-0.52-0.293-0.707l-1.399-1.399C23.734,20.375,24,19.722,24,19   c0-1.654-1.346-3-3-3s-3,1.346-3,3s1.346,3,3,3c0.182,0,0.359-0.023,0.532-0.054L23,23.414V25h-1c-0.553,0-1,0.448-1,1v3h-0.586   l-1.468-1.468C18.977,27.359,19,27.182,19,27c0-1.654-1.346-3-3-3s-3,1.346-3,3s1.346,3,3,3c0.722,0,1.375-0.266,1.894-0.692   l1.399,1.399C19.48,30.895,19.734,31,20,31h1v2h-6c0-1.654-1.346-3-3-3s-3,1.346-3,3s1.346,3,3,3c0.883,0,1.67-0.391,2.22-1H21v2   h-3c-0.266,0-0.52,0.105-0.707,0.293l-1.008,1.008C15.894,38.113,15.462,38,15,38c-1.654,0-3,1.346-3,3s1.346,3,3,3s3-1.346,3-3   c0-0.462-0.113-0.894-0.301-1.285L18.414,39H21v1c0,0.552,0.447,1,1,1h2v0.586l-1.468,1.468C22.359,43.023,22.182,43,22,43   c-1.654,0-3,1.346-3,3s1.346,3,3,3s3-1.346,3-3c0-0.722-0.266-1.375-0.692-1.894l1.399-1.399C25.895,42.52,26,42.265,26,42v-1h2   v6.184c-1.161,0.414-2,1.514-2,2.816c0,1.654,1.346,3,3,3s3-1.346,3-3c0-1.302-0.839-2.402-2-2.816V41h2v3   c0,0.265,0.105,0.52,0.293,0.707l1.008,1.008C33.113,46.106,33,46.538,33,47c0,1.12,0.625,2.088,1.537,2.603l-0.447,0.983   C34.03,50.716,34,50.857,34,51v12h2V51.217l0.58-1.275C37.957,49.67,39,48.456,39,47c0-1.654-1.346-3-3-3   c-0.462,0-0.894,0.113-1.285,0.301L34,43.586V41h2h5.586l0.715,0.715C42.113,42.106,42,42.538,42,43c0,1.654,1.346,3,3,3   s3-1.346,3-3s-1.346-3-3-3c-0.462,0-0.894,0.113-1.285,0.301l-1.008-1.008C42.52,39.105,42.266,39,42,39h-5v-6.161   c1.263,0.735,2.6,1.294,4,1.655V36c0,0.552,0.447,1,1,1h6c0.553,0,1-0.448,1-1v-1.505c1.51-0.388,2.942-0.992,4.278-1.802   l1.015,1.014c0.391,0.391,1.023,0.391,1.414,0l4-4c0.391-0.391,0.391-1.023,0-1.414l-1.015-1.015   c0.811-1.334,1.414-2.768,1.803-4.278H62c0.553,0,1-0.448,1-1v-6C63,15.448,62.553,15,62,15z M20,19c0-0.551,0.448-1,1-1   s1,0.449,1,1s-0.448,1-1,1S20,19.551,20,19z M16,28c-0.552,0-1-0.449-1-1s0.448-1,1-1s1,0.449,1,1S16.552,28,16,28z M12,34   c-0.552,0-1-0.449-1-1s0.448-1,1-1s1,0.449,1,1S12.552,34,12,34z M15,42c-0.552,0-1-0.449-1-1s0.448-1,1-1s1,0.449,1,1   S15.552,42,15,42z M22,47c-0.552,0-1-0.449-1-1s0.448-1,1-1s1,0.449,1,1S22.552,47,22,47z M29,51c-0.552,0-1-0.449-1-1s0.448-1,1-1   s1,0.449,1,1S29.552,51,29,51z M37,47c0,0.551-0.448,1-1,1s-1-0.449-1-1s0.448-1,1-1S37,46.449,37,47z M46,43c0,0.551-0.448,1-1,1   s-1-0.449-1-1s0.448-1,1-1S46,42.449,46,43z M35,39H23V27h12V39z M61,21h-1.301c-0.476,0-0.885,0.335-0.979,0.801   c-0.37,1.816-1.087,3.517-2.131,5.053c-0.27,0.397-0.22,0.93,0.12,1.269L57.586,29L55,31.586l-0.877-0.877   c-0.34-0.34-0.872-0.39-1.269-0.12c-1.538,1.044-3.238,1.761-5.054,2.13C47.335,32.813,47,33.223,47,33.699V35h-4v-1.301   c0-0.476-0.335-0.885-0.801-0.98c-1.8-0.365-3.498-1.083-5.048-2.136c-0.047-0.032-0.101-0.045-0.151-0.068V26c0-0.552-0.447-1-1-1   h-3.636c-0.49-1.024-0.859-2.095-1.084-3.199C31.187,21.335,30.776,21,30.301,21H29v-4h1.301c0.476,0,0.885-0.335,0.979-0.801   c0.37-1.816,1.087-3.517,2.131-5.053c0.27-0.397,0.22-0.93-0.12-1.269L32.414,9L35,6.414l0.877,0.877   c0.34,0.34,0.872,0.39,1.269,0.12c1.538-1.044,3.238-1.761,5.054-2.13C42.665,5.187,43,4.777,43,4.301V3h4v1.301   c0,0.476,0.335,0.885,0.801,0.98c1.8,0.365,3.498,1.083,5.048,2.136c0.397,0.271,0.93,0.22,1.269-0.12L55,6.414L57.586,9   l-0.883,0.883c-0.34,0.339-0.39,0.872-0.12,1.269c1.051,1.549,1.77,3.247,2.137,5.048C58.814,16.665,59.224,17,59.699,17H61V21z"/><path fill="rgb(82, 103, 255, 1)" stroke="rgb(82, 103, 255, 1)" d="M45,7c-6.617,0-12,5.383-12,12h2c0-5.514,4.486-10,10-10s10,4.486,10,10s-4.486,10-10,10v2c6.617,0,12-5.383,12-12   S51.617,7,45,7z"/><path fill="rgb(82, 103, 255, 1)" stroke="rgb(82, 103, 255, 1)" d="M53,19c0-4.411-3.589-8-8-8s-8,3.589-8,8s3.589,8,8,8S53,23.411,53,19z M39.09,20H41v-2h-1.91   c0.423-2.507,2.403-4.486,4.91-4.91V15h2v-1.91c2.507,0.423,4.486,2.403,4.91,4.91H49v2h1.91c-0.423,2.507-2.403,4.486-4.91,4.91   V23h-2v1.91C41.493,24.486,39.514,22.507,39.09,20z"/><path fill="rgb(82, 103, 255, 1)" stroke="rgb(82, 103, 255, 1)" d="M26,37h6c0.553,0,1-0.448,1-1v-6c0-0.552-0.447-1-1-1h-6c-0.553,0-1,0.448-1,1v6C25,36.552,25.447,37,26,37z M27,31h4v4h-4   V31z"/></g></svg>