<svg xmlns="http://www.w3.org/2000/svg" xmlns:ooo="http://xml.openoffice.org/svg/export" xmlns:xlink="http://www.w3.org/1999/xlink" xmlns:presentation="http://sun.com/xmlns/staroffice/presentation" xmlns:smil="http://www.w3.org/2001/SMIL20/" xmlns:anim="urn:oasis:names:tc:opendocument:xmlns:animation:1.0" version="1.2" viewBox="0 0 2540 2540" preserveAspectRatio="xMidYMid" fill-rule="evenodd" stroke-width="28.222" stroke-linejoin="round" xml:space="preserve" x="0px" y="0px"><defs class="ClipPathGroup"><clipPath id="a" clipPathUnits="userSpaceOnUse"><rect x="0" y="0" width="2540" height="2540"/></clipPath></defs><g class="SlideGroup"><g><g><g class="Slide" clip-path="url(#a)"><g class="Page"><g class="com.sun.star.drawing.ClosedBezierShape"><g><rect class="BoundingBox" stroke="none" fill="none" x="92" y="95" width="2363" height="2363"/><path fill="rgb(82,103,255)" stroke="none" d="M 1739,185 C 1882,244 2008,329 2114,435 2220,541 2305,667 2364,810 2422,952 2454,1109 2454,1276 2454,1443 2422,1600 2364,1742 2305,1885 2220,2011 2114,2117 2008,2223 1882,2308 1739,2367 1597,2425 1440,2457 1273,2457 1106,2457 949,2425 807,2367 664,2308 538,2223 432,2117 326,2011 241,1885 182,1742 124,1600 92,1443 92,1276 92,1109 124,952 182,810 241,667 326,541 432,435 538,329 664,244 807,185 949,127 1106,95 1273,95 1440,95 1597,127 1739,185 Z M 1711,2296 C 1843,2242 1962,2162 2061,2064 2159,1965 2239,1846 2293,1714 2348,1580 2378,1433 2378,1276 2378,1119 2348,972 2293,838 2239,706 2159,587 2061,488 1962,390 1843,310 1711,256 1577,201 1430,171 1273,171 1116,171 969,201 835,256 703,310 584,390 485,488 387,587 307,706 253,838 198,972 168,1119 168,1276 168,1433 198,1580 253,1714 307,1846 387,1965 485,2064 584,2162 703,2242 835,2296 969,2351 1116,2381 1273,2381 1430,2381 1577,2351 1711,2296 Z"/></g></g><g class="com.sun.star.drawing.ClosedBezierShape"><g><rect class="BoundingBox" stroke="none" fill="none" x="577" y="721" width="1388" height="1068"/><path fill="rgb(82,103,255)" stroke="none" d="M 1075,798 C 1073,798 1071,799 1069,800 1064,802 1060,805 1056,808 1053,812 1050,816 1048,821 1047,823 1046,825 1046,827 1045,829 1045,830 1045,832 L 1045,871 1495,871 1495,832 C 1495,830 1495,829 1494,827 1494,825 1493,823 1492,821 1490,817 1487,812 1483,809 1479,805 1475,802 1470,800 1468,799 1466,798 1464,798 1462,797 1461,797 1459,797 L 1080,797 C 1078,797 1077,797 1075,798 Z M 969,832 C 969,824 970,817 972,810 973,803 976,796 979,789 984,776 993,765 1003,755 1013,745 1024,736 1037,731 1044,728 1051,725 1058,724 1065,722 1072,721 1080,721 L 1459,721 C 1467,721 1474,722 1481,724 1488,725 1495,728 1502,731 1515,736 1526,745 1536,755 1547,764 1555,776 1561,789 1564,795 1567,802 1568,809 1570,817 1571,824 1571,832 L 1571,871 1847,871 C 1905,871 1964,929 1964,987 L 1964,1092 1357,1291 C 1353,1289 1349,1288 1346,1287 1342,1286 1337,1286 1333,1286 L 1207,1286 C 1203,1286 1198,1286 1194,1287 1191,1288 1187,1289 1184,1290 L 577,1092 577,987 C 577,929 635,871 693,871 L 969,871 969,832 Z M 1206,1337 L 1207,1337 1333,1337 1334,1337 C 1335,1337 1336,1337 1337,1337 1338,1338 1340,1339 1341,1341 1343,1342 1344,1344 1345,1345 1345,1346 1345,1346 1345,1347 L 1346,1348 1346,1391 1345,1392 C 1345,1393 1345,1394 1345,1394 1344,1396 1343,1398 1341,1399 1340,1401 1338,1402 1336,1403 1336,1403 1335,1403 1334,1403 L 1333,1404 1207,1404 1206,1403 C 1205,1403 1204,1403 1204,1403 1202,1402 1200,1401 1199,1399 1197,1398 1196,1396 1195,1394 1195,1394 1195,1393 1195,1392 L 1195,1391 1195,1348 1195,1347 C 1195,1346 1195,1346 1195,1345 1196,1344 1197,1342 1199,1341 1200,1339 1202,1338 1203,1337 1204,1337 1205,1337 1206,1337 Z M 1395,1335 C 1395,1334 1394,1333 1394,1332 L 1964,1145 1964,1671 C 1964,1729 1905,1788 1847,1788 L 693,1788 C 635,1788 577,1729 577,1671 L 577,1145 1146,1332 C 1146,1333 1145,1334 1145,1335 1144,1339 1144,1344 1144,1348 L 1144,1391 C 1144,1395 1144,1400 1145,1404 1146,1408 1147,1412 1149,1416 1152,1423 1157,1429 1163,1435 1169,1441 1175,1446 1182,1449 1186,1451 1190,1452 1194,1453 1198,1454 1203,1455 1207,1455 L 1333,1455 C 1337,1455 1342,1454 1346,1453 1350,1452 1354,1451 1358,1449 1365,1446 1371,1441 1377,1435 1383,1429 1388,1423 1391,1416 1393,1412 1394,1408 1395,1404 1396,1400 1397,1395 1397,1391 L 1397,1348 C 1397,1344 1396,1339 1395,1335 Z"/></g></g></g></g></g></g></g></svg>