<svg xmlns="http://www.w3.org/2000/svg" width="22.68" height="25.315" viewBox="0 0 13 10.873" borderRadius="20px">
    <g>
        <g>
            <path fill="none" stroke="#5556f7" stroke-linejoin="round" d="M5.667 13a.668.668 0 0 0-.667.667v6.667a.668.668 0 0 0 .667.666h.8v1.733a.133.133 0 0 0 .2.113L9.571 21h6.762a.668.668 0 0 0 .667-.667v-6.666a.668.668 0 0 0-.667-.667zm0 .267h10.666a.4.4 0 0 1 .4.4v6.667a.4.4 0 0 1-.4.4h-6.8a.133.133 0 0 0-.071.021l-2.729 1.737v-1.625a.133.133 0 0 0-.133-.133h-.933a.4.4 0 0 1-.4-.4v-6.667a.4.4 0 0 1 .4-.4zm4.654 5.013c-.035 0 .134-.027.112 0l-.112.287v-.287h.112c-.035-.036.048.26 0 .275s0-.275 0-.275l.709.287c.055.048-.048-.233 0-.287h-.822c.039-.041.141.344.112.275s-.055-.283-.111-.276z" transform="translate(-3.5 -12.5) translate(4 13) translate(-5 -13)"/>
        </g>
    </g>
</svg>
