<svg xmlns="http://www.w3.org/2000/svg" width="310" height="276.033" viewBox="0 0 310 276.033"><g transform="translate(-0.333 0)"><path d="M818.225,452.945A242.447,242.447,0,0,1,797.605,498.2c-.192.328-.385.65-.581.977l-21.38-6.764c.123-.31.258-.656.4-1.034,8.624-22.3,60.652-158.179,58.317-184.969C834.614,308.6,842.753,381.175,818.225,452.945Z" transform="translate(-551.239 -224.848)" fill="#e6e6e6"/><path d="M815.86,650.272c-.291.3-.589.592-.889.88l-16.039-5.074c.217-.262.469-.571.76-.921,4.75-5.8,18.873-23.17,32.663-41.445,14.82-19.639,29.259-40.321,31.282-48.819C863.231,556.825,850.575,615.654,815.86,650.272Z" transform="translate(-565.369 -375.615)" fill="#e6e6e6"/><path d="M651.105,147.418l-.018,0V113.039A14.035,14.035,0,0,0,637.053,99H529.412a14.035,14.035,0,0,0-14.035,14.035v17.626a1.137,1.137,0,0,0-1.113,1.136v8.73a1.137,1.137,0,0,0,1.113,1.136v9.146h-.057a1.138,1.138,0,0,0-1.138,1.139v16.882a1.138,1.138,0,0,0,1.138,1.138h.057v6.705h-.018a1.138,1.138,0,0,0-1.138,1.138v17.047A1.138,1.138,0,0,0,515.36,196h.018V360.782a14.035,14.035,0,0,0,14.035,14.035h107.64a14.035,14.035,0,0,0,14.035-14.035V180.851l.018,0a2.027,2.027,0,0,0,2.027-2.027v-29.38a2.027,2.027,0,0,0-2.027-2.027Z" transform="translate(-392.596 -99.004)" fill="#3f3d56"/><path d="M657.482,128.053V367.935A10.779,10.779,0,0,1,646.7,378.71H549.311a10.779,10.779,0,0,1-10.779-10.775V128.053a10.779,10.779,0,0,1,10.779-10.779h14.574v1.892a8.88,8.88,0,0,0,8.876,8.876H622.31a8.876,8.876,0,0,0,8.856-8.876v-1.872H646.7a10.779,10.779,0,0,1,10.779,10.759Z" transform="translate(-407.371 -110.089)" fill="#fff"/><path d="M377.112,440.846a4.225,4.225,0,0,0-5.672,3.13l-34.706,18.871,6.1,6.868,32.231-20.685a4.247,4.247,0,0,0,2.045-8.184Z" transform="translate(-284.93 -306.244)" fill="#ffb8b8"/><path d="M195.256,655.444l4.325-2.8-8.731-18.012-6.383,4.128Z" transform="translate(-111.925 -385.065)" fill="#ffb8b8"/><path d="M0,0H16.187V6.254H6.02A6.02,6.02,0,0,1,0,.234V0Z" transform="translate(98.594 266.202) rotate(147.104)" fill="#2f2e41"/><path d="M88.511,658.554h5.15l2.451-19.866h-7.6Z" transform="translate(-53.704 -387.525)" fill="#ffb8b8"/><path d="M0,0H16.187V6.254H6.02A6.02,6.02,0,0,1,0,.234V0Z" transform="translate(49.89 275.812) rotate(180)" fill="#2f2e41"/><path d="M576.1,194.962H565.483a.983.983,0,1,1,0-1.966H576.1a.983.983,0,1,1,0,1.966Z" transform="translate(-423.127 -156.034)" fill="#3f3d56"/><path d="M576.1,201.962H565.483a.983.983,0,1,1,0-1.966H576.1a.983.983,0,1,1,0,1.966Z" transform="translate(-423.127 -160.281)" fill="#3f3d56"/><path d="M576.1,208.962H565.483a.983.983,0,1,1,0-1.966H576.1a.983.983,0,1,1,0,1.966Z" transform="translate(-423.127 -164.528)" fill="#3f3d56"/><path d="M794.579,197.413h-.358l-.138-.114a2.993,2.993,0,0,0,.7-1.923,2.926,2.926,0,1,0-2.91,2.942,3.04,3.04,0,0,0,1.919-.7l.134.114v.362l2.257,2.261.676-.676Zm-2.706,0a2.037,2.037,0,1,1,2.029-2.045v.008a2.025,2.025,0,0,1-2.013,2.037h-.016Z" transform="translate(-559.301 -155.712)" fill="#3f3d56"/><path d="M612.9,276.647H593.826a4.326,4.326,0,1,1,0-8.651H612.9a4.326,4.326,0,1,1,0,8.651Z" transform="translate(-438.296 -201.54)" fill="#6c63ff"/><path d="M671.3,306.715H591.859a2.359,2.359,0,1,1,0-4.719H671.3a2.359,2.359,0,1,1,0,4.719Z" transform="translate(-438.296 -222.17)" fill="#e6e6e6"/><path d="M621.039,330.715H591.859a2.359,2.359,0,1,1,0-4.719h29.179a2.359,2.359,0,1,1,0,4.719Z" transform="translate(-438.296 -236.732)" fill="#e6e6e6"/><path d="M612.9,542.647H593.826a4.326,4.326,0,0,1,0-8.651H612.9a4.326,4.326,0,1,1,0,8.651Z" transform="translate(-438.296 -362.936)" fill="#6c63ff"/><path d="M671.3,572.715H591.859a2.359,2.359,0,0,1,0-4.719H671.3a2.359,2.359,0,0,1,0,4.719Z" transform="translate(-438.296 -383.565)" fill="#e6e6e6"/><path d="M621.039,596.715H591.859a2.359,2.359,0,0,1,0-4.719h29.179a2.359,2.359,0,0,1,0,4.719Z" transform="translate(-438.296 -398.127)" fill="#e6e6e6"/><path d="M612.9,665.647H593.826a4.326,4.326,0,0,1,0-8.651H612.9a4.326,4.326,0,1,1,0,8.651Z" transform="translate(-438.296 -437.566)" fill="#6c63ff"/><path d="M671.3,695.715H591.859a2.359,2.359,0,0,1,0-4.719H671.3a2.359,2.359,0,0,1,0,4.719Z" transform="translate(-438.296 -458.196)" fill="#e6e6e6"/><path d="M621.039,719.715H591.859a2.359,2.359,0,0,1,0-4.719h29.179a2.359,2.359,0,0,1,0,4.719Z" transform="translate(-438.296 -472.758)" fill="#e6e6e6"/><path d="M586.637,419.472H434.843a3.347,3.347,0,0,1-3.343-3.343V374.839a3.346,3.346,0,0,1,3.343-3.343H586.637a3.347,3.347,0,0,1,3.343,3.343V416.13A3.347,3.347,0,0,1,586.637,419.472Z" transform="translate(-342.429 -264.339)" fill="#6c63ff"/><path d="M292.829,604.49c1.451,10.181-6.233,55.287-5.38,55.283l11.035-.059c.393-.755,5.458-25.093,7.047-29,2.218-5.419,4.456-10.9,5.329-16.693.822-5.435.417-10.972-.118-16.442a1.038,1.038,0,0,0-1.2-1.18l-14.806-.763c-3.052-.157-3.775-.826-3.311,2.171C291.744,600.046,292.507,602.224,292.829,604.49Z" transform="translate(-254.986 -400.231)" fill="#2f2e41"/><path d="M300.375,553.772c-3.008,4.326-6.162,9.3-5.163,14.483.759,3.932,3.756,6.98,6.583,9.831,11.3,11.349,33.587,61.425,33.587,61.425,10.755-6.882-.256.2,10.657-7.078-.967-.075-22.946-79.082-24.767-79.189C313.906,552.757,307.551,552.037,300.375,553.772Z" transform="translate(-259.621 -374.268)" fill="#2f2e41"/><path d="M315.947,442.156c-1.528-1.363-12.266-5.565-12.266-5.565a1.843,1.843,0,0,0-.593.018,1.279,1.279,0,0,0-.759,1.528c.131.614-.94,10.706-1.216,15.3-.484,8.009,4.233,26.152,4.192,26.707a8.289,8.289,0,0,1-2.441,5.227c.367.456,23.7,1.371,25.286,1.91.32-.406-1.807-29.184-1.9-30.81C326.08,454,317.964,444.025,315.947,442.156Z" transform="translate(-263.294 -303.825)" fill="#e6e6e6"/><path d="M287.062,515.59a4.225,4.225,0,0,0,1.511-6.3l9.844-54.481-9.186-.121-6.836,53.874a4.247,4.247,0,0,0,4.668,7.027Z" transform="translate(-251.051 -314.816)" fill="#ffb8b8"/><path d="M294.626,452.516a1.742,1.742,0,0,1-1.085-.283c-.547-.468,3.913-7.629,4.794-7.735a22.481,22.481,0,0,1,8.6.334,10.282,10.282,0,0,1,6.638,5.144c.519,1.085-3.244,6.548-4.955,5.745A67.785,67.785,0,0,0,294.626,452.516Z" transform="translate(-258.694 -308.48)" fill="#e6e6e6"/><circle cx="10.318" cy="10.318" r="10.318" transform="translate(35.732 111.542)" fill="#ffb8b8"/><path d="M276.624,397.564a8.622,8.622,0,0,0,9.078-11.3c-.411-1.235-1.1-2.366-1.473-3.612a4.025,4.025,0,0,1,.448-3.717c1.632-1.954,4.777-.725,7.293-1.113a6.268,6.268,0,0,0,4.952-5.69,8.6,8.6,0,0,0-3.293-7.1,13.926,13.926,0,0,0-7.5-2.831A20.289,20.289,0,0,0,265.3,389.929a14,14,0,0,0,5.586,7,8.682,8.682,0,0,0,8.68.282" transform="translate(-240.708 -258.643)" fill="#2f2e41"/><path d="M531.906,406.147H505.537c-1.675,0-3.037-1.94-3.037-4.326s1.362-4.326,3.037-4.326h26.369c1.675,0,3.037,1.941,3.037,4.326S533.58,406.147,531.906,406.147Z" transform="translate(-385.508 -280.114)" fill="#fff"/><path d="M602.779,436.215H504.859a2.359,2.359,0,0,1,0-4.719h97.919a2.359,2.359,0,0,1,0,4.719Z" transform="translate(-385.508 -300.744)" fill="#e6e6e6"/><path d="M552.521,460.215H504.859a2.359,2.359,0,0,1,0-4.719h47.662a2.359,2.359,0,0,1,0,4.719Z" transform="translate(-385.508 -315.306)" fill="#e6e6e6"/><rect width="310" height="1" transform="translate(0.333 275.033)" fill="#3f3d56"/></g></svg>