<svg xmlns="http://www.w3.org/2000/svg" xmlns:xlink="http://www.w3.org/1999/xlink" width="78.596" height="75.754" viewBox="0 0 78.596 75.754"><defs><style>.a,.f,.h{fill:#6c63ff;}.a,.c,.g,.o{opacity:0.1;}.b{fill:#d0d2d5;}.d{fill:#3f3d56;}.e{fill:#fff;}.g{fill:#444053;}.h{opacity:0.3;}.i{fill:#fa5959;}.i,.j,.k{opacity:0.8;}.j{fill:#fed253;}.k{fill:#8ccf4d;}.l{fill:url(#a);}.m{fill:#2f2e41;}.n{fill:#fbbebe;}</style><linearGradient id="a" x1="0.459" y1="0.999" x2="0.459" y2="-0.006" gradientUnits="objectBoundingBox"><stop offset="0" stop-color="gray" stop-opacity="0.251"/><stop offset="0.54" stop-color="gray" stop-opacity="0.122"/><stop offset="1" stop-color="gray" stop-opacity="0.102"/></linearGradient></defs><g transform="translate(-171.128 -450.704)"><g transform="translate(171.128 450.704)"><g transform="translate(0 0)"><ellipse class="a" cx="13.101" cy="2.278" rx="13.101" ry="2.278" transform="translate(43.399 71.197)"/><path class="b" d="M397.55,589l-20.3-.261.06-.521.981-8.589h17.828l1.311,8.589.1.652Z" transform="translate(-347.906 -526.347)"/><path class="c" d="M397.53,655.672H387.4l-10.15-.131.06-.521h20.12Z" transform="translate(-347.906 -593.148)"/><rect class="b" width="26.937" height="0.65" transform="translate(25.96 62.003)"/><path class="d" d="M286.916,170.7a1.694,1.694,0,0,0-1.686-1.7H210.006a1.694,1.694,0,0,0-1.686,1.7v45.6h78.6Z" transform="translate(-208.32 -169)"/><path class="b" d="M208.32,580.19v5.341a1.686,1.686,0,0,0,1.686,1.686H285.23a1.686,1.686,0,0,0,1.686-1.686V580.19Z" transform="translate(-208.32 -533.347)"/><rect class="e" width="72.48" height="40.99" transform="translate(3.254 2.859)"/><path class="f" d="M543.065,596.739a1.754,1.754,0,0,0,1.382-.671h0a1.811,1.811,0,0,0,.137-.2l-.965-.163,1.042.007a1.757,1.757,0,0,0,.033-1.391l-1.4.724,1.29-.948a1.757,1.757,0,1,0-2.9,1.966h0A1.755,1.755,0,0,0,543.065,596.739Z" transform="translate(-503.377 -544.896)"/><rect class="g" width="72.559" height="2.395" transform="translate(3.197 2.864)"/><rect class="h" width="21.861" height="1.457" rx="0.58" transform="translate(28.389 3.281)"/><path class="d" d="M637.252,199.858H637.2l-.019-.017a.443.443,0,0,0,.1-.284.431.431,0,1,0-.43.434.444.444,0,0,0,.284-.1l.019.017v.054l.334.334.1-.1Zm-.4,0a.3.3,0,1,1,.213-.088A.3.3,0,0,1,636.852,199.858Z" transform="translate(-587.651 -195.698)"/><ellipse class="i" cx="0.439" cy="0.439" rx="0.439" ry="0.439" transform="translate(4.062 3.623)"/><ellipse class="j" cx="0.439" cy="0.439" rx="0.439" ry="0.439" transform="translate(5.269 3.623)"/><ellipse class="k" cx="0.439" cy="0.439" rx="0.439" ry="0.439" transform="translate(6.476 3.623)"/><path class="f" d="M525.859,331.725a4.863,4.863,0,0,0-8.079,0,4.361,4.361,0,0,0,8.079,0Z" transform="translate(-482.526 -311.278)"/><path class="f" d="M489.343,343.023a1.045,1.045,0,0,1-.2-.114.8.8,0,0,1-.221-.286.818.818,0,1,0-1.335.2.91.91,0,0,0,.194.156.563.563,0,0,1,.218.228,1.645,1.645,0,0,0,.378.5,3.294,3.294,0,0,0,.518.365,7.554,7.554,0,0,0-.426,2.228,3.08,3.08,0,0,0-.868.14,1.4,1.4,0,0,0-.4.2.935.935,0,0,0-.1-.007.819.819,0,1,0,.767,1.107.523.523,0,0,1,.423-.342,1.893,1.893,0,0,1,.211-.014,7.337,7.337,0,0,0,.974,3.038,2.39,2.39,0,0,0-.906,1.237.344.344,0,0,0-.065.047.776.776,0,0,0-.1.089.818.818,0,1,0,1.373.268.536.536,0,0,1,.133-.579,2.27,2.27,0,0,1,.194-.166,4.779,4.779,0,0,0,3.4,1.852v-7.319A5.053,5.053,0,0,1,489.343,343.023Zm11.373,3.614a.9.9,0,0,0-.1.007,1.543,1.543,0,0,0-.4-.2,3.058,3.058,0,0,0-.868-.14,7.718,7.718,0,0,0-.426-2.227,3.307,3.307,0,0,0,.518-.365,1.778,1.778,0,0,0,.392-.521.48.48,0,0,1,.2-.2h0a.818.818,0,1,0-1.139-.361.777.777,0,0,1-.221.286,2.137,2.137,0,0,1-.2.147,5.017,5.017,0,0,1-4.156,2.79v7.326a4.8,4.8,0,0,0,3.4-1.852c.072.057.132.108.183.156a.554.554,0,0,1,.143.6.818.818,0,1,0,1.376-.265.785.785,0,0,0-.1-.089c-.038-.03-.065-.047-.065-.047a2.357,2.357,0,0,0-.911-1.237,7.338,7.338,0,0,0,.974-3.038,1.818,1.818,0,0,1,.2.014.547.547,0,0,1,.439.342.818.818,0,0,0,1.578-.248.83.83,0,0,0-.819-.873Z" transform="translate(-454.614 -321.802)"/><path class="l" d="M619.572,530.229a1.087,1.087,0,0,0-.247-.274,3.284,3.284,0,0,1-.852-1.838,18.753,18.753,0,0,0-.355-2.029,6.685,6.685,0,0,0-.4-.988,2.893,2.893,0,0,0-.466-.892.308.308,0,0,0-.143-.069,1.693,1.693,0,0,0-.412-.549,4.186,4.186,0,0,1-.941-.911,2.059,2.059,0,0,0-.22-.375c-.147-.162-.379-.228-.515-.4a1.146,1.146,0,0,1-.114-.819.787.787,0,0,0-.244-.767c-.146-.09-.334-.081-.485-.161a.7.7,0,0,1-.313-.657c0-.256.084-.506.1-.762.064-.816-.474-1.627-.267-2.417a4.919,4.919,0,0,1,.392-.839,1.743,1.743,0,0,0,.114-.289,4.074,4.074,0,0,0,1.11.268c-.628-1.408-.468-3.044-.761-4.557l.038-.051a2.374,2.374,0,0,0,.481-1.351,8.033,8.033,0,0,0-.382-1.64c-.1-.468-.1-.958-.228-1.418a4.291,4.291,0,0,0-.36-.823q-.213-.4-.448-.778-.219-.724-.439-1.449a7,7,0,0,0-.814-1.953c-.146-.214-.19-.649-.415-.779a1,1,0,0,0-.593-.1,1.108,1.108,0,0,1-.634-.785.766.766,0,0,1,.023-.228h.039c.5-.046.755-.488,1.016-.875a2.462,2.462,0,0,0,0-2.187,1.479,1.479,0,0,0-.342-.6c-.366-.342-.944-.267-1.416-.432-.159-.055-.307-.138-.468-.177a1.4,1.4,0,0,0-.928.174,9.238,9.238,0,0,1-.856.445c-.3.114-.672.2-.746.513a.569.569,0,0,0,.025.311,1.159,1.159,0,0,0,.352.508,2.029,2.029,0,0,0,1.238,2.828c.087.139.167.28.242.425a1.4,1.4,0,0,1,.2.829,2.547,2.547,0,0,0-.228.279,5.369,5.369,0,0,0-.684,1.523,16.172,16.172,0,0,0-.55,2.081,15.675,15.675,0,0,0-.819,1.777,4.014,4.014,0,0,1-1.069-.144l-.961-.218a2.172,2.172,0,0,1-.945-.379c-.139-.114-.247-.266-.389-.378s-.425-.245-.58-.152a.459.459,0,0,0-.079.06c-.141-.286-.276-.57-.44-.846a1.606,1.606,0,0,0-1.031-.816,1.049,1.049,0,0,0-.774.18.623.623,0,0,0-.228.829,1.508,1.508,0,0,0,.158.162,3.342,3.342,0,0,1,.352.489,2.5,2.5,0,0,0,1.537,1l-.04.114a1.754,1.754,0,0,0-.21.769l4.277,1.464a2.633,2.633,0,0,0,.861.19,1.391,1.391,0,0,0,.342-.045v.228c.011,1.5-.228,2.995-.272,4.5a1.166,1.166,0,0,0,.173.784.877.877,0,0,0,.837.228,1.947,1.947,0,0,0,.212-.048,7.906,7.906,0,0,1,.219,1.152l.283,2.035a3.089,3.089,0,0,1,.044.631,4.444,4.444,0,0,1-.467,1.345,1.593,1.593,0,0,0-.051,1.381c.075.128.179.236.246.368a1.5,1.5,0,0,1,.114.647q.026.921.05,1.843a.208.208,0,0,0-.143.029c-.237.185-.211,1.063-.228,1.335-.018.456,0,.92-.025,1.381a8.229,8.229,0,0,1-.3,1.833,1.174,1.174,0,0,1-.261.525,1.109,1.109,0,0,1-.464.24,5.3,5.3,0,0,1-1.756.239,1.728,1.728,0,0,0-.714.06.492.492,0,0,0-.322.57.719.719,0,0,0,.47.354,7.462,7.462,0,0,1,1.253.576,3.378,3.378,0,0,0,.484.275,2.488,2.488,0,0,0,.5.123l2.02.349c.414.071.912.114,1.175-.228a1.035,1.035,0,0,0,.156-.67,8.959,8.959,0,0,1-.043-1.375,4.228,4.228,0,0,1,.212-.789q.3-.9.606-1.792a9.418,9.418,0,0,0,.486-1.833.683.683,0,0,0-.148-.63.4.4,0,0,0-.15-.078c-.007-.549-.079-1.1-.048-1.648.008-.137.022-.273.033-.411a2,2,0,0,1,.281.333c.195.305.267.709.564.911.253.173.628.164.805.415a1.171,1.171,0,0,1,.128.309,2.2,2.2,0,0,0,.456.723,3.638,3.638,0,0,0,.281.722l.5,1.061a12.348,12.348,0,0,0,.57,1.113,3.144,3.144,0,0,1,.382.736,1.691,1.691,0,0,1-.516,1.595,4.436,4.436,0,0,1-1.5.875.419.419,0,0,0-.152.091.3.3,0,0,0-.07.2.643.643,0,0,0,.465.57,1.74,1.74,0,0,0,.778.029,11.556,11.556,0,0,0,4.194-1.24,1.478,1.478,0,0,0,.5-.386A.584.584,0,0,0,619.572,530.229Z" transform="translate(-555.624 -458.082)"/><path class="m" d="M705.845,569.182q.364.56.684,1.146a4.228,4.228,0,0,1,.361.817c.132.456.129.942.228,1.407a8.2,8.2,0,0,1,.38,1.629,2.342,2.342,0,0,1-.481,1.34,6.354,6.354,0,0,1-1,1.037,21.376,21.376,0,0,1-1.422-6.973,2.447,2.447,0,0,1,.107-.98c.074-.194.43-.725.659-.516.083.076.1.42.156.536A4.121,4.121,0,0,0,705.845,569.182Z" transform="translate(-648.051 -522.582)"/><path class="c" d="M705.845,569.182q.364.56.684,1.146a4.228,4.228,0,0,1,.361.817c.132.456.129.942.228,1.407a8.2,8.2,0,0,1,.38,1.629,2.342,2.342,0,0,1-.481,1.34,6.354,6.354,0,0,1-1,1.037,21.376,21.376,0,0,1-1.422-6.973,2.447,2.447,0,0,1,.107-.98c.074-.194.43-.725.659-.516.083.076.1.42.156.536A4.121,4.121,0,0,0,705.845,569.182Z" transform="translate(-648.051 -522.582)"/><path class="n" d="M595.391,588.746A1.6,1.6,0,0,0,594.1,589a1.058,1.058,0,0,0-.369.7c-.03.316.154.69.47.714a1.506,1.506,0,0,0,.228-.015,3.4,3.4,0,0,1,.6.05,2.437,2.437,0,0,0,2.077-.839c.272-.342-.087-.49-.408-.558C596.26,588.96,595.831,588.817,595.391,588.746Z" transform="translate(-549.826 -540.9)"/><path class="d" d="M671.781,656.874l.283,2.007a3.064,3.064,0,0,1,.043.628,4.42,4.42,0,0,1-.466,1.334,1.563,1.563,0,0,0-.051,1.367c.074.126.178.235.245.366a1.47,1.47,0,0,1,.114.641l.077,2.848a17.922,17.922,0,0,0,2.641-.015.147.147,0,0,0,.1-.03.155.155,0,0,0,.033-.1c.039-.666-.078-1.334-.04-2,.014-.244.048-.486.052-.731.014-.992-.476-1.964-.328-2.945a6.482,6.482,0,0,1,.182-.732,16.277,16.277,0,0,0,.266-5.269.126.126,0,0,0-.023-.08.121.121,0,0,0-.062-.033,3.241,3.241,0,0,0-2.937.558c-.124.1-.437.2-.519.317-.114.166.035.333.1.509A6.486,6.486,0,0,1,671.781,656.874Z" transform="translate(-618.597 -598.739)"/><path class="c" d="M671.781,656.874l.283,2.007a3.064,3.064,0,0,1,.043.628,4.42,4.42,0,0,1-.466,1.334,1.563,1.563,0,0,0-.051,1.367c.074.126.178.235.245.366a1.47,1.47,0,0,1,.114.641l.077,2.848a17.922,17.922,0,0,0,2.641-.015.147.147,0,0,0,.1-.03.155.155,0,0,0,.033-.1c.039-.666-.078-1.334-.04-2,.014-.244.048-.486.052-.731.014-.992-.476-1.964-.328-2.945a6.482,6.482,0,0,1,.182-.732,16.277,16.277,0,0,0,.266-5.269.126.126,0,0,0-.023-.08.121.121,0,0,0-.062-.033,3.241,3.241,0,0,0-2.937.558c-.124.1-.437.2-.519.317-.114.166.035.333.1.509A6.486,6.486,0,0,1,671.781,656.874Z" transform="translate(-618.597 -598.739)"/><path class="d" d="M688.588,650.858a4.942,4.942,0,0,0-.392.832c-.207.785.329,1.595.265,2.4-.02.254-.1.5-.1.755a.7.7,0,0,0,.313.654c.152.077.342.069.484.158a.782.782,0,0,1,.244.761,1.115,1.115,0,0,0,.114.812c.136.17.368.236.514.4a1.95,1.95,0,0,1,.22.371,4.284,4.284,0,0,0,.941.911,1.149,1.149,0,0,1,.456,1.149,1.268,1.268,0,0,1-.7.632,7.4,7.4,0,0,1-1.66.587.4.4,0,0,1-.19.01.407.407,0,0,1-.166-.114,3.09,3.09,0,0,1-.839-1.118,1.15,1.15,0,0,0-.128-.305c-.178-.25-.552-.24-.805-.412-.3-.2-.368-.6-.562-.9a10.111,10.111,0,0,0-.684-.747,8.151,8.151,0,0,1-.684-1.537c-.106-.214-.241-.415-.326-.638a3.485,3.485,0,0,1-.156-.825,12.9,12.9,0,0,1-.312-3.987c.057-.289.145-.57.181-.868.063-.516-.036-1.045.04-1.56a.429.429,0,0,1,.172-.331.456.456,0,0,1,.2-.04,13.361,13.361,0,0,1,2.026.046,1.255,1.255,0,0,1,.93.382,2.038,2.038,0,0,1,.221.85,2.1,2.1,0,0,0,.441.833A.79.79,0,0,1,688.588,650.858Z" transform="translate(-630.121 -593.328)"/><path class="m" d="M646.6,751.579a.8.8,0,0,1,.518.1.685.685,0,0,1,.148.625,9.39,9.39,0,0,1-.487,1.823l-.606,1.778a4.178,4.178,0,0,0-.212.784,8.854,8.854,0,0,0,.043,1.367,1.072,1.072,0,0,1-.157.664c-.258.332-.76.293-1.173.228l-2.017-.342a2.41,2.41,0,0,1-.5-.122,3.468,3.468,0,0,1-.484-.272,7.454,7.454,0,0,0-1.253-.57c-.189-.071-.4-.161-.469-.351a.492.492,0,0,1,.322-.57,1.749,1.749,0,0,1,.714-.062,5.355,5.355,0,0,0,1.754-.237,1.111,1.111,0,0,0,.463-.239,1.14,1.14,0,0,0,.267-.537,8,8,0,0,0,.305-1.823c.024-.456.008-.911.026-1.367.011-.27-.015-1.139.222-1.325.181-.139.926.245,1.171.3A5.693,5.693,0,0,0,646.6,751.579Z" transform="translate(-590.758 -684.792)"/><path class="m" d="M721.294,751.3a19.476,19.476,0,0,1,.355,2.014,3.276,3.276,0,0,0,.851,1.823,1.124,1.124,0,0,1,.247.273.577.577,0,0,1-.085.6,1.5,1.5,0,0,1-.5.384,11.6,11.6,0,0,1-4.193,1.232,1.767,1.767,0,0,1-.777-.029.641.641,0,0,1-.464-.57.291.291,0,0,1,.068-.2.425.425,0,0,1,.154-.09,4.536,4.536,0,0,0,1.5-.869,1.661,1.661,0,0,0,.516-1.579,3.131,3.131,0,0,0-.384-.73,12.321,12.321,0,0,1-.57-1.1l-.5-1.052a2.759,2.759,0,0,1-.32-.964,4.626,4.626,0,0,0,1.848-.3,2.906,2.906,0,0,0,.76-.456c.194-.162.37-.464.631-.253a3.046,3.046,0,0,1,.465.884A6.489,6.489,0,0,1,721.294,751.3Z" transform="translate(-658.81 -683.25)"/><path class="n" d="M674.36,530.873c.05.437.474.726.878.9l-2.56.817a1.153,1.153,0,0,0-.132-1.025,5.81,5.81,0,0,0-.456-.73c-.025-.035-.053-.08-.035-.121a.129.129,0,0,1,.072-.056,6.44,6.44,0,0,1,1.644-.563c.166-.024.481-.09.6.079S674.336,530.671,674.36,530.873Z" transform="translate(-619.221 -488.928)"/><path class="c" d="M674.36,530.873c.05.437.474.726.878.9l-2.56.817a1.153,1.153,0,0,0-.132-1.025,5.81,5.81,0,0,0-.456-.73c-.025-.035-.053-.08-.035-.121a.129.129,0,0,1,.072-.056,6.44,6.44,0,0,1,1.644-.563c.166-.024.481-.09.6.079S674.336,530.671,674.36,530.873Z" transform="translate(-619.221 -488.928)"/><ellipse class="n" cx="2.007" cy="2.007" rx="2.007" ry="2.007" transform="translate(51.644 38.284)"/><path class="m" d="M662.664,558.064a.887.887,0,0,0,.837.228,20.878,20.878,0,0,0,1.959-.816,3.835,3.835,0,0,1,2.524.424,7.426,7.426,0,0,0,2.452.859c-.785-1.75-.336-3.855-1.087-5.62a4.507,4.507,0,0,1-.481-1.314,10.628,10.628,0,0,1,.282-1.716,4.173,4.173,0,0,0-.262-1.515l-.549-1.8a6.91,6.91,0,0,0-.813-1.937c-.147-.213-.191-.645-.415-.774-.488-.281-1.227.073-1.756.092a1.833,1.833,0,0,0-1.319.82,5.272,5.272,0,0,0-.684,1.512,14.366,14.366,0,0,0-.607,2.418c-.017.123-.032.246-.043.37a33.678,33.678,0,0,0,.062,3.522v.008c.011,1.491-.228,2.973-.272,4.464A1.191,1.191,0,0,0,662.664,558.064Z" transform="translate(-610.752 -501.254)"/><path class="c" d="M664.136,562a2.569,2.569,0,0,0,1.054-.631,4.409,4.409,0,0,0,.7-.8,5.685,5.685,0,0,0,.6-1.261,14.736,14.736,0,0,0,.8-3.676,1.4,1.4,0,0,0-.165-.98.825.825,0,0,0-1-.241,1.651,1.651,0,0,0-.6.651,8.406,8.406,0,0,0-.849,1.574c-.091.248-.158.5-.247.753a6.939,6.939,0,0,1-.312.721c-.017.123-.032.246-.043.37C663.965,559.656,664.127,560.828,664.136,562Z" transform="translate(-612.12 -510.442)"/><path class="m" d="M625.273,552.711a1.411,1.411,0,0,1,.166.979,14.726,14.726,0,0,1-.8,3.676,5.633,5.633,0,0,1-.6,1.271,4.448,4.448,0,0,1-.7.8,2.183,2.183,0,0,1-1.384.673,2.64,2.64,0,0,1-.861-.188l-4.278-1.456a1.732,1.732,0,0,1,.21-.763l.228-.676a.859.859,0,0,1,.31-.49c.17-.1.439.038.58.15s.248.261.387.376a2.187,2.187,0,0,0,.946.376l.96.215a4.007,4.007,0,0,0,1.068.142c.268-.818.777-1.538,1.065-2.349.089-.248.156-.5.248-.753a8.38,8.38,0,0,1,.849-1.574,1.65,1.65,0,0,1,.6-.65A.823.823,0,0,1,625.273,552.711Z" transform="translate(-570.274 -508.714)"/><path class="m" d="M662.821,501.067a1.012,1.012,0,0,0-.121-.376.315.315,0,0,0-.342-.15c-.2.063-.268.373-.477.383-.141.007-.243-.137-.287-.271a.827.827,0,0,0-.174-.383.651.651,0,0,0-.248-.114,1.658,1.658,0,0,1-1.151-.922.553.553,0,0,1-.026-.309c.074-.306.456-.4.746-.509s.57-.3.854-.443a1.4,1.4,0,0,1,.929-.172,4.844,4.844,0,0,1,.468.174c.472.164,1.049.088,1.415.428a1.463,1.463,0,0,1,.342.6,2.442,2.442,0,0,1-.006,2.171c-.261.384-.514.823-1.015.869C663.144,502.09,662.913,501.562,662.821,501.067Z" transform="translate(-608.529 -460.322)"/><g class="o" transform="translate(51.458 38.226)"><path d="M661.965,506.413a.837.837,0,0,0-.173-.383.649.649,0,0,0-.248-.114,1.66,1.66,0,0,1-1.152-.922.563.563,0,0,1-.025-.309.385.385,0,0,1,.06-.136.6.6,0,0,0-.393.377.551.551,0,0,0,.026.309,1.658,1.658,0,0,0,1.151.922.65.65,0,0,1,.248.114.832.832,0,0,1,.174.383c.046.136.146.278.287.271s.21-.136.3-.244A.363.363,0,0,1,661.965,506.413Z" transform="translate(-660.023 -504.55)"/><path d="M683.2,521.359c-.586.054-.817-.48-.911-.97a.99.99,0,0,0-.114-.376.317.317,0,0,0-.342-.15.607.607,0,0,0-.252.228.342.342,0,0,1,.257.16,1.013,1.013,0,0,1,.121.376c.092.491.323,1.025.911.971a.939.939,0,0,0,.6-.312A.85.85,0,0,1,683.2,521.359Z" transform="translate(-679.124 -518.112)"/></g></g></g></g></svg>