<svg xmlns="http://www.w3.org/2000/svg" width="76.578" height="66.541" viewBox="0 0 76.578 66.541"><defs><style>.a{fill:#163560;}.b{fill:#80bdcc;}.c{fill:#c5cfd6;}.d{fill:#f3f9ff;}.e{fill:#a8d29f;}.f{fill:#89c5cc;}.g{fill:#82b378;}.h{fill:#41949e;}.i{fill:#2f3676;}.j{fill:#ffb27d;}.k{fill:#5c63ab;}.l{fill:#fca56b;}.m{fill:#e7f1fd;}.n{fill:#7ba9d8;}</style></defs><g transform="translate(-42.14 -451.032)"><g transform="translate(42.14 451.032)"><path class="a" d="M1453.433,1257.335a113.98,113.98,0,0,0,4.272,16.028c3.369,10.253,3.828,14.692,3.828,14.692a14.828,14.828,0,0,0,1.874.132,11.859,11.859,0,0,0,1.74-.234s.031-11.2-1.522-16.36-.335-18.586-.335-18.586Z" transform="translate(-1388.568 -1221.645)"/><path class="b" d="M508.365,1266.985l-1.516.047-1.641.05a32.393,32.393,0,0,1-5.917-10.987q-.074-.236-.157-.477c-1.164-3.393-3.576-7.652-4.848-11.508-.2-.614-.384-1.192-.547-1.739-.052-.175-.1-.347-.152-.517a40.892,40.892,0,0,1-1.458-7.676l9.18.073A171.132,171.132,0,0,0,508.365,1266.985Z" transform="translate(-483.019 -1203.982)"/><path class="b" d="M433.271,1328.493c.023,3.008-.129,9.923-.521,12.786H431.3c-.8,0-1.2-.011-1.2-.011-.983-4.978-1.682-9.1-2.191-12.646-.417-2.912-.789-5.409-1.074-7.559s-.487-3.975-.559-5.505q-.017-.361-.024-.7t0-.667l7.932-.773C434.073,1318.686,433.258,1326.745,433.271,1328.493Z" transform="translate(-421.21 -1278.313)"/><rect class="c" width="44.217" height="24.893" transform="translate(20.929 0)"/><circle class="d" cx="7.995" cy="7.995" r="7.995" transform="translate(21.715 11.884) rotate(-45)"/><g transform="translate(46.058 7.418)"><path class="d" d="M1141.308,835.892h-13.244a.875.875,0,0,0-.873.873h0a.875.875,0,0,0,.873.873h13.244a.875.875,0,0,0,.873-.873h0A.875.875,0,0,0,1141.308,835.892Z" transform="translate(-1127.191 -835.892)"/><path class="d" d="M1141.308,893.927h-13.244a.875.875,0,0,0-.873.873h0a.875.875,0,0,0,.873.873h13.244a.875.875,0,0,0,.873-.873h0A.875.875,0,0,0,1141.308,893.927Z" transform="translate(-1127.191 -890.334)"/><path class="d" d="M1141.308,951.962h-13.244a.873.873,0,1,0,0,1.745h13.244a.873.873,0,1,0,0-1.745Z" transform="translate(-1127.191 -944.775)"/></g><path class="e" d="M798.435,795.246h7.32v-7.32A7.32,7.32,0,0,0,798.435,795.246Z" transform="translate(-772.733 -783.478)"/><path class="f" d="M813.075,909.951h-14.64a7.32,7.32,0,0,0,7.32,7.32h0A7.32,7.32,0,0,0,813.075,909.951Z" transform="translate(-772.733 -897.948)"/><g transform="translate(27.374 8.005)"><path class="g" d="M829.822,845.367h-3.973a.411.411,0,0,0,0,.822h3.973a.411.411,0,0,0,0-.822Z" transform="translate(-825.438 -845.367)"/><path class="g" d="M826.754,869.52h-.9a.411.411,0,0,0,0,.822h.9a.411.411,0,0,0,0-.822Z" transform="translate(-825.438 -868.024)"/></g><g transform="translate(33.272 13.793)"><path class="h" d="M925.076,938.852H921.1a.411.411,0,1,0,0,.822h3.973a.411.411,0,1,0,0-.822Z" transform="translate(-920.692 -938.852)"/><path class="h" d="M922.008,963h-.9a.412.412,0,0,0-.411.411h0a.412.412,0,0,0,.411.411h.9a.412.412,0,0,0,.411-.411h0A.412.412,0,0,0,922.008,963Z" transform="translate(-920.692 -961.507)"/></g><path class="i" d="M1550.8,921.065s5.158,5.324,5.405,7.332-2.454,5.149-2.454,5.149Z" transform="translate(-1479.908 -908.373)"/><path class="j" d="M1474.772,864l-1.7,1.26-2.458-.518c.034-.224.2-1.153.344-1.995.009-.05.018-.1.026-.148l.236-1.331,2.3-1.144.856-.427c0,.015-.066.795-.075.908A7.35,7.35,0,0,0,1474.772,864Z" transform="translate(-1404.684 -850.808)"/><path class="i" d="M1456.557,905.507a23.291,23.291,0,0,1,3.7-.875c.358.118.569.809.569.809l-5.382,1.217A2.672,2.672,0,0,1,1456.557,905.507Z" transform="translate(-1390.456 -892.948)"/><path class="k" d="M1427.5,939.568c-.558,2.544-9.84,2.846-12.232.536-.272-.263-.286-1.488-.183-3.139.2-3.226.845-8.079.87-10.559a19.622,19.622,0,0,1,.4-3.534,28.717,28.717,0,0,1,1.177-4.23s4.534-1.466,5.382-1.216C1426.993,918.626,1428.053,937.024,1427.5,939.568Z" transform="translate(-1352.534 -904.933)"/><path class="i" d="M1415.976,1012.624c.2-3.226.845-8.079.871-10.559a19.609,19.609,0,0,1,.4-3.534l2.727-.481S1422.636,1008.94,1415.976,1012.624Z" transform="translate(-1353.43 -981.082)"/><path class="k" d="M1368.365,926.961a8.263,8.263,0,0,0-4.779,3.621c-2.119,3.123-3.514,5.445-3.123,6.571s3.949,5.029,4.563,5.029a1.645,1.645,0,0,0,1.659-1.45s-2.505-3.755-2.012-4.317c.211-.24,3.253-2.71,3.687-1.594C1369.078,936.666,1368.365,926.961,1368.365,926.961Z" transform="translate(-1301.292 -913.904)"/><path class="l" d="M1479.337,867.1c-.5.965-2.383,1.8-3.167,2.106.009-.05.018-.1.026-.148.127-.716.236-1.331.236-1.331l2.3-1.144C1479.236,866.577,1479.545,866.706,1479.337,867.1Z" transform="translate(-1409.897 -857.266)"/><path class="j" d="M1462.018,801.164s3.4,1.06,4.027-1.067,1.489-3.422-.654-4.189-2.807-.08-3.189.579S1461.15,800.833,1462.018,801.164Z" transform="translate(-1396.222 -790.648)"/><path class="a" d="M1468.73,778.688s.217,2.475.729,2.368.976-.187.9.559-.785,1.607.793,1.739,3.845-3.936,3.412-4.706C1473.314,776.426,1466.923,775.977,1468.73,778.688Z" transform="translate(-1402.618 -773.055)"/><path class="a" d="M359.069,803.626a3,3,0,0,0-1.625-.311.76.76,0,0,1,.343-.163,2.518,2.518,0,0,0-.9.234c-3.869-1.491-4.477,4.206-4.4,5.529s-1.3,1.756-3.313,2.8c-3.84,1.99-4.178,4.654-4.178,4.654.03.018.061.038.094.061.191-.323.583-.929.914-1.02a13.681,13.681,0,0,0-.532,1.3c1.133.862,3.252,2.771,4.729,4.125a2.172,2.172,0,0,1,.1-.839l.183,1.1c.79.727,1.335,1.238,1.335,1.238-.1-1.069,4.837-6.713,7.411-8.4a7.443,7.443,0,0,0,.866-2.681,7.035,7.035,0,0,1-.527,2.425C361.756,811.663,360.487,804.432,359.069,803.626Z" transform="translate(-345.002 -797.751)"/><path class="m" d="M440.415,969.866a20.6,20.6,0,0,0,.641,6.243,12.336,12.336,0,0,1-8.6.527c-.055-.017-3.868-.887-3.868-.887.078-.177.773-3.121.85-3.283.986-2.118,1.735-3.047,1.852-3.7a13.849,13.849,0,0,0,.114-3.66,29.368,29.368,0,0,0-1.133-5.748,30.1,30.1,0,0,0,3.823-1.282,2.867,2.867,0,0,0,2.012.745c.931-.02,1.221-.414,1.187-.857.992.552,1.78,1.077,1.78,1.077.843,1.464,2.552,2.886,2.676,5.131C441.776,964.725,440.415,969.744,440.415,969.866Z" transform="translate(-423.409 -942.989)"/><path class="j" d="M520.8,842.948s-3.787.062-3.79-2.3-.493-3.94,1.925-4.079,2.889.76,3.081,1.547S521.784,842.871,520.8,842.948Z" transform="translate(-506.319 -829.099)"/><path class="n" d="M584.936,960.753s-2.486,1.39-3.374,1.791c-.316.142-.888.409-1.472.682l-1.019.478a1.281,1.281,0,0,1-1.518-.328c-1.346-1.572-4.83-4.978-8.427-5.405l-.013-.005,0,0h0l.02.039c.2.5,2.174,5.43,2.236,6.47.064,1.1.258,17.914.258,17.914s-.129.773,1.353.451a4.978,4.978,0,0,0,1.869-.644s-1.418-10.375-1.031-13.983a8.028,8.028,0,0,0-.151-2.326,18.474,18.474,0,0,0,4.774,1.917,21.732,21.732,0,0,0,2.461-1.348,15.435,15.435,0,0,0,2.075-1.669,30.486,30.486,0,0,0,2.359-2.714Z" transform="translate(-555.234 -942.989)"/><path class="n" d="M405.27,983.772a2.362,2.362,0,0,1-2.492,1.761,23.3,23.3,0,0,1-4.682-1.418s.826-2.61,1.853-6.04c1.244-4.152,2.783-9.5,3.509-12.88a20.868,20.868,0,0,0,.394-2.3l1.637-3.113s2.358,5.368,2.487,6.722S405.27,983.772,405.27,983.772Z" transform="translate(-394.808 -944.692)"/><path class="j" d="M520.188,1091.458a1.435,1.435,0,0,0-1.4,1.284,2.832,2.832,0,0,1-.405.967c-.927.05-3.134.17-4.988.287l-.153,2.432a27.764,27.764,0,0,0,5.549-1.313,1.452,1.452,0,0,0,.632-.343,6.945,6.945,0,0,0,2.1-3.186C521.519,1091.322,521.119,1091.335,520.188,1091.458Z" transform="translate(-502.823 -1068.694)"/><path class="n" d="M431.01,959.781s-3.932.279-4.877,2.384-1.246,9.107-.043,11.169a10.953,10.953,0,0,0,4.585-.076l.108-.021s.934-2.288.1-2.739c0,0-2.47.129-2.212-.687S431.01,959.781,431.01,959.781Z" transform="translate(-420.329 -944.692)"/><g transform="translate(24.856 15.739)"><path class="j" d="M827.62,975.909a2.364,2.364,0,0,0-2.649,1.652l.395,1.322a1.675,1.675,0,0,0,1.748-.832c.526-.752.67-.464,1-1.023C828.572,976.268,827.863,975.985,827.62,975.909Z" transform="translate(-820.108 -975.883)"/><path class="j" d="M747.912,1004.781c-.316.142-.888.409-1.473.682a7.515,7.515,0,0,1,.808,3.233,13.491,13.491,0,0,0,2.137-1.721,28.317,28.317,0,0,0,2.3-2.662l-.4-1.322S748.8,1004.38,747.912,1004.781Z" transform="translate(-746.44 -1001.311)"/></g></g></g></svg>