<svg xmlns="http://www.w3.org/2000/svg" width="25.139" height="35.451" viewBox="0 0 25.139 35.451"><g transform="translate(0 0)"><path d="M207.144,143.094a2.408,2.408,0,0,0-2.405,2.405v27.711a2.408,2.408,0,0,0,2.405,2.405h20.328a2.408,2.408,0,0,0,2.405-2.405V145.5a2.408,2.408,0,0,0-2.405-2.405Z" transform="translate(-204.739 -140.166)" fill="#6c757d"/><rect width="22.637" height="29.105" transform="translate(1.251 4.637)" fill="#fff"/><rect width="16.719" height="1.098" transform="translate(4.21 9.854)" fill="#6c757d"/><path d="M0,0H16.719V1.1H0Z" transform="translate(4.21 12.783)" fill="#6c757d"/><rect width="16.719" height="1.098" transform="translate(4.21 15.712)" fill="#6c757d"/><rect width="16.719" height="1.098" transform="translate(4.21 18.64)" fill="#6c757d"/><rect width="16.719" height="1.098" transform="translate(4.21 21.569)" fill="#6c757d"/><rect width="16.719" height="1.098" transform="translate(4.21 24.498)" fill="#6c757d"/><rect width="16.719" height="1.098" transform="translate(4.21 27.427)" fill="#6c757d"/><path d="M358.873,86.279h-1.995v-.408a1.117,1.117,0,0,0-1.117-1.117H353.6a1.117,1.117,0,0,0-1.117,1.117v.408H350.49a1.117,1.117,0,0,0-1.117,1.117v3.093H359.99V87.4a1.117,1.117,0,0,0-1.117-1.117Z" transform="translate(-342.112 -84.754)" fill="#6c757d"/><path d="M438.325,691.641a3.51,3.51,0,0,1,1.06-.563,1.115,1.115,0,0,1,1.05.193.643.643,0,0,1,.155.813.517.517,0,0,1-.343.249.413.413,0,0,1-.371-.145.378.378,0,0,1-.095-.372.487.487,0,0,1,.312-.265,2.311,2.311,0,0,1,.465-.1l.647-.089,2.649-.363,2.95-.4a.092.092,0,0,0,.064-.113.094.094,0,0,0-.113-.064l-5.87.8c-.212.029-.428.05-.638.093a1.071,1.071,0,0,0-.458.19.547.547,0,0,0,0,.849.606.606,0,0,0,.872-.065.79.79,0,0,0,.06-.968,1.174,1.174,0,0,0-1.145-.47,3.123,3.123,0,0,0-1.344.627C438.135,691.549,438.227,691.708,438.325,691.641Z" transform="translate(-426.471 -660.016)" fill="#6c757d"/></g></svg>