<svg xmlns="http://www.w3.org/2000/svg" width="23" height="27" viewBox="0 0 23 27">
    <g>
        <path d="M34.2 11.5H11.8a.328.328 0 0 0-.3.351v3.506a.328.328 0 0 0 .3.351h1.195v22.441a.328.328 0 0 0 .3.351h19.413a.328.328 0 0 0 .3-.351V15.708H34.2a.328.328 0 0 0 .3-.351v-3.506a.328.328 0 0 0-.3-.351zm-1.791 26.3H13.591V15.708h18.818zM33.9 15.006H12.1V12.2h21.8z" transform="translate(-11.5 -11.5)"/>
        <path d="M31.631 43.137l5.455 3.9a.312.312 0 0 0 .362 0l5.455-3.9a.312.312 0 0 0-.181-.565h-3.585v-8.26a.312.312 0 0 0-.312-.312h-3.117a.312.312 0 0 0-.312.312v8.26h-3.584a.312.312 0 0 0-.181.565zm4.077.058a.312.312 0 0 0 .312-.312v-8.26h2.494v8.26a.312.312 0 0 0 .312.312h2.924l-4.482 3.2-4.482-3.2z" transform="translate(-11.5 -11.5) rotate(180 30.133 33.767)"/>
    </g>
</svg>
