<svg xmlns="http://www.w3.org/2000/svg" width="22.68" height="25.315" viewBox="0 0 22.68 25.315"><g transform="translate(-41.96 -286.246)"><g transform="translate(14.941 273.523)"><g transform="translate(27.019 12.723)"><g transform="translate(0)"><g transform="translate(0 0)"><g transform="translate(0 10.08)"><path d="M33.321,61.835H12.359a.881.881,0,0,1-.859-.859V57.94a11.34,11.34,0,0,1,22.68,0v3.035A.881.881,0,0,1,33.321,61.835Zm-20.1-1.718H32.462V57.94a9.622,9.622,0,0,0-19.244,0Z" transform="translate(-11.5 -46.6)" fill="#5267ff"/></g><g transform="translate(5.441)"><path d="M26.9,40.8a5.9,5.9,0,1,1,5.9-5.9A5.891,5.891,0,0,1,26.9,40.8Zm0-10.137a4.181,4.181,0,1,0,4.181,4.181A4.2,4.2,0,0,0,26.9,30.661Z" transform="translate(-21 -29)" fill="#5267ff"/></g></g></g></g></g><g transform="translate(48.96 300.827)"><path d="M18.682,290.91a1.457,1.457,0,0,0-.946.373l-3.158,2.825-1.094-.978a1.486,1.486,0,0,0-1.347-.35,1.313,1.313,0,0,0-.992.888,1.151,1.151,0,0,0,.392,1.205L13.6,296.72a1.5,1.5,0,0,0,1.953,0l4.13-3.694a1.141,1.141,0,0,0,.308-1.364,1.4,1.4,0,0,0-1.31-.751Z" transform="translate(-11.1 -290.91)" fill="#5267ff"/></g></g></svg>