<svg xmlns="http://www.w3.org/2000/svg" width="12.5" height="12.847" viewBox="0 0 12.5 12.847"><g transform="translate(-2.392 -2.125)"><path d="M13.156,3.166H12.114V2.125H11.42V3.166H5.864V2.125H5.17V3.166H4.128A1.738,1.738,0,0,0,2.392,4.9v8.334a1.738,1.738,0,0,0,1.736,1.736h9.028a1.738,1.738,0,0,0,1.736-1.736V4.9A1.738,1.738,0,0,0,13.156,3.166ZM14.2,13.236a1.042,1.042,0,0,1-1.041,1.041H4.128a1.042,1.042,0,0,1-1.041-1.041v-6.6H14.2Zm0-7.292H3.086V4.9A1.042,1.042,0,0,1,4.128,3.861H5.169v.695h.7V3.861H11.42v.695h.695V3.861h1.041A1.042,1.042,0,0,1,14.2,4.9Z"/><path d="M10.559,12.909h1.389a.7.7,0,0,0,.695-.695V10.826a.7.7,0,0,0-.695-.695H10.559a.7.7,0,0,0-.695.695v1.389A.7.7,0,0,0,10.559,12.909Zm0-2.084h1.389v1.389H10.559Z" transform="translate(-2.611 -2.798)"/><path d="M15.9,12.909h1.389a.7.7,0,0,0,.695-.695V10.826a.7.7,0,0,0-.695-.695H15.9a.7.7,0,0,0-.695.695v1.389A.7.7,0,0,0,15.9,12.909Zm0-2.084h1.389v1.389H15.9Z" transform="translate(-4.477 -2.798)"/><path d="M5.222,18.247H6.611a.7.7,0,0,0,.695-.695V16.164a.7.7,0,0,0-.695-.695H5.222a.7.7,0,0,0-.695.695v1.389A.7.7,0,0,0,5.222,18.247Zm0-2.084H6.611v1.389H5.222Z" transform="translate(-0.746 -4.664)"/><path d="M10.559,18.247h1.389a.7.7,0,0,0,.695-.695V16.164a.7.7,0,0,0-.695-.695H10.559a.7.7,0,0,0-.695.695v1.389A.7.7,0,0,0,10.559,18.247Zm0-2.084h1.389v1.389H10.559Z" transform="translate(-2.611 -4.664)"/><path d="M15.9,18.247h1.389a.7.7,0,0,0,.695-.695V16.164a.7.7,0,0,0-.695-.695H15.9a.7.7,0,0,0-.695.695v1.389A.7.7,0,0,0,15.9,18.247Zm0-2.084h1.389v1.389H15.9Z" transform="translate(-4.477 -4.664)"/></g></svg>