<svg xmlns="http://www.w3.org/2000/svg" width="16.977" height="22.656" viewBox="0 0 16.977 22.656">
    <g>
        <g>
            <path fill="#303030" stroke="#303030" d="M36.165 965.6l-.036.018a.31.31 0 0 0-.131.118l-10.884 17.332a.275.275 0 0 0-.047.193l.619 3.723a.3.3 0 0 0 .16.21.346.346 0 0 0 .279.015l3.818-1.369a.314.314 0 0 0 .16-.125L41 968.379a.282.282 0 0 0-.117-.4l-4.438-2.354a.345.345 0 0 0-.277-.027zm.231.686l3.886 2.062-.965 1.523-3.874-2.055zm-1.281 2.039L39 970.384l-9.12 14.529-3.9-2.068 9.133-14.522zM25.739 983.4l3.739 1.983-3.218 1.154z" transform="translate(.501 .503) translate(-25.064 -965.581)"/>
        </g>
    </g>
</svg>
